<?xml version="1.0" encoding="UTF-8"?>
<svg version="1.1" xmlns="http://www.w3.org/2000/svg" width="315" height="311">
<path d="M0 0 C4.40415541 4.88028032 5.2711708 7.74848887 5.234375 14.16015625 C4.99248629 17.09104112 4.36350982 19.56859308 3.5 22.375 C-0.49355008 35.85798575 3.38534824 47.30531544 9.3125 59.5 C9.70622803 60.32153564 10.09995605 61.14307129 10.50561523 61.98950195 C13.35402254 67.85878892 16.42007493 73.5388594 20 79 C19.82082031 78.3709375 19.64164063 77.741875 19.45703125 77.09375 C18.11590646 71.69673871 17.61067603 67.83327172 19.9375 62.69140625 C21.95594318 59.4782228 24.66708828 57.66645586 28 56 C33.77051857 55.29866005 39.29589654 54.86688035 44.1875 58.375 C45.49695904 59.54136351 46.7663202 60.75375727 48 62 C48.70511719 62.680625 49.41023437 63.36125 50.13671875 64.0625 C57.03769428 71.19230369 62.08447648 79.44216905 67 88 C67.52851563 88.90234375 68.05703125 89.8046875 68.6015625 90.734375 C77.95826631 108.75894554 77.79232576 131.68156718 72.875 150.875 C70.78262844 157.46814996 66.93804104 167.06195896 62 172 C63.134375 172.165 64.26875 172.33 65.4375 172.5 C66.07558594 172.5928125 66.71367187 172.685625 67.37109375 172.78125 C71.24637026 173.10370986 75.11366658 173.03777724 79 173 C79.25579834 172.50709473 79.51159668 172.01418945 79.77514648 171.50634766 C84.93365917 161.65817351 89.85310497 152.70737083 98 145 C98.55558594 144.45988281 99.11117188 143.91976562 99.68359375 143.36328125 C105.88177639 137.74466893 112.63890264 137.55705589 120.64453125 137.68359375 C126.41774898 138.22798331 129.31051797 140.21919462 133.3125 144.4375 C138.06695875 151.65723365 137.81367168 159.65518303 137 168 C135.20269213 176.45918554 130.51582919 183.7315446 126 191 C126.47566406 191.763125 126.95132812 192.52625 127.44140625 193.3125 C130.03483883 197.78438374 130.42815847 200.90741092 129.41015625 205.8828125 C125.53600615 219.68343302 118.4868247 234.76112587 105.69921875 242.22265625 C104 243 104 243 102 243 C101.938125 244.051875 101.87625 245.10375 101.8125 246.1875 C100.82748869 250.80947613 99.68246701 252.10103661 96 255 C93.32142373 256.55844438 90.83093579 257.79023483 88 259 C87.11207764 259.42466553 86.22415527 259.84933105 85.30932617 260.28686523 C74.82005404 264.74197304 65.13621914 264.46425733 53.91589355 264.14703369 C35.47168453 263.65454806 18.07967305 264.05502528 0 268 C-2.36822324 268.48827279 -4.73672663 268.97518821 -7.10546875 269.4609375 C-15.04281771 271.11386996 -22.9562307 272.86875951 -30.8671875 274.64306641 C-40.58573157 276.81442 -50.00394346 278.74511164 -60 279 C-60.78084961 279.02046387 -61.56169922 279.04092773 -62.36621094 279.06201172 C-65.01503428 279.12232554 -67.66314637 279.15947729 -70.3125 279.1875 C-71.149021 279.20071289 -71.98554199 279.21392578 -72.84741211 279.22753906 C-78.23256791 279.23396974 -82.82638974 278.50624096 -88 277 C-88.061875 277.721875 -88.12375 278.44375 -88.1875 279.1875 C-89.61371103 284.12438434 -92.88006319 286.34121364 -97.1875 288.875 C-103.42384793 290.71523381 -108.69138044 289.99509464 -114.625 287.4375 C-115.40875 286.963125 -116.1925 286.48875 -117 286 C-117.763125 286.78375 -118.52625 287.5675 -119.3125 288.375 C-123.27371078 292.2440896 -125.36009504 293.29192489 -130.8125 293.3125 C-137.24928318 293.18841743 -140.7877123 291.9035964 -145.6875 287.6875 C-151.11709163 281.37743405 -151.59350838 275.49922955 -151.99609375 267.54492188 C-152.332807 263.27152928 -152.58191992 261.48986489 -155.45703125 258.12109375 C-156.71580078 257.07115234 -156.71580078 257.07115234 -158 256 C-160.82493831 251.51906338 -161.55506497 248.27311717 -161 243 C-159.67507046 239.02521139 -158.61927503 236.55763646 -155.48828125 233.73828125 C-151.16358112 228.6502593 -151.77202592 221.12759925 -151.375 214.75 C-149.67094017 189.71207265 -149.67094017 189.71207265 -142 183 C-138.41095942 181.38012273 -134.77162996 180.12290209 -131 179 C-131.33773437 178.26136719 -131.67546875 177.52273437 -132.0234375 176.76171875 C-139.79169378 159.09230346 -140.12338108 140.96288906 -133.21875 122.96337891 C-125.99452182 105.51736952 -113.22541313 93.50427278 -98.578125 82.1171875 C-91.91048454 76.72792923 -88.9423946 70.29732959 -86.5 62.1875 C-84.99942 57.38903515 -82.48930132 54.45552122 -78.109375 51.89453125 C-75.82249851 50.92472622 -74.16339666 50.66897685 -71.6875 50.625 C-70.61048828 50.58246094 -70.61048828 50.58246094 -69.51171875 50.5390625 C-65.81225474 51.2179688 -63.19479576 53.03097849 -60 55 C-59.72027344 53.92363281 -59.44054687 52.84726562 -59.15234375 51.73828125 C-52.86095279 28.44298611 -40.05839888 11.35602467 -19.15625 -0.94140625 C-12.64352048 -4.13877889 -6.13753395 -3.95529966 0 0 Z " fill="#040404" transform="translate(169,10)"/>
<path d="M0 0 C-0.50718673 2.78952704 -1.13004877 5.4002276 -2.0078125 8.1015625 C-7.83364654 28.47599123 1.34242097 48.49294096 11 66 C12.16378902 68.05458442 13.33870489 70.1024684 14.51586914 72.14941406 C24.47589366 89.47516624 32.12463355 109.22862353 28.3515625 129.48046875 C24.03140223 144.63795415 13.21640048 163.75208833 -1 172 C-4.90252864 172.47357874 -5.70456691 172.22628918 -8.9375 169.75 C-9.43894531 169.29625 -9.94039063 168.8425 -10.45703125 168.375 C-16.70638283 162.80595758 -21.86588364 161.63184681 -29.98046875 161.71875 C-36.34653662 162.31170846 -41.99039864 164.29620755 -46.875 168.4375 C-47.57625 169.283125 -48.2775 170.12875 -49 171 C-52.8428545 175.37890486 -56.28728214 177.31090718 -61.625 179.25 C-62.29273438 179.50523437 -62.96046875 179.76046875 -63.6484375 180.0234375 C-66.41435103 181.07448464 -69.19295165 182.06431722 -72 183 C-72.01417969 182.04738281 -72.02835938 181.09476563 -72.04296875 180.11328125 C-72.14041756 172.50394549 -72.14041756 172.50394549 -75.25 165.8125 C-76.1575 165.214375 -77.065 164.61625 -78 164 C-78.70125 163.401875 -79.4025 162.80375 -80.125 162.1875 C-85.79160729 159.84694481 -91.85070948 160.15563587 -97.5 162.375 C-99.34098632 163.57164111 -101.17305162 164.78203441 -103 166 C-105.5234375 165.8984375 -105.5234375 165.8984375 -108 165 C-115.64075548 155.17617152 -117.2637037 140.93365477 -116 129 C-111.89028748 109.08711237 -98.74853066 94.91780699 -83 83 C-73.02387591 75.30413284 -68.29949378 66.01958448 -65 54 C-62.5796758 54.36101474 -61.33801321 54.59834851 -59.734375 56.50390625 C-55.68661486 64.96886495 -55.51163059 75.78606195 -58 84.8125 C-60.26681053 90.47952632 -64.27379358 95.22955428 -68 100 C-71.89320815 105.04246182 -72.33931747 108.55296801 -72 115 C-71.34 116.65 -70.68 118.3 -70 120 C-66.37 119.67 -62.74 119.34 -59 119 C-58.505 117.515 -58.505 117.515 -58 116 C-56.88625 114.9171875 -56.88625 114.9171875 -55.75 113.8125 C-43.58214071 101.36809846 -41.19309768 81.15988402 -40.125 64.5 C-39.01596107 49.83918432 -37.53244837 35.40181449 -29 23 C-28.13761719 21.74509766 -28.13761719 21.74509766 -27.2578125 20.46484375 C-21.32351969 12.49910216 -10.44346043 0 0 0 Z " fill="#55BD5E" transform="translate(161,21)"/>
<path d="M0 0 C2.19847983 1.5490383 2.8924676 2.39296227 3.36328125 5.05078125 C3.33814453 6.17033203 3.33814453 6.17033203 3.3125 7.3125 C3.30863281 8.05113281 3.30476562 8.78976563 3.30078125 9.55078125 C1.36274992 25.33189354 -12.06187405 39.638448 -24 49 C-24.99 49.495 -24.99 49.495 -26 50 C-26.92188461 52.76565382 -27.11785222 54.38283702 -27.09765625 57.23046875 C-27.09443359 58.03291016 -27.09121094 58.83535156 -27.08789062 59.66210938 C-27.07951172 60.49548828 -27.07113281 61.32886719 -27.0625 62.1875 C-27.05573242 63.4549707 -27.05573242 63.4549707 -27.04882812 64.74804688 C-27.03705403 66.83206155 -27.0191189 68.91603977 -27 71 C-25.35 71 -23.7 71 -22 71 C-21.72800781 70.42507812 -21.45601562 69.85015625 -21.17578125 69.2578125 C-19.99284608 66.98626258 -18.65433627 64.97269197 -17.1875 62.875 C-13.97705127 58.13426367 -11.43995416 53.17140727 -9 48 C-7.68 48 -6.36 48 -5 48 C-5.44132949 53.82682853 -6.61822694 58.03452284 -9.6875 63.0625 C-10.04545654 63.66739258 -10.40341309 64.27228516 -10.7722168 64.89550781 C-14.13450614 70.45809129 -17.53426298 75.35617532 -23 79 C-25.26171875 79.1953125 -25.26171875 79.1953125 -27.6875 79.125 C-28.49574219 79.10695313 -29.30398438 79.08890625 -30.13671875 79.0703125 C-30.75160156 79.04710937 -31.36648438 79.02390625 -32 79 C-35.39832897 73.08033019 -37.12954537 69.99544992 -37 63 C-37.88751953 63.75796875 -37.88751953 63.75796875 -38.79296875 64.53125 C-39.97826172 65.50578125 -39.97826172 65.50578125 -41.1875 66.5 C-41.96480469 67.1496875 -42.74210938 67.799375 -43.54296875 68.46875 C-46.37024437 70.23074053 -47.73333821 70.60175349 -51 70 C-52.58203125 68.46875 -52.58203125 68.46875 -53.8125 66.5 C-54.23144531 65.8503125 -54.65039062 65.200625 -55.08203125 64.53125 C-55.38496094 64.0259375 -55.68789062 63.520625 -56 63 C-56.35191406 63.49371094 -56.70382813 63.98742187 -57.06640625 64.49609375 C-59.76661609 68.0000214 -61.3463704 69.77461048 -65.625 71.25 C-69 71 -69 71 -71.4375 68.6875 C-73 66 -73 66 -73 64 C-73.66 64 -74.32 64 -75 64 C-75.26039063 64.59425781 -75.52078125 65.18851562 -75.7890625 65.80078125 C-77.07769569 68.14110539 -78.34810441 69.46596641 -80.375 71.1875 C-80.96023437 71.69667969 -81.54546875 72.20585937 -82.1484375 72.73046875 C-84.11024909 74.07559273 -85.676089 74.57514402 -88 75 C-88 75.66 -88 76.32 -88 77 C-95.30367505 77.49516441 -95.30367505 77.49516441 -98.8125 75 C-99.534375 74.34 -100.25625 73.68 -101 73 C-104.22716073 72.65539312 -104.22716073 72.65539312 -106.5625 75.4375 C-107.366875 76.283125 -108.17125 77.12875 -109 78 C-112.11877956 79.55938978 -114.57255771 79.3607834 -118 79 C-121.15952639 76.04431402 -121.23032376 72.8761663 -121.375 68.75 C-121.24473408 63.41633435 -120.03487401 58.90549985 -118 54 C-126.1447289 60.9381024 -128.39495136 71.06505961 -131 81 C-131.495 82.485 -131.495 82.485 -132 84 C-133.65 84 -135.3 84 -137 84 C-140.1685897 77.6628206 -137.97901984 69.1346117 -136 62.75 C-135.35016196 60.82756246 -134.68954283 58.90855606 -134 57 C-143.21174132 65.69997791 -146.1926163 73.97068566 -146.7890625 86.33984375 C-147 89 -147 89 -148 90 C-149.99958364 90.04080783 -152.00045254 90.04254356 -154 90 C-154.33 88.35 -154.66 86.7 -155 85 C-155.66 85 -156.32 85 -157 85 C-157.20625 85.556875 -157.4125 86.11375 -157.625 86.6875 C-159.51907407 89.87298821 -161.81590112 92.15046648 -165 94 C-168.625 94.6875 -168.625 94.6875 -172 94 C-176.41590558 89.03901842 -176.60187027 84.87178972 -176.4375 78.5625 C-176.4264624 77.6866626 -176.4154248 76.8108252 -176.40405273 75.90844727 C-176.17851254 67.02830746 -174.81528945 58.44586835 -172 50 C-173.0209375 50.495 -173.0209375 50.495 -174.0625 51 C-177.50840238 52.17307315 -180.38397422 52.14180493 -184 52 C-184 50.02 -184 48.04 -184 46 C-182.60470871 45.37379084 -181.20873879 44.74909369 -179.8125 44.125 C-178.99136719 43.75117188 -178.17023438 43.37734375 -177.32421875 42.9921875 C-175 42 -175 42 -172.125 41.25 C-169.0898164 39.46459788 -168.70662444 37.17145258 -167.7734375 33.875 C-167 32 -167 32 -164 30 C-160.8125 29.875 -160.8125 29.875 -158 30 C-158.33 32.64 -158.66 35.28 -159 38 C-152.565 37.505 -152.565 37.505 -146 37 C-146.33 38.65 -146.66 40.3 -147 42 C-148.9363704 42.50435694 -150.87414146 43.00333874 -152.8125 43.5 C-153.89144531 43.7784375 -154.97039062 44.056875 -156.08203125 44.34375 C-159 45 -159 45 -162 45 C-162.10957031 45.7528125 -162.21914062 46.505625 -162.33203125 47.28125 C-163.06742548 52.20779343 -163.80185445 57.12302904 -164.80078125 62.00390625 C-166.44694336 70.07340455 -167.4230629 77.72677001 -167 86 C-164.59258366 85.87113244 -164.59258366 85.87113244 -162 85 C-155.03920917 76.34920948 -153.35321138 63.53738901 -151 53 C-146.545 52.505 -146.545 52.505 -142 52 C-142 53.98 -142 55.96 -142 58 C-141.41992188 57.16855469 -141.41992188 57.16855469 -140.828125 56.3203125 C-140.30734375 55.59585938 -139.7865625 54.87140625 -139.25 54.125 C-138.73953125 53.40570313 -138.2290625 52.68640625 -137.703125 51.9453125 C-135.89475994 49.87979461 -134.54875808 48.97095546 -132 48 C-129.25 47.875 -129.25 47.875 -127 48 C-126.34 49.98 -125.68 51.96 -125 54 C-124.61328125 53.45730469 -124.2265625 52.91460937 -123.828125 52.35546875 C-123.30734375 51.64003906 -122.7865625 50.92460937 -122.25 50.1875 C-121.73953125 49.47980469 -121.2290625 48.77210938 -120.703125 48.04296875 C-118.93836119 45.92606171 -117.34284739 44.44904434 -115 43 C-111.3125 42.75 -111.3125 42.75 -108 43 C-107 44 -107 44 -106.98046875 45.96875 C-107.43733401 51.55457426 -108.60779877 55.6802881 -111.078125 60.68359375 C-112.65832136 64.6541719 -112.82313151 68.76399957 -113 73 C-111.68 73 -110.36 73 -109 73 C-109 72.34 -109 71.68 -109 71 C-108.34 71 -107.68 71 -107 71 C-106.690625 70.195625 -106.38125 69.39125 -106.0625 68.5625 C-105 66 -105 66 -104 65 C-103.67599553 63.2975038 -103.39097738 61.58752102 -103.125 59.875 C-101.87743327 52.79322417 -99.95541963 47.41999022 -95 42 C-90.54679295 39.0311953 -86.22137412 39.37468573 -81 40 C-78.3125 41.625 -78.3125 41.625 -77 44 C-76.20811914 47.95940431 -76.92962512 50.32681269 -79.0625 53.625 C-82.6552996 58.21241644 -86.69891443 60.49794497 -92.4375 61.75 C-93.283125 61.8325 -94.12875 61.915 -95 62 C-94.01 64.97 -94.01 64.97 -93 68 C-88.32679623 68.58415047 -85.76997425 68.23981078 -81.875 65.5 C-76.34827916 60.93352023 -73.55243505 55.64994811 -71.125 49 C-69.14220701 43.7638079 -66.18803253 39.72161592 -62 36 C-57.52745503 34.50915168 -53.47254497 34.50915168 -49 36 C-46.66993089 36.35543427 -44.33672984 36.6913753 -42 37 C-41.66534345 41.46208738 -42.51289115 44.5248865 -44.19921875 48.6328125 C-45.76898165 53.27318479 -46.31477789 58.16313804 -47 63 C-40.96891124 59.5666089 -37.91067103 56.20168987 -36.0078125 49.51171875 C-35.51632685 47.47918123 -35.04930485 45.44202906 -34.58520508 43.40307617 C-30.93341717 27.7034478 -23.54575853 13.49528726 -12.75 1.5 C-8.69086925 -0.71407132 -4.52843657 -0.8519601 0 0 Z " fill="#E5E8E2" transform="translate(290,162)"/>
<path d="M0 0 C-0.50718673 2.78952704 -1.13004877 5.4002276 -2.0078125 8.1015625 C-7.83364654 28.47599123 1.34242097 48.49294096 11 66 C12.16378902 68.05458442 13.33870489 70.1024684 14.51586914 72.14941406 C24.47589366 89.47516624 32.12463355 109.22862353 28.3515625 129.48046875 C23.81905878 145.3829711 13.72864927 161.38994551 0 171 C-2.9375 171.375 -2.9375 171.375 -5 171 C-4.34 170.34 -3.68 169.68 -3 169 C-2.54109375 168.5359375 -2.0821875 168.071875 -1.609375 167.59375 C-0.49429458 166.4894956 0.64296023 165.4073584 1.796875 164.34375 C12.11221956 154.60606474 22.80709416 139.99243863 24.25732422 125.41308594 C24.32845347 122.76903979 24.31239867 120.14414384 24.25 117.5 C24.24226563 116.14261719 24.24226563 116.14261719 24.234375 114.7578125 C24.55393799 110.54981453 24.55393799 110.54981453 23 107 C22.75248024 105.35682664 22.52742439 103.71025369 22.3125 102.0625 C21.39028629 96.62073514 19.39738308 93.00174888 16.3984375 88.4375 C14.27175775 84.73066156 13.67677074 81.19597859 13 77 C12.01 77 11.02 77 10 77 C8 74 8 74 8 71 C7.34 71 6.68 71 6 71 C5.3291288 69.3767313 4.66342971 67.75132422 4 66.125 C3.62875 65.22007813 3.2575 64.31515625 2.875 63.3828125 C2 61 2 61 2 59 C1.34 59 0.68 59 0 59 C-0.0825 58.05125 -0.165 57.1025 -0.25 56.125 C-0.4975 55.09375 -0.745 54.0625 -1 53 C-1.65226562 52.70222656 -2.30453125 52.40445313 -2.9765625 52.09765625 C-5 51 -5 51 -5.7578125 48.86328125 C-5.87898438 48.02152344 -6.00015625 47.17976563 -6.125 46.3125 C-6.58288803 43.30819384 -7.13257646 40.55978472 -8.01171875 37.640625 C-9.04297256 33.84169791 -9.44196073 30.36210312 -9.6875 26.4375 C-9.77386719 25.17808594 -9.86023438 23.91867188 -9.94921875 22.62109375 C-9.99657279 19.24438674 -9.63069439 16.30521796 -9 13 C-9 12.01 -9 11.02 -9 10 C-11.29992489 12.24168761 -13.58840258 14.49472583 -15.875 16.75 C-16.52597656 17.38421875 -17.17695313 18.0184375 -17.84765625 18.671875 C-18.78544922 19.6 -18.78544922 19.6 -19.7421875 20.546875 C-20.3182373 21.11245117 -20.89428711 21.67802734 -21.48779297 22.26074219 C-23.08531235 24.09812159 -24.01256558 25.78162115 -25 28 C-25.27650391 28.61657471 -25.55300781 29.23314941 -25.83789062 29.8684082 C-31.35820601 42.90340113 -34.36174678 54.65512884 -34.00390625 68.96875 C-33.9992162 71.40757701 -34.37226572 73.64599644 -35 76 C-35.66 76 -36.32 76 -37 76 C-37.00257812 76.58523437 -37.00515625 77.17046875 -37.0078125 77.7734375 C-37.44164922 87.40461273 -40.76785045 96.01521731 -44 105 C-44.66 105 -45.32 105 -46 105 C-46 105.804375 -46 106.60875 -46 107.4375 C-47.80695397 113.87477351 -52.96412828 118.99528355 -58.5625 122.5625 C-62.45366189 124.18971315 -64.82847964 124.61800302 -69 124 C-72.54524144 121.79407199 -74.40311768 119.81282034 -76 116 C-77.28509355 108.3193246 -74.82426839 101.18354195 -70.5390625 94.8359375 C-69.57228781 93.5648987 -68.58292074 92.31041818 -67.5625 91.08203125 C-62.56051326 84.41688392 -61.38064154 79.81073172 -61.25 71.5625 C-61.20552734 70.17901367 -61.20552734 70.17901367 -61.16015625 68.76757812 C-61.09002327 66.51163399 -61.0370525 64.25668881 -61 62 C-61.66 62 -62.32 62 -63 62 C-63.185625 62.80050781 -63.185625 62.80050781 -63.375 63.6171875 C-66.99066848 76.67878987 -78.06780382 85.61218647 -88.5625 93.4375 C-94.99725585 98.34943996 -101.34919475 104.20024842 -104 112 C-104.66 112 -105.32 112 -106 112 C-106.46036629 113.35347689 -106.91816537 114.707827 -107.375 116.0625 C-107.63023438 116.81660156 -107.88546875 117.57070312 -108.1484375 118.34765625 C-108.56996094 119.66056641 -108.56996094 119.66056641 -109 121 C-109.35320312 122.05960937 -109.70640625 123.11921875 -110.0703125 124.2109375 C-113.04693166 136.34253662 -111.99097931 148.29302408 -106.3125 159.34765625 C-105 162 -105 162 -105 165 C-106.8359375 164.84765625 -106.8359375 164.84765625 -109 164 C-111.18677852 160.22448459 -112.54076116 156.10443151 -114 152 C-114.25136719 151.32453125 -114.50273438 150.6490625 -114.76171875 149.953125 C-118.94433166 136.54503254 -115.38632717 123.52891764 -109.75390625 111.29296875 C-103.51730373 99.83760686 -93.25993257 90.76427329 -83 83 C-73.02387591 75.30413284 -68.29949378 66.01958448 -65 54 C-62.5796758 54.36101474 -61.33801321 54.59834851 -59.734375 56.50390625 C-55.68661486 64.96886495 -55.51163059 75.78606195 -58 84.8125 C-60.26681053 90.47952632 -64.27379358 95.22955428 -68 100 C-71.89320815 105.04246182 -72.33931747 108.55296801 -72 115 C-71.34 116.65 -70.68 118.3 -70 120 C-66.37 119.67 -62.74 119.34 -59 119 C-58.505 117.515 -58.505 117.515 -58 116 C-56.88625 114.9171875 -56.88625 114.9171875 -55.75 113.8125 C-43.58214071 101.36809846 -41.19309768 81.15988402 -40.125 64.5 C-39.01596107 49.83918432 -37.53244837 35.40181449 -29 23 C-28.13761719 21.74509766 -28.13761719 21.74509766 -27.2578125 20.46484375 C-21.32351969 12.49910216 -10.44346043 0 0 0 Z " fill="#C1D7C0" transform="translate(161,21)"/>
<path d="M0 0 C0.495 0.495 0.495 0.495 1 1 C0.79472633 3.1479668 0.58027435 5.29551356 0.31591797 7.43701172 C0.01810336 9.85313058 -0.23330884 12.26814265 -0.46484375 14.69140625 C-0.58182617 15.89313477 -0.58182617 15.89313477 -0.70117188 17.11914062 C-0.85606755 18.72058273 -1.0097571 20.32214205 -1.16210938 21.92382812 C-1.53803062 25.76555988 -1.9427722 29.59044345 -2.47705078 33.4140625 C-4.24836431 46.21873864 -4.66284218 59.02022341 -5.10449219 71.92919922 C-5.20751439 74.86722219 -5.32192875 77.80463561 -5.4375 80.7421875 C-5.46465088 81.64411835 -5.49180176 82.54604919 -5.51977539 83.47531128 C-5.55321045 84.30443024 -5.58664551 85.13354919 -5.62109375 85.98779297 C-5.65867798 87.08122513 -5.65867798 87.08122513 -5.69702148 88.19674683 C-6 90 -6 90 -8 92 C-10.625 92.125 -10.625 92.125 -13 92 C-15.755618 86.51101235 -16.41505678 82.31923642 -16.29296875 76.22265625 C-16.28872391 75.41130722 -16.28447906 74.59995819 -16.28010559 73.76402283 C-16.26343867 71.19649744 -16.22581048 68.62978436 -16.1875 66.0625 C-16.1724376 64.31186037 -16.15875193 62.56120832 -16.14648438 60.81054688 C-16.11357468 56.54005608 -16.06187726 52.27016531 -16 48 C-16.96099609 48.48919922 -16.96099609 48.48919922 -17.94140625 48.98828125 C-18.80636719 49.42527344 -19.67132813 49.86226562 -20.5625 50.3125 C-21.40941406 50.74175781 -22.25632812 51.17101562 -23.12890625 51.61328125 C-26.37117508 53.17927504 -29.69048514 54.58163649 -33 56 C-33.33 69.2 -33.66 82.4 -34 96 C-40 96 -40 96 -41.8125 94.375 C-44.71482776 88.57034448 -44.12120101 81.95567769 -44.0625 75.625 C-44.05798828 74.69816406 -44.05347656 73.77132812 -44.04882812 72.81640625 C-44.03711574 70.54420291 -44.02071372 68.27213612 -44 66 C-45.11375 66.061875 -46.2275 66.12375 -47.375 66.1875 C-48.57125 66.125625 -49.7675 66.06375 -51 66 C-53 63 -53 63 -52.84375 60.98828125 C-51.55402041 57.94905736 -49.23988975 56.70451313 -46.59375 54.85546875 C-42.62993937 50.24073823 -43.77194635 41.75544546 -43.5625 35.875 C-42.64209938 14.34513886 -42.64209938 14.34513886 -39.72265625 10.17578125 C-37.4596891 8.63121637 -36.02615944 8.69451481 -33.3125 8.8125 C-32.10013672 8.85310547 -32.10013672 8.85310547 -30.86328125 8.89453125 C-30.24839844 8.92933594 -29.63351563 8.96414062 -29 9 C-28.10227492 11.94332046 -27.97512673 14.03507694 -28.5234375 17.0546875 C-28.65709717 17.8283667 -28.79075684 18.6020459 -28.9284668 19.39916992 C-29.07582275 20.21619385 -29.22317871 21.03321777 -29.375 21.875 C-30.74676324 29.92530824 -31.61375142 37.83550417 -32 46 C-29.34621662 45.1024408 -26.70362467 44.18348162 -24.0625 43.25 C-23.30775391 42.99734375 -22.55300781 42.7446875 -21.77539062 42.484375 C-19.32174266 41.64410227 -19.32174266 41.64410227 -16 40 C-14.83030813 36.89861117 -14.83893844 33.76004098 -14.7097168 30.46508789 C-14.43301653 23.43434938 -13.81064679 16.51000785 -12.6875 9.5625 C-12.58195801 8.83522705 -12.47641602 8.1079541 -12.36767578 7.35864258 C-11.50182869 2.39100819 -11.50182869 2.39100819 -9.125 0.5390625 C-6.03435292 -0.24496194 -3.16882301 -0.17936734 0 0 Z " fill="#EAECE7" transform="translate(75,194)"/>
<path d="M0 0 C2.19847983 1.5490383 2.8924676 2.39296227 3.36328125 5.05078125 C3.33814453 6.17033203 3.33814453 6.17033203 3.3125 7.3125 C3.30863281 8.05113281 3.30476563 8.78976563 3.30078125 9.55078125 C1.36274992 25.33189354 -12.06187405 39.638448 -24 49 C-24.99 49.495 -24.99 49.495 -26 50 C-26.92188461 52.76565382 -27.11785222 54.38283702 -27.09765625 57.23046875 C-27.09443359 58.03291016 -27.09121094 58.83535156 -27.08789062 59.66210938 C-27.07951172 60.49548828 -27.07113281 61.32886719 -27.0625 62.1875 C-27.05798828 63.03248047 -27.05347656 63.87746094 -27.04882812 64.74804688 C-27.03705403 66.83206155 -27.0191189 68.91603977 -27 71 C-25.35 71 -23.7 71 -22 71 C-21.72800781 70.42507812 -21.45601563 69.85015625 -21.17578125 69.2578125 C-19.99284608 66.98626258 -18.65433627 64.97269197 -17.1875 62.875 C-13.97705127 58.13426367 -11.43995416 53.17140727 -9 48 C-7.68 48 -6.36 48 -5 48 C-5.44132949 53.82682853 -6.61822694 58.03452284 -9.6875 63.0625 C-10.04545654 63.66739258 -10.40341309 64.27228516 -10.7722168 64.89550781 C-14.13450614 70.45809129 -17.53426298 75.35617532 -23 79 C-25.26171875 79.1953125 -25.26171875 79.1953125 -27.6875 79.125 C-28.49574219 79.10695313 -29.30398438 79.08890625 -30.13671875 79.0703125 C-30.75160156 79.04710937 -31.36648438 79.02390625 -32 79 C-35.39832897 73.08033019 -37.12954537 69.99544992 -37 63 C-37.88751953 63.75796875 -37.88751953 63.75796875 -38.79296875 64.53125 C-39.97826172 65.50578125 -39.97826172 65.50578125 -41.1875 66.5 C-42.35345703 67.47453125 -42.35345703 67.47453125 -43.54296875 68.46875 C-46.36790096 70.22928009 -47.73564106 70.59156422 -51 70 C-52.546875 68.5390625 -52.546875 68.5390625 -53.75 66.625 C-54.15734375 65.99851562 -54.5646875 65.37203125 -54.984375 64.7265625 C-55.70041341 63.50929721 -56.36842327 62.26315345 -57 61 C-57.66 61 -58.32 61 -59 61 C-59.33 61.99 -59.66 62.98 -60 64 C-61.65 63.67 -63.3 63.34 -65 63 C-65.43071765 54.9599372 -63.87359551 49.42428499 -59 43 C-58.28566879 40.35065178 -58.28566879 40.35065178 -58 38 C-58.763125 38.33 -59.52625 38.66 -60.3125 39 C-63 40 -63 40 -66 40 C-62.55355469 36.31586881 -60.66731332 35.0595469 -55.5 34.875 C-52 35 -52 35 -49 36 C-46.66993089 36.35543427 -44.33672984 36.6913753 -42 37 C-41.66534345 41.46208738 -42.51289115 44.5248865 -44.19921875 48.6328125 C-45.76898165 53.27318479 -46.31477789 58.16313804 -47 63 C-40.96891124 59.5666089 -37.91067103 56.20168987 -36.0078125 49.51171875 C-35.51632685 47.47918123 -35.04930485 45.44202906 -34.58520508 43.40307617 C-30.93341717 27.7034478 -23.54575853 13.49528726 -12.75 1.5 C-8.69086925 -0.71407132 -4.52843657 -0.8519601 0 0 Z " fill="#E4E8E2" transform="translate(290,162)"/>
<path d="M0 0 C11.31906188 4.85473525 18.77806895 17.71171321 23.53515625 28.47265625 C24.77823029 31.629267 25.9420278 34.77687539 27 38 C27.36738281 39.02996094 27.73476562 40.05992188 28.11328125 41.12109375 C29.34352066 46.50271373 29.32892608 51.68476402 29.3125 57.1875 C29.32861328 58.24775391 29.34472656 59.30800781 29.36132812 60.40039062 C29.37240385 78.57565144 22.06363792 91.75193218 10 105 C4.89130435 110 4.89130435 110 2 110 C2 108.35 2 106.7 2 105 C0.88625 105.680625 0.88625 105.680625 -0.25 106.375 C-3 108 -3 108 -5.25 109.0625 C-7.18053285 109.88003585 -7.18053285 109.88003585 -8 112 C-9.32 111.67 -10.64 111.34 -12 111 C-10.45521917 107.30780405 -8.17654584 105.01072963 -5.375 102.1875 C8.129817 87.49222948 12.95577493 69.74564365 12.3125 50.0625 C11.68674212 38.0479487 8.28574607 27.23860635 4.33764648 15.96679688 C4.03673096 15.10634766 3.73581543 14.24589844 3.42578125 13.359375 C3.01453003 12.20646973 3.01453003 12.20646973 2.5949707 11.03027344 C2 9 2 9 2 6 C1.34 6 0.68 6 0 6 C0 4.02 0 2.04 0 0 Z " fill="#D4E4D2" transform="translate(202,79)"/>
<path d="M0 0 C0 0.66 0 1.32 0 2 C-8.13270332 6.87962199 -14.31156359 8.27780587 -23.77734375 8.08984375 C-25.92252357 8.06940026 -28.06770597 8.04922683 -30.21289062 8.02929688 C-33.56301918 7.98609303 -36.91297305 7.93789795 -40.26293945 7.88354492 C-52.97106988 7.69232481 -64.64860122 7.86544503 -77 11 C-82.12897004 11.95614951 -87.2604008 12.80276653 -92.4453125 13.390625 C-99.41391478 14.18957303 -105.84797993 15.39735476 -112.5625 17.375 C-131.12039577 22.7503905 -148.68689115 24.66123365 -168 24 C-168 22.35 -168 20.7 -168 19 C-167.43829102 18.9906543 -166.87658203 18.98130859 -166.29785156 18.97167969 C-153.28379848 18.70242342 -141.0138373 17.43773643 -128.32788086 14.51708984 C-125.00278406 13.77848942 -121.65677874 13.15646246 -118.30786133 12.53588867 C-115.02892966 11.77451609 -112.04015175 10.50181223 -108.94140625 9.20703125 C-97.96585711 4.70312065 -87.13661325 1.21643001 -75.38378906 -0.61279297 C-72.65128741 -1.05664258 -69.93275095 -1.56120444 -67.2109375 -2.06640625 C-43.81119327 -6.28435452 -23.09347938 -5.66943029 0 0 Z " fill="#E7E9E4" transform="translate(256,252)"/>
<path d="M0 0 C3.59243416 2.6925258 5.59177568 5.77532704 7 10 C7.76374794 23.07183974 6.78503212 33.60007227 -2 44 C-6.04696383 46.96777348 -9.94728709 47.66359226 -14.88671875 47.47265625 C-17.80092038 46.82086624 -19.35109891 45.27406839 -21.00390625 42.83203125 C-25.86659495 33.88849792 -25.87013688 26.76241706 -23.4375 16.9375 C-21.34744478 10.057425 -18.33861497 4.64744057 -12.0859375 0.83203125 C-8.10351409 -0.75646348 -4.17805431 -0.88166815 0 0 Z " fill="#E7EAE5" transform="translate(101,216)"/>
<path d="M0 0 C0.73928391 4.73141704 -1.21906807 7.3094854 -3.80859375 11.03515625 C-5.83776523 14.38162594 -6.12680309 17.39181455 -6.0625 21.25 C-6.041875 22.4875 -6.02125 23.725 -6 25 C-4.68 25 -3.36 25 -2 25 C-1.67 24.34 -1.34 23.68 -1 23 C-0.34 23 0.32 23 1 23 C0.42036243 26.91255361 -1.18314904 29.2572767 -4 32 C-7.5 33.125 -7.5 33.125 -11 33 C-13.4375 30.6875 -13.4375 30.6875 -15 28 C-15 27.34 -15 26.68 -15 26 C-15.66 26 -16.32 26 -17 26 C-17.26039063 26.59425781 -17.52078125 27.18851563 -17.7890625 27.80078125 C-19.07769569 30.14110539 -20.34810441 31.46596641 -22.375 33.1875 C-22.96023437 33.69667969 -23.54546875 34.20585937 -24.1484375 34.73046875 C-26.11024909 36.07559273 -27.676089 36.57514402 -30 37 C-30 37.66 -30 38.32 -30 39 C-37.21712538 39.48929664 -37.21712538 39.48929664 -41 37.125 C-43 35 -43 35 -43 33 C-44.65 33 -46.3 33 -48 33 C-47.71125 32.236875 -47.4225 31.47375 -47.125 30.6875 C-46.18116212 27.59380916 -45.58338268 24.74032204 -45.0625 21.5625 C-43.84580211 14.61128802 -41.85913506 9.31467897 -37 4 C-32.54679295 1.0311953 -28.22137412 1.37468573 -23 2 C-20.3125 3.625 -20.3125 3.625 -19 6 C-18.20811914 9.95940431 -18.92962512 12.32681269 -21.0625 15.625 C-24.6552996 20.21241644 -28.69891443 22.49794497 -34.4375 23.75 C-35.7059375 23.87375 -35.7059375 23.87375 -37 24 C-36.34 25.98 -35.68 27.96 -35 30 C-30.32679623 30.58415047 -27.76997425 30.23981078 -23.875 27.5 C-17.56806886 22.28886771 -14.67804302 15.74431236 -11.89453125 8.19921875 C-9.53476903 2.39770725 -6.20617051 0 0 0 Z " fill="#E4E7E2" transform="translate(232,200)"/>
<path d="M0 0 C11.93459997 11.10436693 17.51251055 27.27657354 18.23828125 43.26171875 C18.69783095 61.58831452 13.11530735 75.47116845 0.625 89.0625 C-0.20773438 89.91972656 -1.04046875 90.77695313 -1.8984375 91.66015625 C-3.76599535 93.73946323 -4.92594148 95.44468495 -6 98 C-6 96.35 -6 94.7 -6 93 C-6.763125 93.495 -7.52625 93.99 -8.3125 94.5 C-11 96 -11 96 -14 96 C-13.36384766 95.30777344 -13.36384766 95.30777344 -12.71484375 94.6015625 C0.62924093 79.76176723 7.6341878 64.12438398 7.4375 43.9375 C7.43210205 42.85984375 7.4267041 41.7821875 7.42114258 40.671875 C7.18838152 28.23341823 4.75481109 16.64535124 0.5793457 4.96289062 C0 3 0 3 0 0 Z " fill="#52B95C" transform="translate(210,91)"/>
<path d="M0 0 C0.33 0 0.66 0 1 0 C1.00386719 1.31097656 1.00386719 1.31097656 1.0078125 2.6484375 C1.61710328 22.02388417 10.01666536 38.63145244 19.51586914 55.14941406 C29.47589366 72.47516624 37.12463355 92.22862353 33.3515625 112.48046875 C28.81905878 128.3829711 18.72864927 144.38994551 5 154 C2.0625 154.375 2.0625 154.375 0 154 C0.99 153.01 0.99 153.01 2 152 C2.45890625 151.5359375 2.9178125 151.071875 3.390625 150.59375 C4.50570542 149.4894956 5.64296023 148.4073584 6.796875 147.34375 C17.11221956 137.60606474 27.80709416 122.99243863 29.25732422 108.41308594 C29.32845347 105.76903979 29.31239867 103.14414384 29.25 100.5 C29.24484375 99.59507812 29.2396875 98.69015625 29.234375 97.7578125 C29.55393799 93.54981453 29.55393799 93.54981453 28 90 C27.75248024 88.35682664 27.52742439 86.71025369 27.3125 85.0625 C26.39028629 79.62073514 24.39738308 76.00174888 21.3984375 71.4375 C19.27175775 67.73066156 18.67677074 64.19597859 18 60 C17.01 60 16.02 60 15 60 C13 57 13 57 13 54 C12.34 54 11.68 54 11 54 C10.3291288 52.3767313 9.66342971 50.75132422 9 49.125 C8.62875 48.22007813 8.2575 47.31515625 7.875 46.3828125 C7 44 7 44 7 42 C6.34 42 5.68 42 5 42 C4.9175 41.05125 4.835 40.1025 4.75 39.125 C4.5025 38.09375 4.255 37.0625 4 36 C3.35160156 35.70351562 2.70320312 35.40703125 2.03515625 35.1015625 C0 34 0 34 -0.86328125 31.828125 C-1.01152344 30.97734375 -1.15976563 30.1265625 -1.3125 29.25 C-1.47363281 28.40953125 -1.63476562 27.5690625 -1.80078125 26.703125 C-2.02866688 23.61102983 -1.54194946 21.05395845 -1 18 C-0.74164059 14.87853897 -0.58967064 11.75322915 -0.4375 8.625 C-0.39431641 7.79355469 -0.35113281 6.96210937 -0.30664062 6.10546875 C-0.20138195 4.07046772 -0.10026928 2.03525297 0 0 Z " fill="#C7E0C7" transform="translate(156,38)"/>
<path d="M0 0 C2.33006911 0.35543427 4.66327016 0.6913753 7 1 C7.33465655 5.46208738 6.48710885 8.5248865 4.80078125 12.6328125 C3.23101835 17.27318479 2.68522211 22.16313804 2 27 C4.71224618 25.38731308 7.37352812 23.75098126 10 22 C10.33 22.99 10.66 23.98 11 25 C11.66 25 12.32 25 13 25 C13 27.97 13 30.94 13 34 C12.67 34 12.34 34 12 34 C12 31.69 12 29.38 12 27 C11.40832031 27.5053125 10.81664062 28.010625 10.20703125 28.53125 C9.41683594 29.1809375 8.62664062 29.830625 7.8125 30.5 C6.64654297 31.47453125 6.64654297 31.47453125 5.45703125 32.46875 C2.63209904 34.22928009 1.26435894 34.59156422 -2 34 C-3.546875 32.5390625 -3.546875 32.5390625 -4.75 30.625 C-5.15734375 29.99851563 -5.5646875 29.37203125 -5.984375 28.7265625 C-6.70041341 27.50929721 -7.36842327 26.26315345 -8 25 C-8.66 25 -9.32 25 -10 25 C-10.33 25.99 -10.66 26.98 -11 28 C-12.65 27.67 -14.3 27.34 -16 27 C-16.43071765 18.9599372 -14.87359551 13.42428499 -10 7 C-9.28566879 4.35065178 -9.28566879 4.35065178 -9 2 C-10.1446875 2.495 -10.1446875 2.495 -11.3125 3 C-14 4 -14 4 -17 4 C-12.04880188 -1.29266006 -7.00347626 -2.33449209 0 0 Z " fill="#E2E7E0" transform="translate(241,198)"/>
<path d="M0 0 C3.75990483 5.94694111 2.73945013 15.11923619 1.46484375 21.80859375 C0.12540883 26.14894844 -1.54476583 29.93964973 -5 33 C-8.25 33.3125 -8.25 33.3125 -11 33 C-14.86160322 26.42608023 -13.38367141 18.02857404 -11.5625 10.93359375 C-9.69857047 4.52633598 -7.57782296 -0.84198033 0 0 Z " fill="#0A0B0A" transform="translate(99,222)"/>
<path d="M0 0 C8.55907349 -1.06565539 8.55907349 -1.06565539 11.96484375 1.453125 C18.16442591 8.66828663 17.62533559 16.94653024 17 26 C15.70181882 33.71207633 11.5233341 41.41622166 5.1875 46.0625 C1.16320464 47.24611628 -2.84526651 47.84756563 -7 47 C-7.66 46.01 -8.32 45.02 -9 44 C-4.71 44.33 -0.42 44.66 4 45 C4 43.35 4 41.7 4 40 C1.69 40 -0.62 40 -3 40 C-3 39.67 -3 39.34 -3 39 C-1.9275 38.814375 -0.855 38.62875 0.25 38.4375 C3.41842182 37.53956669 4.70837052 36.52694283 6.375 33.6875 C9.07580689 28.4620258 9.13651269 23.23413879 9.125 17.4375 C9.12757812 16.13683594 9.13015625 14.83617187 9.1328125 13.49609375 C9.0287834 10.75768065 8.82835366 8.58367451 8 6 C6.68 6 5.36 6 4 6 C4.33 5.01 4.66 4.02 5 3 C5.66 3 6.32 3 7 3 C7 2.34 7 1.68 7 1 C4.69 1 2.38 1 0 1 C0 0.67 0 0.34 0 0 Z " fill="#DCE1DA" transform="translate(91,216)"/>
<path d="M0 0 C0.73928391 4.73141704 -1.21906807 7.3094854 -3.80859375 11.03515625 C-5.83776523 14.38162594 -6.12680309 17.39181455 -6.0625 21.25 C-6.041875 22.4875 -6.02125 23.725 -6 25 C-4.68 25 -3.36 25 -2 25 C-1.67 24.34 -1.34 23.68 -1 23 C-0.34 23 0.32 23 1 23 C0.42036243 26.91255361 -1.18314904 29.2572767 -4 32 C-7.5 33.125 -7.5 33.125 -11 33 C-13.4375 30.6875 -13.4375 30.6875 -15 28 C-15 27.34 -15 26.68 -15 26 C-15.66 26 -16.32 26 -17 26 C-18.98122305 20.05633084 -14.45211954 13.18494621 -11.94921875 7.6953125 C-9.07609438 2.1855349 -6.21428765 0 0 0 Z " fill="#E8EAE5" transform="translate(232,200)"/>
<path d="M0 0 C1.32 0 2.64 0 4 0 C3.56426588 11.5469542 -3.76599557 22.10691769 -12 29.890625 C-13.63331519 31.30001795 -15.31204655 32.65652684 -17 34 C-15.85649629 23.42259069 -11.03430716 14.56219259 -5 6 C-4.53078125 5.33226562 -4.0615625 4.66453125 -3.578125 3.9765625 C-2.3125 2.3125 -2.3125 2.3125 0 0 Z " fill="#121412" transform="translate(283,170)"/>
<path d="M0 0 C0.33 0 0.66 0 1 0 C4.41633428 14.4918696 1.32285059 27.91340754 -5.84375 40.65234375 C-11.18148313 48.93936783 -17.89556215 57.32689351 -26 63 C-28.9375 63.375 -28.9375 63.375 -31 63 C-30.34 62.34 -29.68 61.68 -29 61 C-28.54109375 60.5359375 -28.0821875 60.071875 -27.609375 59.59375 C-26.49429458 58.4894956 -25.35703977 57.4073584 -24.203125 56.34375 C-8.94926381 41.94410504 -0.84949546 23.89303537 -0.078125 3.04296875 C-0.05234375 2.03878906 -0.0265625 1.03460938 0 0 Z " fill="#CFE8D0" transform="translate(187,129)"/>
<path d="M0 0 C9.97594419 -0.61919654 9.97594419 -0.61919654 13.6875 1.625 C15.45346872 4.82056245 15.63806483 6.38429932 15 10 C12.26800409 15.57278812 8.5629836 18.46249871 3 21 C-0.4375 21.75 -0.4375 21.75 -3 22 C-2.67 21.34 -2.34 20.68 -2 20 C-1.01 20 -0.02 20 1 20 C1 19.34 1 18.68 1 18 C0.34 18 -0.32 18 -1 18 C-0.76998507 12.36463431 0.68489985 9.55108115 4.33203125 5.28515625 C6 4 6 4 10 4 C10 3.01 10 2.02 10 1 C6.37 1.33 2.74 1.66 -1 2 C-0.67 1.34 -0.34 0.68 0 0 Z " fill="#D2D9D1" transform="translate(198,202)"/>
<path d="M0 0 C0.66 0 1.32 0 2 0 C3.16992243 20.60863356 3.16992243 20.60863356 -2.4921875 28.41796875 C-4 30 -4 30 -6 31 C-5.38349808 26.99273754 -3.21423629 24.32135444 -1 21 C0.04123635 17.88283962 0.10554674 15.02155203 0.0625 11.75 C0.05347656 10.85796875 0.04445312 9.9659375 0.03515625 9.046875 C0.02355469 8.37140625 0.01195312 7.6959375 0 7 C-0.433125 7.721875 -0.86625 8.44375 -1.3125 9.1875 C-1.869375 10.115625 -2.42625 11.04375 -3 12 C-3.45375 12.804375 -3.9075 13.60875 -4.375 14.4375 C-8.67813952 21.22322001 -14.49354936 27.40879088 -21.5 31.4375 C-24.93273316 33.58295823 -27.46381413 36.41953507 -30.23046875 39.35546875 C-32 41 -32 41 -34 41 C-34.2475 41.61875 -34.495 42.2375 -34.75 42.875 C-36.20628639 45.35068687 -37.37812506 45.95125002 -40 47 C-35.55081577 37.25931026 -26.18085501 30.46983503 -17.9375 24.0625 C-9.3316449 17.16990855 -4.56512279 10.0332369 0 0 Z " fill="#8ABF8B" transform="translate(98,83)"/>
<path d="M0 0 C0.97591583 3.38317487 0.85856655 5.5657338 0 9 C0.66 9 1.32 9 2 9 C-0.84915084 22.14608197 -7.43414635 30.86114414 -16 41 C-17.33837515 42.66262068 -18.6732661 44.32807515 -20 46 C-21.32 45.67 -22.64 45.34 -24 45 C-22.45521917 41.30780405 -20.17654584 39.01072963 -17.375 36.1875 C-7.71578191 25.67681905 -2.98170661 13.82962605 0 0 Z " fill="#C2D6BD" transform="translate(214,145)"/>
<path d="M0 0 C1.65 0.33 3.3 0.66 5 1 C4.66989981 9.91270526 0.30889644 16.06982381 -5 23 C-5.99 22.67 -6.98 22.34 -8 22 C-8.40921845 14.36125553 -7.2721521 8.50230623 -2.3125 2.5 C-1.549375 1.675 -0.78625 0.85 0 0 Z " fill="#141614" transform="translate(233,203)"/>
<path d="M0 0 C-2.97 0.66 -5.94 1.32 -9 2 C-5.04 2.33 -1.08 2.66 3 3 C3 3.33 3 3.66 3 4 C-8.80986462 6.9006685 -20.9338821 6.19027115 -33 6 C-33 4.35 -33 2.7 -33 1 C-32.3702124 0.97494385 -31.7404248 0.9498877 -31.09155273 0.92407227 C-28.20670659 0.80721573 -25.32211605 0.68489979 -22.4375 0.5625 C-20.9515332 0.50352539 -20.9515332 0.50352539 -19.43554688 0.44335938 C-13.21083471 0.17574463 -13.21083471 0.17574463 -7.03515625 -0.59765625 C-4 -1 -4 -1 0 0 Z " fill="#B5BBB5" transform="translate(121,270)"/>
<path d="M0 0 C1.22419163 3.93795909 0.48320272 6.16112237 -1 10 C-0.34 10 0.32 10 1 10 C1.33 6.7 1.66 3.4 2 0 C2.66 0 3.32 0 4 0 C2.58680182 14.65111585 -6.39137673 27.80797197 -17.5625 37.1875 C-18.366875 37.785625 -19.17125 38.38375 -20 39 C-20.6875 37.1953125 -20.6875 37.1953125 -21 35 C-19.8125 33.4296875 -19.8125 33.4296875 -18 31.875 C-13.5513768 27.73715886 -10.30743911 23.07250637 -7 18 C-6.59652344 17.40316406 -6.19304687 16.80632812 -5.77734375 16.19140625 C-2.62156896 11.18776333 -1.35760742 5.68755231 0 0 Z " fill="#C8DFCA" transform="translate(226,150)"/>
<path d="M0 0 C0.33 0 0.66 0 1 0 C1.02578125 0.93199219 1.0515625 1.86398438 1.078125 2.82421875 C1.43681121 10.88650653 2.499224 17.7895698 5.16015625 25.48828125 C6 28 6 28 6 30 C5.01 30 4.02 30 3 30 C4.63451547 34.03725322 6.42591781 37.87611031 8.515625 41.69921875 C8.96164063 42.51583984 9.40765625 43.33246094 9.8671875 44.17382812 C10.79764957 45.86521892 11.73529423 47.55267619 12.6796875 49.23632812 C13.12054688 50.04908203 13.56140625 50.86183594 14.015625 51.69921875 C14.42071289 52.42971436 14.82580078 53.16020996 15.24316406 53.9128418 C16.13707513 56.37801782 15.87592071 57.56997114 15 60 C13 57 13 57 13 54 C12.34 54 11.68 54 11 54 C10.3291288 52.3767313 9.66342971 50.75132422 9 49.125 C8.62875 48.22007813 8.2575 47.31515625 7.875 46.3828125 C7 44 7 44 7 42 C6.34 42 5.68 42 5 42 C4.9175 41.05125 4.835 40.1025 4.75 39.125 C4.5025 38.09375 4.255 37.0625 4 36 C3.35160156 35.70351562 2.70320312 35.40703125 2.03515625 35.1015625 C0 34 0 34 -0.86328125 31.828125 C-1.01152344 30.97734375 -1.15976563 30.1265625 -1.3125 29.25 C-1.47363281 28.40953125 -1.63476562 27.5690625 -1.80078125 26.703125 C-2.02866688 23.61102983 -1.54194946 21.05395845 -1 18 C-0.74164059 14.87853897 -0.58967064 11.75322915 -0.4375 8.625 C-0.39431641 7.79355469 -0.35113281 6.96210937 -0.30664062 6.10546875 C-0.20138195 4.07046772 -0.10026928 2.03525297 0 0 Z " fill="#B9C9BA" transform="translate(156,38)"/>
<path d="M0 0 C0.66 0 1.32 0 2 0 C2.02730408 1.56240032 2.04653226 3.1249427 2.0625 4.6875 C2.07410156 5.55761719 2.08570313 6.42773438 2.09765625 7.32421875 C2 10 2 10 1.52734375 12.2578125 C0.61376618 17.00841588 0.59954345 21.84454225 0.39453125 26.66992188 C0.10210276 32.79579447 0.10210276 32.79579447 -1 35 C-1.66 35 -2.32 35 -3 35 C-6.30417091 15.91251272 -6.30417091 15.91251272 -3 6 C-2.835 5.236875 -2.67 4.47375 -2.5 3.6875 C-2 2 -2 2 0 0 Z " fill="#DBEAD7" transform="translate(156,23)"/>
<path d="M0 0 C-0.33 0.99 -0.66 1.98 -1 3 C1.31 3 3.62 3 6 3 C6 3.33 6 3.66 6 4 C-4.49012402 7.11367639 -14.15018837 7.32878217 -25 7 C-24.67 6.34 -24.34 5.68 -24 5 C-21.93359375 4.5859375 -21.93359375 4.5859375 -19.4375 4.375 C-18.61121094 4.30023438 -17.78492187 4.22546875 -16.93359375 4.1484375 C-15.97646484 4.07496094 -15.97646484 4.07496094 -15 4 C-15 3.34 -15 2.68 -15 2 C-13.25364835 1.46706165 -11.50272348 0.94909337 -9.75 0.4375 C-8.77546875 0.14746094 -7.8009375 -0.14257812 -6.796875 -0.44140625 C-4.03756068 -0.99249836 -2.6087176 -0.93789609 0 0 Z " fill="#D2D8D2" transform="translate(136,266)"/>
<path d="M0 0 C1.32 0 2.64 0 4 0 C4.27972656 0.72703125 4.55945313 1.4540625 4.84765625 2.203125 C7.55929556 9.00402101 10.70501277 15.13472151 14.64453125 21.30859375 C16.08397088 24.1667318 16.29154924 25.8501249 16 29 C12.16785124 27.72261708 11.94328384 26.56683946 10.1171875 23.046875 C9.58996094 22.03496094 9.06273437 21.02304688 8.51953125 19.98046875 C7.97683594 18.91441406 7.43414062 17.84835938 6.875 16.75 C6.32457031 15.69941406 5.77414063 14.64882812 5.20703125 13.56640625 C0.77614741 4.97680588 0.77614741 4.97680588 0 0 Z " fill="#CEDCCC" transform="translate(159,68)"/>
<path d="M0 0 C3.94790149 5.92185224 2.51112522 14.96129823 1.359375 21.80859375 C-0.5065184 30.01303681 -0.5065184 30.01303681 -2 33 C-2.99 32.67 -3.98 32.34 -5 32 C-4.3547912 27.79157067 -3.7087227 23.58327375 -3.0625 19.375 C-2.88009766 18.18519531 -2.69769531 16.99539062 -2.50976562 15.76953125 C-2.33251953 14.61582031 -2.15527344 13.46210937 -1.97265625 12.2734375 C-1.72914429 10.68668213 -1.72914429 10.68668213 -1.48071289 9.06787109 C-1.00654757 6.04178604 -0.50868751 3.02045582 0 0 Z " fill="#D4E7D1" transform="translate(122,84)"/>
<path d="M0 0 C8.42360143 7.83761177 14.77329923 19.67363232 17 31 C16.58984375 33.3359375 16.58984375 33.3359375 16 35 C13.97649676 31.96474514 13.67875982 30.80573798 13.375 27.3125 C13.30023438 26.50425781 13.22546875 25.69601563 13.1484375 24.86328125 C13.09945312 24.24839844 13.05046875 23.63351563 13 23 C12.34 23 11.68 23 11 23 C10.69255859 22.16855469 10.69255859 22.16855469 10.37890625 21.3203125 C10.10949219 20.59585938 9.84007812 19.87140625 9.5625 19.125 C9.29566406 18.40570313 9.02882812 17.68640625 8.75390625 16.9453125 C8.02083146 14.96351155 8.02083146 14.96351155 7 13 C5.768606 15.46278801 5.92840804 17.2795055 6 20 C4.14723653 16.60326697 3.00950804 13.13095396 1.875 9.4375 C1.52179688 8.30183594 1.16859375 7.16617188 0.8046875 5.99609375 C0 3 0 3 0 0 Z " fill="#83C689" transform="translate(210,91)"/>
<path d="M0 0 C0.33 0.99 0.66 1.98 1 3 C1.66 3.33 2.32 3.66 3 4 C-12.3069464 22.65620592 -12.3069464 22.65620592 -17.9375 23.375 C-18.618125 23.25125 -19.29875 23.1275 -20 23 C-19.34 22.34 -18.68 21.68 -18 21 C-17.54367188 20.53980469 -17.08734375 20.07960937 -16.6171875 19.60546875 C-15.47094791 18.46753524 -14.3076038 17.34671405 -13.1328125 16.23828125 C-7.97373817 11.28998622 -3.9160411 5.97196268 0 0 Z " fill="#D0E5CD" transform="translate(176,169)"/>
<path d="M0 0 C0.8125 1.6875 0.8125 1.6875 1 4 C-2.23670043 7.56155175 -5.82706768 10.60132599 -9.5625 13.625 C-10.49191406 14.38039063 -11.42132813 15.13578125 -12.37890625 15.9140625 C-14.55959875 17.64951674 -16.75869743 19.34407293 -19 21 C-19.99 20.34 -20.98 19.68 -22 19 C-16.74843452 13.43542731 -11.02655865 8.6991655 -5 4 C-3.33174775 2.66865106 -1.66464192 1.33586033 0 0 Z " fill="#C2D2BE" transform="translate(83,100)"/>
<path d="M0 0 C0 3 0 3 -1.57421875 4.71875 C-7.49629119 9.71036743 -7.49629119 9.71036743 -10.5 11.4375 C-13.93273316 13.58295823 -16.46381413 16.41953507 -19.23046875 19.35546875 C-21 21 -21 21 -23 21 C-23.2475 21.61875 -23.495 22.2375 -23.75 22.875 C-25.20628639 25.35068687 -26.37812506 25.95125002 -29 27 C-23.89453977 15.82251183 -10.99115247 5.17945902 0 0 Z " fill="#76C27C" transform="translate(87,103)"/>
<path d="M0 0 C0.66 0 1.32 0 2 0 C1.99097656 0.6084375 1.98195312 1.216875 1.97265625 1.84375 C2.22398495 9.2743376 4.42067918 14.98693369 7.56079102 21.60351562 C10 26.75092221 10 26.75092221 10 30 C8.16796875 29.86328125 8.16796875 29.86328125 6 29 C4.55078125 26.41796875 4.55078125 26.41796875 3.3125 23.1875 C2.68794922 21.60001953 2.68794922 21.60001953 2.05078125 19.98046875 C0.34961219 15.15521969 -0.11409041 11.40904116 -0.0625 6.25 C-0.05347656 5.07953125 -0.04445312 3.9090625 -0.03515625 2.703125 C-0.02355469 1.81109375 -0.01195312 0.9190625 0 0 Z " fill="#E0F4E2" transform="translate(46,156)"/>
<path d="M0 0 C-0.54723683 3.37462715 -1.0549 5.08235 -3 8 C-3 6.02 -3 4.04 -3 2 C-5.87420123 4.71604715 -5.87420123 4.71604715 -8 8 C-8.99 8 -9.98 8 -11 8 C-11.33 8.66 -11.66 9.32 -12 10 C-12.66 10 -13.32 10 -14 10 C-14.66 11.65 -15.32 13.3 -16 15 C-16.99 15 -17.98 15 -19 15 C-20.75 16.25 -20.75 16.25 -22 18 C-22 18.99 -22 19.98 -22 21 C-23.32 21 -24.64 21 -26 21 C-23.19581107 12.01057149 -13.47934028 6.04022651 -5.97265625 0.9609375 C-4 0 -4 0 0 0 Z " fill="#C6D2C3" transform="translate(161,21)"/>
<path d="M0 0 C1.32 0 2.64 0 4 0 C3.55643705 6.20988129 2.08467498 10.60540561 -1 16 C-1.33 15.34 -1.66 14.68 -2 14 C-3.65 15.32 -5.3 16.64 -7 18 C-7.66 17.67 -8.32 17.34 -9 17 C-6.03 11.39 -3.06 5.78 0 0 Z " fill="#D7DED7" transform="translate(281,210)"/>
<path d="M0 0 C0.99 0.66 1.98 1.32 3 2 C-3.66666667 8.66666667 -10.33333333 15.33333333 -17 22 C-17.33 20.02 -17.66 18.04 -18 16 C-17.195625 15.525625 -16.39125 15.05125 -15.5625 14.5625 C-11.89898702 12.32865062 -9.74348017 9.30624533 -7 6 C-6.34 6.33 -5.68 6.66 -5 7 C-4.34 5.68 -3.68 4.36 -3 3 C-2.34 3 -1.68 3 -1 3 C-0.67 2.01 -0.34 1.02 0 0 Z " fill="#D6E9D4" transform="translate(150,28)"/>
<path d="M0 0 C0.33 0 0.66 0 1 0 C1.48828125 1.98567708 1.9765625 3.97135417 2.46484375 5.95703125 C2.91010705 7.65683202 3.44433985 9.33301954 4 11 C9.445 10.505 9.445 10.505 15 10 C15.33 9.01 15.66 8.02 16 7 C16.66 7 17.32 7 18 7 C16.55214724 12.55010225 16.55214724 12.55010225 14.3125 14.375 C11.01824366 15.26533955 8.40049103 15.35794642 5 15 C1.61060444 12.86320715 0.27417443 11.8225233 -1 8 C-0.83988879 5.29876894 -0.39559392 2.68124769 0 0 Z " fill="#C6E1C9" transform="translate(87,130)"/>
<path d="M0 0 C1.65 0.33 3.3 0.66 5 1 C4.69918829 4.50946994 4.0180963 5.97788231 1.75 8.75 C-1.02211769 11.0180963 -2.49053006 11.69918829 -6 12 C-5.59791618 6.37082652 -3.71069698 3.99613521 0 0 Z " fill="#222523" transform="translate(203,207)"/>
<path d="M0 0 C6.07831019 9.11746528 5.3599578 20.49456502 5 31 C4.67 31 4.34 31 4 31 C3.67 26.71 3.34 22.42 3 18 C2.67 21.63 2.34 25.26 2 29 C1.67 29 1.34 29 1 29 C0.93941406 27.85660156 0.87882813 26.71320313 0.81640625 25.53515625 C0.73201572 24.04425695 0.64736698 22.55337225 0.5625 21.0625 C0.52318359 20.30775391 0.48386719 19.55300781 0.44335938 18.77539062 C0.55961976 15.08055813 0.55961976 15.08055813 -1 12 C-0.90997602 9.97591245 -0.75358962 7.95455713 -0.5625 5.9375 C-0.46066406 4.83277344 -0.35882813 3.72804688 -0.25390625 2.58984375 C-0.17011719 1.73519531 -0.08632812 0.88054687 0 0 Z " fill="#B2C9B4" transform="translate(185,116)"/>
<path d="M0 0 C0.495 0.99 0.495 0.99 1 2 C2.32 2 3.64 2 5 2 C5 2.99 5 3.98 5 5 C5.99 5.66 6.98 6.32 8 7 C5.875 7.3125 5.875 7.3125 3 7 C1.47970659 5.83551994 -0.03706106 4.65990876 -1.45703125 3.375 C-7.850467 -2.32244148 -12.84801472 -3.22338364 -21.09375 -3.16796875 C-25.23566471 -2.92858389 -28.99127929 -2.05146773 -33 -1 C-32 -3 -32 -3 -29.4453125 -3.921875 C-18.29639092 -6.70254721 -9.91554746 -5.87587998 0 0 Z " fill="#358440" transform="translate(152,186)"/>
<path d="M0 0 C0.33 0 0.66 0 1 0 C1 8.10119136 -4.32923561 14.18240504 -9.7578125 19.828125 C-10.16773437 20.21484375 -10.57765625 20.6015625 -11 21 C-11.99 20.67 -12.98 20.34 -14 20 C-13.1646875 18.7625 -13.1646875 18.7625 -12.3125 17.5 C-11.06327964 15.6438889 -9.86919447 13.77971706 -8.7265625 11.85546875 C-8.30117187 11.14003906 -7.87578125 10.42460938 -7.4375 9.6875 C-7.04433594 9.01074219 -6.65117188 8.33398438 -6.24609375 7.63671875 C-5 6 -5 6 -2 5 C-0.78130071 2.49552484 -0.78130071 2.49552484 0 0 Z " fill="#D3E3CD" transform="translate(96,83)"/>
<path d="M0 0 C0.66 0 1.32 0 2 0 C2 8.25 2 16.5 2 25 C1.01 25.33 0.02 25.66 -1 26 C-1.33 29.3 -1.66 32.6 -2 36 C-2.66 36 -3.32 36 -4 36 C-3.69147815 34.041036 -3.3780582 32.08284287 -3.0625 30.125 C-2.88847656 29.03445312 -2.71445313 27.94390625 -2.53515625 26.8203125 C-2 24 -2 24 -1 22 C-0.84777027 20.33434251 -0.75082785 18.66343504 -0.68359375 16.9921875 C-0.64169922 16.00605469 -0.59980469 15.01992187 -0.55664062 14.00390625 C-0.51732422 12.97136719 -0.47800781 11.93882812 -0.4375 10.875 C-0.39431641 9.83472656 -0.35113281 8.79445312 -0.30664062 7.72265625 C-0.2003712 5.14857472 -0.09833417 2.57439492 0 0 Z " fill="#D5E5D4" transform="translate(229,124)"/>
<path d="M0 0 C3.3 0.66 6.6 1.32 10 2 C10 3.65 10 5.3 10 7 C8.20841511 7.02696365 6.41671527 7.04637917 4.625 7.0625 C3.62726563 7.07410156 2.62953125 7.08570313 1.6015625 7.09765625 C-1 7 -1 7 -3 6 C-2.67 4.68 -2.34 3.36 -2 2 C-1.34 2 -0.68 2 0 2 C0 1.34 0 0.68 0 0 Z " fill="#F2F5F0" transform="translate(85,254)"/>
<path d="M0 0 C0.33 0.66 0.66 1.32 1 2 C2.32 2.33 3.64 2.66 5 3 C2.69 6.63 0.38 10.26 -2 14 C-2.66 13.01 -3.32 12.02 -4 11 C-5.98 11.99 -5.98 11.99 -8 13 C-7.50628906 12.22914063 -7.01257813 11.45828125 -6.50390625 10.6640625 C-5.86324219 9.66117188 -5.22257812 8.65828125 -4.5625 7.625 C-3.92441406 6.62726563 -3.28632813 5.62953125 -2.62890625 4.6015625 C-1.03100789 2.14169479 -1.03100789 2.14169479 0 0 Z " fill="#DAE0D9" transform="translate(282,184)"/>
<path d="M0 0 C0.33 0 0.66 0 1 0 C1.05843491 4.02077152 1.0937424 8.04143259 1.125 12.0625 C1.14175781 13.19623047 1.15851563 14.32996094 1.17578125 15.49804688 C1.21019727 21.40039384 1.04944811 26.44067027 -1 32 C-1.66 32 -2.32 32 -3 32 C-2.89018094 27.41617026 -2.7595352 22.83316568 -2.625 18.25 C-2.5940625 16.94804687 -2.563125 15.64609375 -2.53125 14.3046875 C-2.49257812 13.05429688 -2.45390625 11.80390625 -2.4140625 10.515625 C-2.3826416 9.36352539 -2.3512207 8.21142578 -2.31884766 7.02441406 C-2.01598825 4.15165578 -1.4911762 2.43820389 0 0 Z " fill="#CCE6CC" transform="translate(217,122)"/>
<path d="M0 0 C0.28375488 0.57129639 0.56750977 1.14259277 0.85986328 1.73120117 C2.81333187 5.61847818 4.8507646 9.46173149 6.875 13.3125 C7.30941406 14.14201172 7.74382812 14.97152344 8.19140625 15.82617188 C10.16704812 19.58463771 12.16366442 23.30429589 14.3359375 26.953125 C16 30 16 30 15.75 32.4375 C15.5025 32.953125 15.255 33.46875 15 34 C13 31 13 31 13 28 C12.34 28 11.68 28 11 28 C10.3291288 26.3767313 9.66342971 24.75132422 9 23.125 C8.62875 22.22007813 8.2575 21.31515625 7.875 20.3828125 C7 18 7 18 7 16 C6.34 16 5.68 16 5 16 C4.9175 15.05125 4.835 14.1025 4.75 13.125 C4.34925077 9.89538209 4.34925077 9.89538209 1.9375 8.625 C1.298125 8.41875 0.65875 8.2125 0 8 C0 5.36 0 2.72 0 0 Z " fill="#AAD7AE" transform="translate(156,64)"/>
<path d="M0 0 C0.99 0 1.98 0 3 0 C2.25 5.75 2.25 5.75 0 8 C-2.1248989 12.24979779 -2.52511324 16.3302802 -3 21 C-3.66 20.67 -4.32 20.34 -5 20 C-5.46857004 12.73716432 -4.22574137 7.52921144 -1 1 C-0.67 0.67 -0.34 0.34 0 0 Z " fill="#CDE2CE" transform="translate(90,117)"/>
<path d="M0 0 C0.99 0 1.98 0 3 0 C3.93087909 3.93288364 4.11608885 7.57654163 4.09765625 11.61328125 C4.09443359 12.86044922 4.09121094 14.10761719 4.08789062 15.39257812 C4.07951172 16.68615234 4.07113281 17.97972656 4.0625 19.3125 C4.05798828 20.62541016 4.05347656 21.93832031 4.04882812 23.29101562 C4.03705949 26.5273901 4.0206176 29.76367178 4 33 C3.67 33 3.34 33 3 33 C2.95101562 31.80503906 2.90203125 30.61007813 2.8515625 29.37890625 C2.48609739 21.34711411 1.95571485 13.82285942 0 6 C-0.125 2.4375 -0.125 2.4375 0 0 Z " fill="#DBEFDA" transform="translate(213,111)"/>
<path d="M0 0 C0.66 0.66 1.32 1.32 2 2 C1.73271406 7.47936168 -0.67346906 12.13051663 -3 17 C-3.66 17 -4.32 17 -5 17 C-5.64317031 9.92512658 -3.82735898 5.90506815 0 0 Z " fill="#C5D0C2" transform="translate(131,46)"/>
<path d="M0 0 C0.66 0 1.32 0 2 0 C2 7.26 2 14.52 2 22 C1.67 22 1.34 22 1 22 C1 18.37 1 14.74 1 11 C0.34 11 -0.32 11 -1 11 C-1 13.97 -1 16.94 -1 20 C-1.33 20 -1.66 20 -2 20 C-2.05425226 17.60385874 -2.09379027 15.20896147 -2.125 12.8125 C-2.14175781 12.13896484 -2.15851562 11.46542969 -2.17578125 10.77148438 C-2.21538674 6.71192193 -1.80020002 3.65001185 0 0 Z " fill="#B7D1BB" transform="translate(47,145)"/>
<path d="M0 0 C0.41276847 5.02693031 -0.47562844 7.37850901 -3.5 11.375 C-4.47453125 12.68597656 -4.47453125 12.68597656 -5.46875 14.0234375 C-6.22671875 15.00183594 -6.22671875 15.00183594 -7 16 C-7.33 15.01 -7.66 14.02 -8 13 C-8.66 13 -9.32 13 -10 13 C-8.63051988 10.17861734 -7.14363329 7.4834041 -5.5 4.8125 C-5.0771875 4.11769531 -4.654375 3.42289062 -4.21875 2.70703125 C-3.02916185 1.04084528 -2.18079748 0 0 0 Z " fill="#CEE1CC" transform="translate(101,104)"/>
<path d="M0 0 C0.33 0 0.66 0 1 0 C2.00303228 4.18063853 2.16588178 8.14412243 2.1875 12.4375 C2.20167969 13.71496094 2.21585938 14.99242187 2.23046875 16.30859375 C2.00606734 19.90281971 1.30528856 22.66196958 0 26 C-0.66 26 -1.32 26 -2 26 C-1.93941406 25.46375 -1.87882813 24.9275 -1.81640625 24.375 C-0.94945617 16.26568236 -0.47464259 8.13961543 0 0 Z " fill="#E2F2E3" transform="translate(187,129)"/>
<path d="M0 0 C0.66 0.33 1.32 0.66 2 1 C1.4225 2.093125 0.845 3.18625 0.25 4.3125 C-3.3511476 11.54042614 -6.28146442 18.91647473 -7 27 C-7.33 27 -7.66 27 -8 27 C-8.33 24.03 -8.66 21.06 -9 18 C-9.66 18.33 -10.32 18.66 -11 19 C-10.67 17.02 -10.34 15.04 -10 13 C-9.67 13.99 -9.34 14.98 -9 16 C-6.22987657 14.61493828 -6.11969009 13.1201225 -5.0625 10.25 C-3.66131402 6.58697448 -2.18592116 3.27888174 0 0 Z " fill="#B6D8B6" transform="translate(135,47)"/>
<path d="M0 0 C0.33 1.32 0.66 2.64 1 4 C2.32 3.34 3.64 2.68 5 2 C4.42235003 5.3503698 3.41423154 6.68233772 1 9 C-0.17574711 11.09989652 -0.17574711 11.09989652 -1 13 C-1 11.35 -1 9.7 -1 8 C-1.763125 8.495 -2.52625 8.99 -3.3125 9.5 C-6 11 -6 11 -9 11 C-8.51789063 10.45730469 -8.03578125 9.91460937 -7.5390625 9.35546875 C-6.90742188 8.64003906 -6.27578125 7.92460937 -5.625 7.1875 C-4.68527344 6.12595703 -4.68527344 6.12595703 -3.7265625 5.04296875 C-1.859401 2.91196181 -1.859401 2.91196181 0 0 Z " fill="#559C58" transform="translate(205,176)"/>
<path d="M0 0 C0.33 0 0.66 0 1 0 C1.05787784 3.62493334 1.0935542 7.24974857 1.125 10.875 C1.15013672 12.42380859 1.15013672 12.42380859 1.17578125 14.00390625 C1.18222656 14.99003906 1.18867188 15.97617187 1.1953125 16.9921875 C1.20578613 17.90339355 1.21625977 18.81459961 1.22705078 19.75341797 C1 22 1 22 -1 24 C-2.21800872 15.93069222 -3.46834267 7.60841969 0 0 Z " fill="#E6F1E4" transform="translate(155,34)"/>
<path d="M0 0 C3.12036853 2.83669867 4.87079785 5.29453161 5.1953125 9.578125 C5.16050781 10.90070313 5.16050781 10.90070313 5.125 12.25 C5.10695312 13.14203125 5.08890625 14.0340625 5.0703125 14.953125 C5.03550781 15.96632813 5.03550781 15.96632813 5 17 C1.90427027 13.90427027 0.33894424 10.14170834 -1 6 C-0.75 2.4375 -0.75 2.4375 0 0 Z " fill="#D1E4CE" transform="translate(180,105)"/>
<path d="M0 0 C1.46726798 3.81489674 0.43336419 6.29011622 -1 10 C-0.34 10 0.32 10 1 10 C1.33 6.7 1.66 3.4 2 0 C2.66 0 3.32 0 4 0 C2.25740319 11.70615034 2.25740319 11.70615034 -1 16 C-2.32 15.67 -3.64 15.34 -5 15 C-3.33333333 10 -1.66666667 5 0 0 Z " fill="#B6D4B7" transform="translate(226,150)"/>
<path d="M0 0 C0.99 0.495 0.99 0.495 2 1 C2 4.96 2 8.92 2 13 C2.88042969 12.65066406 3.76085937 12.30132812 4.66796875 11.94140625 C6.41013672 11.25884766 6.41013672 11.25884766 8.1875 10.5625 C9.33605469 10.11003906 10.48460938 9.65757812 11.66796875 9.19140625 C14.47123233 8.18906699 17.07112576 7.47987205 20 7 C18.37084631 10.25830737 14.87460105 10.82124904 11.625 12.0625 C10.93921875 12.33126953 10.2534375 12.60003906 9.546875 12.87695312 C6.715634 13.98135745 3.8833584 15.03888053 1 16 C0.67 10.72 0.34 5.44 0 0 Z " fill="#30873E" transform="translate(88,188)"/>
<path d="M0 0 C0.45375 0.495 0.9075 0.99 1.375 1.5 C2.87635519 3.22609337 2.87635519 3.22609337 5 3 C4.67 3.99 4.34 4.98 4 6 C3.01 6.33 2.02 6.66 1 7 C-0.66710346 8.49985609 -0.66710346 8.49985609 -2 10 C-2 9.34 -2 8.68 -2 8 C-3.32 8 -4.64 8 -6 8 C-6 5.69 -6 3.38 -6 1 C-5.67 1 -5.34 1 -5 1 C-4.67 2.65 -4.34 4.3 -4 6 C-2.68 4.02 -1.36 2.04 0 0 Z " fill="#CCD0CC" transform="translate(169,210)"/>
<path d="M0 0 C0.33 0.66 0.66 1.32 1 2 C3.02463255 2.65213292 3.02463255 2.65213292 5 3 C4 6 4 6 2.0625 7.0625 C1.381875 7.371875 0.70125 7.68125 0 8 C-0.66 8.66 -1.32 9.32 -2 10 C-2.33 9.34 -2.66 8.68 -3 8 C-3.66 8 -4.32 8 -5 8 C-5.33 8.99 -5.66 9.98 -6 11 C-6.33 10.34 -6.66 9.68 -7 9 C-4.69 6.03 -2.38 3.06 0 0 Z " fill="#D3D4D0" transform="translate(152,214)"/>
<path d="M0 0 C0.66 0 1.32 0 2 0 C1.67 0.99 1.34 1.98 1 3 C0.84629652 5.72883073 0.74271735 8.43697142 0.68359375 11.16796875 C0.66281265 11.96278152 0.64203156 12.7575943 0.62062073 13.57649231 C0.55527913 16.11340763 0.49631192 18.65042573 0.4375 21.1875 C0.39430014 22.90821372 0.35068537 24.62891708 0.30664062 26.34960938 C0.19961352 30.56630113 0.09830276 34.7830962 0 39 C-0.33 39 -0.66 39 -1 39 C-1.02464849 33.60653012 -1.04283531 28.21309275 -1.05493164 22.81958008 C-1.05997231 20.98331125 -1.06680477 19.14704646 -1.07543945 17.31079102 C-1.08751672 14.67723599 -1.09323081 12.04373384 -1.09765625 9.41015625 C-1.10281754 8.58411392 -1.10797882 7.75807159 -1.11329651 6.90699768 C-1.11349205 4.93763632 -1.06204152 2.96838386 -1 1 C-0.67 0.67 -0.34 0.34 0 0 Z " fill="#2A2D2A" transform="translate(42,249)"/>
<path d="M0 0 C1.66748747 2.50123121 2.89954361 4.77676357 4.125 7.5 C4.47820313 8.2734375 4.83140625 9.046875 5.1953125 9.84375 C6 12 6 12 6 15 C4.1875 14.875 4.1875 14.875 2 14 C-1 8.96428571 -1 8.96428571 -1 6 C-0.34 6 0.32 6 1 6 C0.67 4.02 0.34 2.04 0 0 Z " fill="#C9E3C7" transform="translate(50,171)"/>
<path d="M0 0 C0.33 0 0.66 0 1 0 C1.23441607 2.81299284 1.30926556 4.49540883 -0.1875 6.9375 C-0.785625 7.618125 -1.38375 8.29875 -2 9 C-2.78375 10.03125 -3.5675 11.0625 -4.375 12.125 C-6.93053376 14.92391792 -8.42073365 15.97735247 -12 17 C-11.63648437 16.52691406 -11.27296875 16.05382812 -10.8984375 15.56640625 C-7.46863488 11.05489665 -4.26640099 6.45330548 -1.19921875 1.6875 C-0.80347656 1.130625 -0.40773438 0.57375 0 0 Z " fill="#88CA8F" transform="translate(96,88)"/>
<path d="M0 0 C1.14628183 3.43884549 1.20894754 4.61494688 0 8 C-1.87619753 9.91267915 -3.83836336 11.39027058 -6 13 C-5.63118644 6.85310727 -4.09949571 4.30972626 0 0 Z " fill="#D9E0D9" transform="translate(214,221)"/>
<path d="M0 0 C0.67578125 1.765625 0.67578125 1.765625 1 4 C-0.14453125 5.921875 -0.14453125 5.921875 -1.8125 7.75 C-2.62654297 8.67039063 -2.62654297 8.67039063 -3.45703125 9.609375 C-5 11 -5 11 -7 11 C-5.72278474 6.00724943 -3.82669043 3.42388092 0 0 Z " fill="#CFE7D0" transform="translate(111,130)"/>
<path d="M0 0 C0 3.3 0 6.6 0 10 C-0.66 10 -1.32 10 -2 10 C-2.33 10.99 -2.66 11.98 -3 13 C-3.33 13 -3.66 13 -4 13 C-4.47081122 4.83927218 -4.47081122 4.83927218 -2.5625 1.4375 C-1 0 -1 0 0 0 Z " fill="#DCEBD9" transform="translate(127,64)"/>
<path d="M0 0 C0.66 0.66 1.32 1.32 2 2 C1.50858699 8.26551594 0.08829902 14.48518033 -3 20 C-3.66 20 -4.32 20 -5 20 C-3.33333333 13.33333333 -1.66666667 6.66666667 0 0 Z " fill="#71C177" transform="translate(123,102)"/>
<path d="M0 0 C0.33 0 0.66 0 1 0 C1.48828125 1.98567708 1.9765625 3.97135417 2.46484375 5.95703125 C2.91010705 7.65683202 3.44433985 9.33301954 4 11 C6.31 11 8.62 11 11 11 C11 11.33 11 11.66 11 12 C7.94152152 12.54372951 5.11227195 13 2 13 C-0.01938095 10.69213605 -1.01663719 9.0000797 -0.96484375 5.88671875 C-0.71605421 3.91392279 -0.36444272 1.95473825 0 0 Z " fill="#BED1BE" transform="translate(87,130)"/>
<path d="M0 0 C2.40928735 0.96371494 3.76007009 1.65210163 5.25 3.8125 C6.11081611 6.32321365 6.14647297 8.36348649 6 11 C3 10 3 10 1.3125 7.1875 C0 4 0 4 0 0 Z " fill="#D4E3D5" transform="translate(169,86)"/>
<path d="M0 0 C0.33 0.66 0.66 1.32 1 2 C1.66 2.33 2.32 2.66 3 3 C1.35 4.98 -0.3 6.96 -2 9 C-3.32 8.67 -4.64 8.34 -6 8 C-4.55746343 4.63408134 -2.66735273 2.48952921 0 0 Z " fill="#B3C1B1" transform="translate(196,182)"/>
<path d="M0 0 C0.66 0.66 1.32 1.32 2 2 C2.66 2.33 3.32 2.66 4 3 C4 5.97 4 8.94 4 12 C3.67 12 3.34 12 3 12 C3 9.69 3 7.38 3 5 C1.02 5.99 1.02 5.99 -1 7 C-1.33 6.34 -1.66 5.68 -2 5 C-2.66 4.67 -3.32 4.34 -4 4 C-2.68 2.68 -1.36 1.36 0 0 Z " fill="#C2C8C2" transform="translate(250,220)"/>
<path d="M0 0 C2.1640625 -0.29296875 2.1640625 -0.29296875 4.625 -0.1875 C5.44226562 -0.16042969 6.25953125 -0.13335937 7.1015625 -0.10546875 C8.04128906 -0.05326172 8.04128906 -0.05326172 9 0 C10.07174763 3.65188082 9.76411467 6.26432828 9 10 C8.67 10 8.34 10 8 10 C8 7.36 8 4.72 8 2 C4.7 2.33 1.4 2.66 -2 3 C-1.34 2.01 -0.68 1.02 0 0 Z " fill="#ABB4AA" transform="translate(37,203)"/>
<path d="M0 0 C0.8125 1.6875 0.8125 1.6875 1 4 C-1.125 6.8125 -1.125 6.8125 -4 9 C-6.8125 8.8125 -6.8125 8.8125 -9 8 C-6.17493137 5.0702992 -3.21203935 2.49825283 0 0 Z " fill="#BCCFBA" transform="translate(83,100)"/>
<path d="M0 0 C1.76923828 0.01353516 1.76923828 0.01353516 3.57421875 0.02734375 C4.47785156 0.03894531 5.38148438 0.05054688 6.3125 0.0625 C6.3125 0.3925 6.3125 0.7225 6.3125 1.0625 C-0.0653552 2.23543889 -6.19071562 3.35780838 -12.6875 3.0625 C-8.25030401 0.10436934 -5.23338583 -0.0518157 0 0 Z " fill="#81867F" transform="translate(184.6875,259.9375)"/>
<path d="M0 0 C0.33 0 0.66 0 1 0 C1.02688151 1.64574566 1.04634123 3.29161413 1.0625 4.9375 C1.07410156 5.85402344 1.08570313 6.77054688 1.09765625 7.71484375 C1 10 1 10 0 11 C-1.99958364 11.04080783 -4.00045254 11.04254356 -6 11 C-6.33 10.34 -6.66 9.68 -7 9 C-5.02 9 -3.04 9 -1 9 C-1.020625 7.700625 -1.04125 6.40125 -1.0625 5.0625 C-1.08399454 3.70834367 -1.07148199 2.35243917 -1 1 C-0.67 0.67 -0.34 0.34 0 0 Z " fill="#A6AEA6" transform="translate(142,241)"/>
<path d="M0 0 C0.66 0.33 1.32 0.66 2 1 C1.01 3.97 0.02 6.94 -1 10 C-1.66 9.34 -2.32 8.68 -3 8 C-3.99 8.66 -4.98 9.32 -6 10 C-4.6302836 6.00499382 -2.74277578 3.19990508 0 0 Z " fill="#323533" transform="translate(171,215)"/>
<path d="M0 0 C0.66 0 1.32 0 2 0 C1.34 2.97 0.68 5.94 0 9 C-0.66 8.01 -1.32 7.02 -2 6 C-3.32 6.99 -4.64 7.98 -6 9 C-4.4722133 5.56247993 -2.49818944 2.81046312 0 0 Z " fill="#353936" transform="translate(154,219)"/>
<path d="M0 0 C0.99 0.33 1.98 0.66 3 1 C2.67 2.98 2.34 4.96 2 7 C0.68 7.33 -0.64 7.66 -2 8 C-1.125 2.25 -1.125 2.25 0 0 Z " fill="#C8E1C6" transform="translate(209,162)"/>
<path d="M0 0 C0.33 0 0.66 0 1 0 C1 1.65 1 3.3 1 5 C0.01 5.33 -0.98 5.66 -2 6 C-2.04898438 6.63808594 -2.09796875 7.27617187 -2.1484375 7.93359375 C-2.22320312 8.75988281 -2.29796875 9.58617187 -2.375 10.4375 C-2.47941406 11.67306641 -2.47941406 11.67306641 -2.5859375 12.93359375 C-2.72257812 13.61550781 -2.85921875 14.29742187 -3 15 C-3.99 15.495 -3.99 15.495 -5 16 C-4.37827268 9.90707222 -2.71441363 5.42882726 0 0 Z " fill="#6BB96E" transform="translate(55,133)"/>
<path d="M0 0 C0.33 0.66 0.66 1.32 1 2 C-1.23407889 5.35111834 -2.26215824 6.81553956 -6.25 7.8125 C-7.61125 7.9053125 -7.61125 7.9053125 -9 8 C-6.14723863 5.06799526 -3.34920216 2.35684596 0 0 Z " fill="#5EB969" transform="translate(112,135)"/>
<path d="M0 0 C0.33 0.66 0.66 1.32 1 2 C1.66 2.33 2.32 2.66 3 3 C-1.30769231 6.93846154 -1.30769231 6.93846154 -4.8125 7.25 C-5.534375 7.1675 -6.25625 7.085 -7 7 C-4.66666667 4.66666667 -2.33333333 2.33333333 0 0 Z " fill="#B8D7B6" transform="translate(163,185)"/>
<path d="M0 0 C0.99 0 1.98 0 3 0 C3.53341184 1.57914015 4.05125763 3.16354387 4.5625 4.75 C4.85253906 5.63171875 5.14257812 6.5134375 5.44140625 7.421875 C6.01697435 10.07834316 5.89248371 11.47031106 5 14 C2.97649676 10.96474514 2.67875982 9.80573798 2.375 6.3125 C2.30023438 5.50425781 2.22546875 4.69601563 2.1484375 3.86328125 C2.07496094 2.94095703 2.07496094 2.94095703 2 2 C1.34 2 0.68 2 0 2 C0 1.34 0 0.68 0 0 Z " fill="#7BC484" transform="translate(221,112)"/>
<path d="M0 0 C3.00617269 3.00617269 2.59585316 5.82381598 3 10 C2.01 9.67 1.02 9.34 0 9 C-0.33 9.99 -0.66 10.98 -1 12 C-1.92470553 7.28400182 -2.22923777 4.32734391 0 0 Z " fill="#CEDBCB" transform="translate(209,89)"/>
<path d="M0 0 C2.26335337 3.39503005 2.18567637 4.17007563 1.75 8.0625 C1.66234375 8.94035156 1.5746875 9.81820312 1.484375 10.72265625 C1 13 1 13 -1 15 C-1.10251672 9.87416389 -1.03590199 5.05002222 0 0 Z " fill="#EEF4E9" transform="translate(122,84)"/>
<path d="M0 0 C0.66 0 1.32 0 2 0 C2.86916887 1.40751221 3.71985149 2.8264521 4.5625 4.25 C5.03816406 5.03890625 5.51382813 5.8278125 6.00390625 6.640625 C7.13022151 9.30844625 7.0169313 10.34501768 6 13 C4 10 4 10 4 7 C3.34 7 2.68 7 2 7 C1.34 4.69 0.68 2.38 0 0 Z " fill="#96CE98" transform="translate(165,85)"/>
<path d="M0 0 C0.33 0.99 0.66 1.98 1 3 C1.66 3.33 2.32 3.66 3 4 C1.35 5.65 -0.3 7.3 -2 9 C-2 8.34 -2 7.68 -2 7 C-2.66 6.67 -3.32 6.34 -4 6 C-2.68 4.02 -1.36 2.04 0 0 Z " fill="#BCD9BF" transform="translate(176,169)"/>
<path d="M0 0 C0.33 0.99 0.66 1.98 1 3 C-1.375 6.1875 -1.375 6.1875 -4 9 C-4.33 9 -4.66 9 -5 9 C-5.3125 6.75 -5.3125 6.75 -5 4 C-2.5 1.6875 -2.5 1.6875 0 0 Z " fill="#DAEDD9" transform="translate(63,119)"/>
<path d="M0 0 C0 2.64 0 5.28 0 8 C-0.33 8 -0.66 8 -1 8 C-1 6.35 -1 4.7 -1 3 C-2.1446875 3.7425 -2.1446875 3.7425 -3.3125 4.5 C-6 6 -6 6 -9 6 C-7.8803014 4.99406757 -6.7540588 3.9954151 -5.625 3 C-4.68527344 2.1646875 -4.68527344 2.1646875 -3.7265625 1.3125 C-2 0 -2 0 0 0 Z " fill="#3E5941" transform="translate(205,181)"/>
<path d="M0 0 C0.66 0.33 1.32 0.66 2 1 C1.67 4.63 1.34 8.26 1 12 C0.34 11.67 -0.32 11.34 -1 11 C-1.0270043 9.54176788 -1.04639787 8.08339325 -1.0625 6.625 C-1.07410156 5.81289062 -1.08570312 5.00078125 -1.09765625 4.1640625 C-1 2 -1 2 0 0 Z " fill="#DAF3D8" transform="translate(86,126)"/>
<path d="M0 0 C0.33 0 0.66 0 1 0 C0.62257767 6.16456476 -1.15870308 9.17375515 -5 14 C-5.33 13.01 -5.66 12.02 -6 11 C-5.0390625 9.31640625 -5.0390625 9.31640625 -3.625 7.5625 C-1.6188504 5.05761489 -0.5989199 3.16870413 0 0 Z " fill="#79C480" transform="translate(98,100)"/>
<path d="M0 0 C3.875 0.875 3.875 0.875 5 2 C5.04063832 3.66617115 5.042721 5.33388095 5 7 C4.67 6.34 4.34 5.68 4 5 C2.68 5 1.36 5 0 5 C0 3.35 0 1.7 0 0 Z " fill="#E7EDE3" transform="translate(96,77)"/>
<path d="M0 0 C0.66 0.33 1.32 0.66 2 1 C-0.85276137 3.93200474 -3.65079784 6.64315404 -7 9 C-6.67 7.68 -6.34 6.36 -6 5 C-5.34 5 -4.68 5 -4 5 C-3.71125 4.360625 -3.4225 3.72125 -3.125 3.0625 C-2 1 -2 1 0 0 Z " fill="#31863D" transform="translate(115,186)"/>
<path d="M0 0 C0.66 1.32 1.32 2.64 2 4 C0.68 5.32 -0.64 6.64 -2 8 C-2.99 7.34 -3.98 6.68 -5 6 C-3.35 4.02 -1.7 2.04 0 0 Z " fill="#BEDFC1" transform="translate(218,170)"/>
<path d="M0 0 C0.33 0 0.66 0 1 0 C1.28571429 7.42857143 1.28571429 7.42857143 -1 11 C-1 9.68 -1 8.36 -1 7 C-1.66 7 -2.32 7 -3 7 C-1.125 1.125 -1.125 1.125 0 0 Z " fill="#D2E9CF" transform="translate(50,138)"/>
<path d="M0 0 C0.33 0 0.66 0 1 0 C1 2.64 1 5.28 1 8 C0.01 8.495 0.01 8.495 -1 9 C-1.33 8.01 -1.66 7.02 -2 6 C-2.99 6.495 -2.99 6.495 -4 7 C-2.92598892 4.08482708 -2.22189824 2.22189824 0 0 Z " fill="#B0CAAF" transform="translate(57,124)"/>
<path d="M0 0 C2.5 2.25 2.5 2.25 5 5 C5 6.32 5 7.64 5 9 C4.01 8.67 3.02 8.34 2 8 C0.5522078 5.10441559 0 3.25811062 0 0 Z " fill="#788E76" transform="translate(210,91)"/>
<path d="M0 0 C-0.54723683 3.37462715 -1.0549 5.08235 -3 8 C-3 6.02 -3 4.04 -3 2 C-4.32 2.33 -5.64 2.66 -7 3 C-4.49955934 -0.00052879 -4.2621484 0 0 0 Z " fill="#B6C4B7" transform="translate(161,21)"/>
<path d="M0 0 C0 0.99 0 1.98 0 3 C-1.6796875 4.421875 -1.6796875 4.421875 -3.875 5.75 C-4.59429687 6.19859375 -5.31359375 6.6471875 -6.0546875 7.109375 C-6.69664063 7.40328125 -7.33859375 7.6971875 -8 8 C-8.66 7.67 -9.32 7.34 -10 7 C-3.71428571 1.57142857 -3.71428571 1.57142857 0 0 Z " fill="#7FC687" transform="translate(87,103)"/>
<path d="M0 0 C0.33 0 0.66 0 1 0 C1.4375 2.125 1.4375 2.125 1 5 C-1.12689146 7.276147 -3.5023433 9.1458722 -6 11 C-4.15147768 7.23634193 -2.09496432 3.63127149 0 0 Z " fill="#96CD98" transform="translate(96,88)"/>
<path d="M0 0 C1.65 0.33 3.3 0.66 5 1 C4.67 2.32 4.34 3.64 4 5 C3.34 4.67 2.68 4.34 2 4 C2 3.34 2 2.68 2 2 C1.34 2 0.68 2 0 2 C-0.33 2.99 -0.66 3.98 -1 5 C-1.66 4.67 -2.32 4.34 -3 4 C-2.01 2.68 -1.02 1.36 0 0 Z " fill="#C5C7C4" transform="translate(231,221)"/>
<path d="M0 0 C2.475 0.495 2.475 0.495 5 1 C5 1.99 5 2.98 5 4 C3.35 4 1.7 4 0 4 C0 2.68 0 1.36 0 0 Z " fill="#F6F4F0" transform="translate(107,208)"/>
<path d="M0 0 C0.99 0 1.98 0 3 0 C3 1.65 3 3.3 3 5 C0.03 4.505 0.03 4.505 -3 4 C-1.6875 2 -1.6875 2 0 0 Z " fill="#0F160F" transform="translate(201,184)"/>
<path d="M0 0 C0.33 0.66 0.66 1.32 1 2 C1.66 2.33 2.32 2.66 3 3 C1.6875 4.5 1.6875 4.5 0 6 C-0.99 6 -1.98 6 -3 6 C-2.42655063 3.13275314 -2.1385485 2.1385485 0 0 Z " fill="#C5DFC6" transform="translate(167,181)"/>
<path d="M0 0 C0.8971875 0.309375 0.8971875 0.309375 1.8125 0.625 C-1.52083333 2.29166667 -4.85416667 3.95833333 -8.1875 5.625 C-8.1875 3.975 -8.1875 2.325 -8.1875 0.625 C-7.1975 0.955 -6.2075 1.285 -5.1875 1.625 C-2.1875 -0.375 -2.1875 -0.375 0 0 Z " fill="#388F42" transform="translate(65.1875,181.375)"/>
<path d="M0 0 C1.125 1.6875 1.125 1.6875 2 4 C1.125 6.75 1.125 6.75 0 9 C-1.5625 7.75 -1.5625 7.75 -3 6 C-2.6875 3.8125 -2.6875 3.8125 -2 2 C-1.67 2.66 -1.34 3.32 -1 4 C-0.67 2.68 -0.34 1.36 0 0 Z " fill="#A9CDAB" transform="translate(179,101)"/>
<path d="M0 0 C4.875 4.625 4.875 4.625 6 8 C5.34 8 4.68 8 4 8 C3.67 7.34 3.34 6.68 3 6 C2.01 6 1.02 6 0 6 C-0.33 5.34 -0.66 4.68 -1 4 C-0.34 4 0.32 4 1 4 C0.67 2.68 0.34 1.36 0 0 Z " fill="#B0BCB1" transform="translate(213,89)"/>
<path d="M0 0 C0.33 0 0.66 0 1 0 C1.36923077 7.50769231 1.36923077 7.50769231 -0.5 10 C-0.995 10.33 -1.49 10.66 -2 11 C-2.25 3.375 -2.25 3.375 0 0 Z " fill="#CED5CA" transform="translate(123,79)"/>
<path d="M0 0 C-0.33 1.32 -0.66 2.64 -1 4 C-1 3.01 -1 2.02 -1 1 C-3.9719385 2.12451727 -6.33440687 3.22293791 -9 5 C-9 3.68 -9 2.36 -9 1 C-5.8035914 -0.06546953 -3.34252724 -0.07427838 0 0 Z " fill="#CED7CE" transform="translate(148,214)"/>
<path d="M0 0 C0.33 0.99 0.66 1.98 1 3 C1.66 3 2.32 3 3 3 C2.34 4.65 1.68 6.3 1 8 C0.01 7.34 -0.98 6.68 -2 6 C-1.34 4.02 -0.68 2.04 0 0 Z " fill="#B8D3B7" transform="translate(112,125)"/>
<path d="M0 0 C0 1.98 0 3.96 0 6 C-0.99 6.495 -0.99 6.495 -2 7 C-2.33 6.34 -2.66 5.68 -3 5 C-3.99 5.495 -3.99 5.495 -5 6 C-2.84615385 0 -2.84615385 0 0 0 Z " fill="#C6DAC5" transform="translate(101,104)"/>
<path d="M0 0 C0.66 0.33 1.32 0.66 2 1 C0.75453595 4.73639216 -0.63404953 5.18756513 -4 7 C-3.43628586 3.73045798 -2.50037734 2.17424117 0 0 Z " fill="#D5ECCF" transform="translate(76,107)"/>
<path d="M0 0 C1.5 1.125 1.5 1.125 3 3 C3.1875 6.1875 3.1875 6.1875 3 9 C1.5 7.875 1.5 7.875 0 6 C-0.1875 2.8125 -0.1875 2.8125 0 0 Z " fill="#E5EFE2" transform="translate(156,58)"/>
<path d="M0 0 C1.32 0 2.64 0 4 0 C3.67 2.64 3.34 5.28 3 8 C2.67 8 2.34 8 2 8 C2 6.02 2 4.04 2 2 C1.01 2.33 0.02 2.66 -1 3 C-0.67 2.01 -0.34 1.02 0 0 Z " fill="#A5B2A8" transform="translate(281,210)"/>
<path d="M0 0 C0.33 1.32 0.66 2.64 1 4 C1.66 4 2.32 4 3 4 C2.67 5.65 2.34 7.3 2 9 C1.34 8.67 0.68 8.34 0 8 C-0.95067299 4.71585695 -1.10102197 3.30306592 0 0 Z " fill="#BFDAC3" transform="translate(184,151)"/>
<path d="M0 0 C3 3 3 3 3.07421875 5.04296875 C2.71614583 7.02864583 2.35807292 9.01432292 2 11 C1.67 11 1.34 11 1 11 C0.67 7.37 0.34 3.74 0 0 Z " fill="#74C27F" transform="translate(216,111)"/>
<path d="M0 0 C3.875 1.75 3.875 1.75 5 4 C4.01 4 3.02 4 2 4 C2 4.66 2 5.32 2 6 C1.34 6 0.68 6 0 6 C0 4.02 0 2.04 0 0 Z " fill="#B9C5B8" transform="translate(202,79)"/>
<path d="M0 0 C0.33 0.66 0.66 1.32 1 2 C3.01669827 3.13350534 3.01669827 3.13350534 5 4 C4.01 4.33 3.02 4.66 2 5 C1.34 5.66 0.68 6.32 0 7 C-0.99 5.68 -1.98 4.36 -3 3 C-2.34 3 -1.68 3 -1 3 C-0.67 2.01 -0.34 1.02 0 0 Z " fill="#BDC3BE" transform="translate(184,230)"/>
<path d="M0 0 C1.9451 2.91765 2.45276317 4.62537285 3 8 C2.34 8 1.68 8 1 8 C0.67 8.66 0.34 9.32 0 10 C-0.33 8.68 -0.66 7.36 -1 6 C-0.34 6 0.32 6 1 6 C0.67 4.02 0.34 2.04 0 0 Z " fill="#B5DCB4" transform="translate(50,171)"/>
<path d="M0 0 C0.33 0 0.66 0 1 0 C1 1.98 1 3.96 1 6 C0.01 6.33 -0.98 6.66 -2 7 C-2.125 4.625 -2.125 4.625 -2 2 C-1.34 1.34 -0.68 0.68 0 0 Z " fill="#48B351" transform="translate(221,159)"/>
<path d="M0 0 C0.99 0 1.98 0 3 0 C3 1.65 3 3.3 3 5 C2.01 5.33 1.02 5.66 0 6 C0 4.02 0 2.04 0 0 Z " fill="#D3E6D6" transform="translate(185,149)"/>
<path d="M0 0 C0.66 0.66 1.32 1.32 2 2 C1.625 5.625 1.625 5.625 1 9 C0.01 9.33 -0.98 9.66 -2 10 C-1.34 6.7 -0.68 3.4 0 0 Z " fill="#80C386" transform="translate(123,102)"/>
<path d="M0 0 C0.33 0 0.66 0 1 0 C1 2.31 1 4.62 1 7 C0.01 7.33 -0.98 7.66 -2 8 C-1.125 2.25 -1.125 2.25 0 0 Z " fill="#E7EFDF" transform="translate(128,55)"/>
</svg>
