<?xml version="1.0" encoding="UTF-8"?>
<svg version="1.1" xmlns="http://www.w3.org/2000/svg" width="416" height="411">
<path d="M0 0 C1.12019531 0.41121094 2.24039063 0.82242188 3.39453125 1.24609375 C12.47601394 4.65551194 20.75277894 8.90612817 29 14 C29.80179688 14.48855469 30.60359375 14.97710937 31.4296875 15.48046875 C33.375 16.75 33.375 16.75 36 19 C36 20.32 36 21.64 36 23 C31.32769808 23.18322753 28.2783526 22.73446727 24 21 C22.19630049 20.62193198 20.38257193 20.28914618 18.5625 20 C14.54296403 19.31386953 10.83887964 18.40446816 7 17 C5.67088318 16.65023242 4.33917261 16.30903983 3 16 C3.495 17.98 3.495 17.98 4 20 C4.66 20 5.32 20 6 20 C6.99 21.98 6.99 21.98 8 24 C8.495 23.505 8.99 23.01 9.5 22.5 C12.99657929 20.40205242 16.01192392 20.37890618 20 21 C22.5 22.375 22.5 22.375 24 24 C24 24.66 24 25.32 24 26 C24.66 26 25.32 26 26 26 C26.99 28.475 26.99 28.475 28 31 C29.65 31 31.3 31 33 31 C33.31740554 45.40668464 32.81948209 59.25199531 28 73 C27.53737824 74.36966264 27.07517654 75.7394672 26.61328125 77.109375 C26.09777126 78.61506925 25.58083365 80.12027545 25.0625 81.625 C24.82176758 82.32995605 24.58103516 83.03491211 24.33300781 83.76123047 C22.58526079 88.72942767 20.43094228 93.3271304 18 98 C17.34 98 16.68 98 16 98 C15.63648438 99.30130859 15.63648438 99.30130859 15.265625 100.62890625 C13.06011902 106.50344842 8.86359654 111.12450913 5 116 C4.46890625 116.68835938 3.9378125 117.37671875 3.390625 118.0859375 C-0.4475708 122.85133791 -5.07745991 126.40107625 -10 130 C-7.9396683 133.12585793 -5.85231772 136.20675519 -3.67578125 139.25390625 C-3.28712891 139.79853516 -2.89847656 140.34316406 -2.49804688 140.90429688 C-1.701859 142.01791056 -0.89966782 143.12725442 -0.09179688 144.23242188 C2.19190092 147.45714087 3.56619917 150.05167716 4 154 C4.66 154 5.32 154 6 154 C6.18175781 154.556875 6.36351562 155.11375 6.55078125 155.6875 C7.79605048 159.46800968 9.0648938 163.22444746 10.5 166.9375 C13.57910666 175.1753194 15.4315488 182.99062525 16.35375977 191.73046875 C16.44470535 195.15913933 16.44470535 195.15913933 18 198 C18.10012401 200.20650656 18.1308118 202.41622386 18.1328125 204.625 C18.13376923 205.28709473 18.13472595 205.94918945 18.13571167 206.63134766 C18.13639326 208.03352961 18.13454042 209.4357147 18.13037109 210.83789062 C18.12502246 212.99095713 18.1303167 215.14381502 18.13671875 217.296875 C18.13605796 218.65625046 18.13477679 220.0156258 18.1328125 221.375 C18.13168457 222.62023437 18.13055664 223.86546875 18.12939453 225.1484375 C18 228 18 228 17 229 C16.76807135 230.51469448 16.58784762 232.03754562 16.4375 233.5625 C16.31181641 234.80193359 16.31181641 234.80193359 16.18359375 236.06640625 C16.12300781 236.70449219 16.06242187 237.34257812 16 238 C14.68 238 13.36 238 12 238 C9.95301586 235.95301586 10.29954307 231.69588759 10 229 C9.74605469 229.63808594 9.49210937 230.27617187 9.23046875 230.93359375 C8.71419922 232.17302734 8.71419922 232.17302734 8.1875 233.4375 C7.68283203 234.67306641 7.68283203 234.67306641 7.16796875 235.93359375 C6 238 6 238 3 239 C3 239.66 3 240.32 3 241 C-0.3 241 -3.6 241 -7 241 C-7 240.34 -7 239.68 -7 239 C-7.66 239 -8.32 239 -9 239 C-11.94322432 236.72088783 -12.68782219 234.40743944 -13.625 230.875 C-14.2994741 227.65634118 -14.2994741 227.65634118 -16 225 C-16.41055631 222.06017711 -16.76139291 219.13902048 -17.0625 216.1875 C-17.15120361 215.32471436 -17.23990723 214.46192871 -17.33129883 213.57299805 C-18.23901198 204.26175838 -18.42524203 195.26407319 -17 186 C-18.65 185.67 -20.3 185.34 -22 185 C-22.79953138 181.71303767 -23.09658936 180.28976808 -22 177 C-20.125 176.1875 -20.125 176.1875 -18 176 C-16.515 176.99 -16.515 176.99 -15 178 C-14.67 176.68 -14.34 175.36 -14 174 C-14.66 174 -15.32 174 -16 174 C-16 171.03 -16 168.06 -16 165 C-16.804375 164.690625 -17.60875 164.38125 -18.4375 164.0625 C-21 163 -21 163 -22 162 C-22.59227922 155.7218403 -22.59227922 155.7218403 -20 152.5625 C-19.34 152.046875 -18.68 151.53125 -18 151 C-18.95421808 149.85073734 -19.91352045 148.70569459 -20.875 147.5625 C-21.67550781 146.60537109 -21.67550781 146.60537109 -22.4921875 145.62890625 C-23.9222757 143.89194996 -23.9222757 143.89194996 -26 143 C-26 142.34 -26 141.68 -26 141 C-34.73049192 138.31369479 -43.25860437 137.23217101 -51.625 141.5 C-52.42164063 141.9640625 -53.21828125 142.428125 -54.0390625 142.90625 C-56 144 -56 144 -58 144 C-58.33 144.99 -58.66 145.98 -59 147 C-60.56640625 148.5078125 -60.56640625 148.5078125 -62.5625 150.125 C-68.17959869 154.89194322 -73.95252185 160.18165242 -77 167 C-77.66 167 -78.32 167 -79 167 C-79.309375 168.1446875 -79.309375 168.1446875 -79.625 169.3125 C-81.55894391 174.49898594 -84.2785146 179.19033084 -87 184 C-85.9275 184.0825 -84.855 184.165 -83.75 184.25 C-80 185 -80 185 -77.625 186.5 C-75.30203196 190.07379698 -74.76556799 193.75678058 -75 198 C-75.66 198.99 -76.32 199.98 -77 201 C-81.06063761 201.52637895 -83.13899831 201.66230899 -86.4375 199.125 C-88 197 -88 197 -88 195 C-88.66 195 -89.32 195 -90 195 C-90.33 194.01 -90.66 193.02 -91 192 C-92.65 196.95 -94.3 201.9 -96 207 C-95.01 206.01 -94.02 205.02 -93 204 C-90.625 203.375 -90.625 203.375 -88 203 C-87.21625 202.731875 -86.4325 202.46375 -85.625 202.1875 C-81.54823846 201.89630275 -79.38402823 203.78736616 -76 206 C-75.67 206.33 -75.34 206.66 -75 207 C-74.76925781 206.04738281 -74.53851563 205.09476563 -74.30078125 204.11328125 C-73.97464844 202.85902344 -73.64851563 201.60476562 -73.3125 200.3125 C-72.99925781 199.07113281 -72.68601563 197.82976562 -72.36328125 196.55078125 C-70.8407008 192.58509177 -69.32984676 190.6109593 -66 188 C-64.68 188 -63.36 188 -62 188 C-62 187.34 -62 186.68 -62 186 C-59.03 186 -56.06 186 -53 186 C-49.94232973 192.11534053 -49.5723203 198.26404477 -50 205 C-51.76604493 209.90568036 -54.67041291 214.04273739 -59 217 C-62.86596057 218.18614699 -66.12145939 218.29284687 -70 217 C-70 218.65 -70 220.3 -70 222 C-68.5459375 221.9690625 -68.5459375 221.9690625 -67.0625 221.9375 C-64 222 -64 222 -63 223 C-62.8125 225.9375 -62.8125 225.9375 -63 229 C-65 231 -65 231 -67.5 231.3125 C-68.7375 231.1578125 -68.7375 231.1578125 -70 231 C-70.66 230.01 -71.32 229.02 -72 228 C-72.56074219 228.32226562 -73.12148437 228.64453125 -73.69921875 228.9765625 C-78.19422878 230.97604065 -83.53413036 230.91512164 -88.13671875 229.20703125 C-91.27268779 227.49112366 -93.00621463 225.99067806 -95 223 C-95.125 220.3125 -95.125 220.3125 -95 218 C-95.66 218 -96.32 218 -97 218 C-98.04449911 214.86650268 -97.93423645 214.01031744 -97 211 C-97.66 211 -98.32 211 -99 211 C-99.04898438 211.68707031 -99.09796875 212.37414062 -99.1484375 213.08203125 C-99.22320312 213.98308594 -99.29796875 214.88414062 -99.375 215.8125 C-99.44460937 216.70582031 -99.51421875 217.59914062 -99.5859375 218.51953125 C-100 221 -100 221 -102 224 C-102.99 224 -103.98 224 -105 224 C-105.45949135 206.46274687 -103.13959439 190.77234048 -98 174 C-97.34 174 -96.68 174 -96 174 C-95.855625 172.845 -95.71125 171.69 -95.5625 170.5 C-93.99841195 163.27759342 -89.8069801 157.04049942 -86.05126953 150.76757812 C-85.11904051 149.20015172 -84.2263955 147.60933215 -83.33984375 146.015625 C-82.67662109 145.01789063 -82.67662109 145.01789063 -82 144 C-81.34 144 -80.68 144 -80 144 C-79.34 142.35 -78.68 140.7 -78 139 C-77.34 139 -76.68 139 -76 139 C-75.79375 138.443125 -75.5875 137.88625 -75.375 137.3125 C-73.48105476 134.12722845 -70.88323975 132.29482348 -68 130 C-67.443125 129.443125 -66.88625 128.88625 -66.3125 128.3125 C-65 127 -65 127 -62 125 C-63.30771751 121.30990604 -64.8858436 118.63590097 -67.375 115.625 C-70.37188387 111.87113925 -72.76062534 108.24708987 -75 104 C-75.32613281 103.38640625 -75.65226562 102.7728125 -75.98828125 102.140625 C-78.69991723 96.9058065 -80.89631966 91.50316379 -83 86 C-83.50144531 84.80246094 -84.00289062 83.60492188 -84.51953125 82.37109375 C-86.38456005 77.38871058 -86.98379935 72.31961667 -87.625 67.0625 C-87.86358581 65.17792595 -88.10558191 63.29377938 -88.3515625 61.41015625 C-88.45291504 60.58652588 -88.55426758 59.76289551 -88.65869141 58.91430664 C-88.81221082 56.997118 -88.81221082 56.997118 -90 56 C-90.10012401 53.79349344 -90.1308118 51.58377614 -90.1328125 49.375 C-90.13376923 48.71290527 -90.13472595 48.05081055 -90.13571167 47.36865234 C-90.13639326 45.96647039 -90.13454042 44.5642853 -90.13037109 43.16210938 C-90.12502246 41.00904287 -90.1303167 38.85618498 -90.13671875 36.703125 C-90.13605796 35.34374954 -90.13477679 33.9843742 -90.1328125 32.625 C-90.13112061 30.75714844 -90.13112061 30.75714844 -90.12939453 28.8515625 C-90 26 -90 26 -89 25 C-88.76807135 23.48530552 -88.58784762 21.96245438 -88.4375 20.4375 C-88.31181641 19.19806641 -88.31181641 19.19806641 -88.18359375 17.93359375 C-88.09271484 16.97646484 -88.09271484 16.97646484 -88 16 C-86.35 16 -84.7 16 -83 16 C-82.96261719 16.87140625 -82.92523438 17.7428125 -82.88671875 18.640625 C-82.43897925 26.75261127 -81.27122187 34.20070982 -79 42 C-78.54625 41.175 -78.0925 40.35 -77.625 39.5 C-77.08875 38.675 -76.5525 37.85 -76 37 C-75.34 37 -74.68 37 -74 37 C-74.28875 36.03320312 -74.5775 35.06640625 -74.875 34.0703125 C-80.0619381 16.12387619 -80.0619381 16.12387619 -76 8 C-79.96 8 -83.92 8 -88 8 C-87.67 6.35 -87.34 4.7 -87 3 C-84.62082787 1.76283049 -82.49931987 0.88181648 -80 0 C-78.96875 -0.515625 -77.9375 -1.03125 -76.875 -1.5625 C-56.00829499 -10.39961897 -20.70249026 -8.02749622 0 0 Z M-64 8 C-64.50559908 9.43554025 -65.0042749 10.8735202 -65.5 12.3125 C-65.7784375 13.11300781 -66.056875 13.91351563 -66.34375 14.73828125 C-67.13933107 17.08769422 -67.13933107 17.08769422 -67 20 C-66.34 20 -65.68 20 -65 20 C-65.144375 20.67546875 -65.28875 21.3509375 -65.4375 22.046875 C-65.623125 22.93890625 -65.80875 23.8309375 -66 24.75 C-66.185625 25.63171875 -66.37125 26.5134375 -66.5625 27.421875 C-67.11153675 30.22143965 -67.11153675 30.22143965 -67 34 C-66.113125 34.185625 -65.22625 34.37125 -64.3125 34.5625 C-59.95788469 36.45223872 -58.03252867 38.8462753 -56 43 C-51.47406374 55.52985709 -50.81975578 67.48922968 -50.8125 80.6875 C-50.80025391 81.87150391 -50.78800781 83.05550781 -50.77539062 84.27539062 C-50.76542355 90.20580322 -50.78915176 95.45348599 -53 101 C-53.99 101.99 -53.99 101.99 -55 103 C-54.01 103.33 -53.02 103.66 -52 104 C-51.32707965 105.66415156 -50.66119449 107.33115487 -50 109 C-45.85239418 113.63073353 -41.53104378 116.35435884 -35.3125 117 C-31.43399973 117.12528863 -27.78866336 116.92156676 -24 116 C-24 115.67 -24 115.34 -24 115 C-24.73605469 114.81824219 -25.47210938 114.63648438 -26.23046875 114.44921875 C-35.21174295 112.13568048 -40.07637733 109.94187081 -45 102 C-46.875 98.75 -46.875 98.75 -48 96 C-47 93 -47 93 -45.15234375 92.05078125 C-44.42144531 91.80714844 -43.69054687 91.56351562 -42.9375 91.3125 C-42.20402344 91.06113281 -41.47054687 90.80976562 -40.71484375 90.55078125 C-40.14894531 90.36902344 -39.58304688 90.18726562 -39 90 C-39 89.34 -39 88.68 -39 88 C-34.05 87.01 -34.05 87.01 -29 86 C-29.66 85.01 -30.32 84.02 -31 83 C-31.25 80.4375 -31.25 80.4375 -31 78 C-30.34 77.34 -29.68 76.68 -29 76 C-27 76.0625 -27 76.0625 -25 77 C-23.75 79.5625 -23.75 79.5625 -23 82 C-17.84149925 81.1814925 -13.47360668 79.09656561 -8.7421875 76.9609375 C-6 76 -6 76 -3 77 C-2.97299325 79.91672884 -2.95315763 82.83320677 -2.9375 85.75 C-2.92912109 86.575 -2.92074219 87.4 -2.91210938 88.25 C-2.90888672 89.04921875 -2.90566406 89.8484375 -2.90234375 90.671875 C-2.89710693 91.4050293 -2.89187012 92.13818359 -2.88647461 92.89355469 C-3.0024891 95.0461849 -3.40926729 96.9314135 -4 99 C-2.515 98.505 -2.515 98.505 -1 98 C-0.835 97.34 -0.67 96.68 -0.5 96 C-0.335 95.34 -0.17 94.68 0 94 C0.99 93.67 1.98 93.34 3 93 C4.20882096 90.99983534 4.20882096 90.99983534 5 89 C3.35 88.67 1.7 88.34 0 88 C0 85.03 0 82.06 0 79 C1.98 79.66 3.96 80.32 6 81 C6.33 82.65 6.66 84.3 7 86 C11.62392624 80.65026196 11.62392624 80.65026196 13 74 C13.66 74 14.32 74 15 74 C15 73.34 15 72.68 15 72 C13.97519531 72.05800781 12.95039063 72.11601563 11.89453125 72.17578125 C10.53389989 72.22269957 9.17321904 72.26819752 7.8125 72.3125 C7.13896484 72.35439453 6.46542969 72.39628906 5.77148438 72.43945312 C1.7659708 72.53714858 0.25310186 72.22203775 -2.80078125 69.54296875 C-3.52652344 68.70378906 -4.25226563 67.86460938 -5 67 C-5.99 66.67 -6.98 66.34 -8 66 C-9 63.875 -9 63.875 -10 61 C-10.495 59.845 -10.99 58.69 -11.5 57.5 C-11.995 56.345 -12.49 55.19 -13 54 C-13.35449219 53.22527344 -13.70898438 52.45054688 -14.07421875 51.65234375 C-16.13573907 45.74613152 -15.8704743 39.10364622 -13.5 33.375 C-13.005 32.59125 -12.51 31.8075 -12 31 C-12 30.34 -12 29.68 -12 29 C-9.33333333 27.66666667 -6.66666667 26.33333333 -4 25 C-4.5775 24.814375 -5.155 24.62875 -5.75 24.4375 C-9.53137756 22.02161989 -11.43705749 18.043804 -12.61328125 13.7734375 C-12.74089844 13.18820313 -12.86851562 12.60296875 -13 12 C-14.14339844 11.86722656 -15.28679687 11.73445313 -16.46484375 11.59765625 C-17.9557562 11.4194969 -19.44664018 11.24109918 -20.9375 11.0625 C-21.69224609 10.97548828 -22.44699219 10.88847656 -23.22460938 10.79882812 C-28.88671875 10.11328125 -28.88671875 10.11328125 -30 9 C-37.46685593 7.72582291 -45.07831701 7.87789679 -52.625 7.9375 C-53.72457031 7.94201172 -54.82414062 7.94652344 -55.95703125 7.95117188 C-58.63808003 7.96282861 -61.31900932 7.97918983 -64 8 Z M-5 99 C-4 101 -4 101 -4 101 Z M4 195 C5 199 5 199 5 199 Z M6 200 C6 201.65 6 203.3 6 205 C6.33 205 6.66 205 7 205 C7 203.35 7 201.7 7 200 C6.67 200 6.34 200 6 200 Z M7 206 C7 207.65 7 209.3 7 211 C7.33 211 7.66 211 8 211 C8 209.35 8 207.7 8 206 C7.67 206 7.34 206 7 206 Z M8 213 C9 216 9 216 9 216 Z " fill="#A0988D" transform="translate(246,35)"/>
<path d="M0 0 C1.12019531 0.41121094 2.24039063 0.82242188 3.39453125 1.24609375 C12.47601394 4.65551194 20.75277894 8.90612817 29 14 C29.80179687 14.48855469 30.60359375 14.97710937 31.4296875 15.48046875 C33.375 16.75 33.375 16.75 36 19 C36 20.32 36 21.64 36 23 C31.32769808 23.18322753 28.2783526 22.73446727 24 21 C22.19630049 20.62193198 20.38257193 20.28914618 18.5625 20 C14.54296403 19.31386953 10.83887964 18.40446816 7 17 C5.67088318 16.65023242 4.33917261 16.30903983 3 16 C3.495 17.98 3.495 17.98 4 20 C4.66 20 5.32 20 6 20 C6.495 23.465 6.495 23.465 7 27 C5.27734375 28.09765625 5.27734375 28.09765625 3 29 C-3.53175149 27.49267273 -8.735812 23.55800972 -12.3125 17.9375 C-13 16 -13 16 -13 12 C-14.14339844 11.93941406 -15.28679687 11.87882812 -16.46484375 11.81640625 C-17.95574305 11.73201572 -19.44662775 11.64736698 -20.9375 11.5625 C-21.69224609 11.52318359 -22.44699219 11.48386719 -23.22460938 11.44335938 C-28.88671875 11.11328125 -28.88671875 11.11328125 -30 10 C-37.44983531 8.79984753 -45.09846817 8.71642979 -52.625 8.4375 C-53.72457031 8.39431641 -54.82414062 8.35113281 -55.95703125 8.30664062 C-58.63792882 8.20173594 -61.31890001 8.09957274 -64 8 C-63.98646484 8.78334717 -63.97292969 9.56669434 -63.95898438 10.3737793 C-64.01807977 14.15764313 -65.39899608 16.59786668 -67 20 C-66.34 20 -65.68 20 -65 20 C-63.83773833 23.48678502 -64.17080314 25.02427932 -65 28.5625 C-65.309375 30.01849609 -65.309375 30.01849609 -65.625 31.50390625 C-67 34 -67 34 -70.625 35.33984375 C-71.73875 35.55769531 -72.8525 35.77554688 -74 36 C-80.27670753 16.55341506 -80.27670753 16.55341506 -76 8 C-79.96 8 -83.92 8 -88 8 C-87.67 6.35 -87.34 4.7 -87 3 C-84.62082787 1.76283049 -82.49931987 0.88181648 -80 0 C-78.96875 -0.515625 -77.9375 -1.03125 -76.875 -1.5625 C-56.00829499 -10.39961897 -20.70249026 -8.02749622 0 0 Z " fill="#9E978C" transform="translate(246,35)"/>
<path d="M0 0 C2.5 1.375 2.5 1.375 4 3 C4 3.66 4 4.32 4 5 C4.66 5 5.32 5 6 5 C9.04360397 11.32972619 8.49262776 18.15545976 8 25 C6.6875 28.6875 6.6875 28.6875 5 32 C4.48983514 34.0132312 4.01356008 36.035208 3.5625 38.0625 C2.3782275 42.91498065 1.45792685 46.3499661 -2 50 C-7.61282027 52.52004175 -13.93436979 52.76173031 -20 52 C-26.10937008 48.49036187 -29.86302333 42.17067838 -33 36 C-33.30292969 35.40445313 -33.60585937 34.80890625 -33.91796875 34.1953125 C-36.77180596 27.73733346 -37.3516445 20.33219391 -35.23828125 13.55859375 C-33.55691354 9.9499666 -31.79712424 6.53937469 -28 5 C-23.19436644 4.96446851 -19.22303832 5.66773111 -15 8 C-15 7.34 -15 6.68 -15 6 C-14.34 6 -13.68 6 -13 6 C-12.731875 5.38125 -12.46375 4.7625 -12.1875 4.125 C-9.45770416 -0.75989781 -5.02422757 -0.67731036 0 0 Z " fill="#C84E46" transform="translate(266,56)"/>
<path d="M0 0 C3.15917315 4.09940325 3.33030649 7.21906843 3.1875 12.3125 C3.16042969 13.56675781 3.13335937 14.82101562 3.10546875 16.11328125 C3.07066406 17.06589844 3.03585938 18.01851563 3 19 C5.97 19.33 8.94 19.66 12 20 C11.94199219 18.66324219 11.88398438 17.32648438 11.82421875 15.94921875 C11.77732379 14.19534735 11.73182335 12.44143827 11.6875 10.6875 C11.64560547 9.80642578 11.60371094 8.92535156 11.56054688 8.01757812 C11.51428725 5.58432207 11.52944941 3.38863996 12 1 C14.3203125 -1.14453125 14.3203125 -1.14453125 17 -2 C20.1875 -1.375 20.1875 -1.375 23 0 C25.12102861 3.18154292 25.27335346 4.12223246 25.38232422 7.79101562 C25.41510468 8.7621228 25.44788513 9.73322998 25.48165894 10.73376465 C25.51780807 12.3041449 25.51780807 12.3041449 25.5546875 13.90625 C25.59796677 15.52061951 25.59796677 15.52061951 25.64212036 17.16760254 C25.69919664 19.44380537 25.75096772 21.72014646 25.79785156 23.99658203 C25.87471255 27.48694661 25.98348952 30.97539492 26.09375 34.46484375 C26.14519124 36.67443436 26.19473442 38.88407014 26.2421875 41.09375 C26.27843231 42.14067017 26.31467712 43.18759033 26.35202026 44.26623535 C26.36588776 45.23734253 26.37975525 46.20844971 26.39404297 47.20898438 C26.4146579 48.06375366 26.43527283 48.91852295 26.45651245 49.79919434 C26 52 26 52 24.16677856 53.77990723 C21.26948661 55.41134527 19.2762239 55.34853446 16 55 C13 53 13 53 12.31860352 51.14550781 C11.99262065 48.95030675 11.88649519 46.89067279 11.90234375 44.671875 C11.90556641 43.87265625 11.90878906 43.0734375 11.91210938 42.25 C11.92048828 41.425 11.92886719 40.6 11.9375 39.75 C11.94201172 38.90953125 11.94652344 38.0690625 11.95117188 37.203125 C11.96292039 35.13538599 11.98085478 33.06768376 12 31 C7.545 31.495 7.545 31.495 3 32 C3.03480469 33.49273437 3.06960937 34.98546875 3.10546875 36.5234375 C3.1336011 38.47394712 3.16090185 40.42446886 3.1875 42.375 C3.22520508 43.85226562 3.22520508 43.85226562 3.26367188 45.359375 C3.27817383 46.77089844 3.27817383 46.77089844 3.29296875 48.2109375 C3.31653442 49.51490479 3.31653442 49.51490479 3.34057617 50.84521484 C3.17199097 51.9118335 3.17199097 51.9118335 3 53 C-0.73255448 55.48836965 -2.58440935 55.54226552 -7 55 C-9.61675703 52.82527845 -10.84614728 51.05096708 -11.34362793 47.65267944 C-11.46398666 44.69108994 -11.44911535 41.75644676 -11.390625 38.79296875 C-11.38213531 37.17217155 -11.38213531 37.17217155 -11.37347412 35.51863098 C-11.35112043 32.07446611 -11.30092391 28.63134935 -11.25 25.1875 C-11.22993379 22.84962442 -11.21168323 20.5117325 -11.1953125 18.17382812 C-11.15125895 12.44886239 -11.08435621 6.72450608 -11 1 C-10.34 1 -9.68 1 -9 1 C-9 0.34 -9 -0.32 -9 -1 C-5.38207398 -2.3399726 -3.34093377 -1.8846293 0 0 Z " fill="#9F988C" transform="translate(196,308)"/>
<path d="M0 0 C11.77361237 2.13103895 23.41592589 4.54518227 35 7.5625 C40.41832897 8.94236778 45.84588388 9.81346614 51.3828125 10.5703125 C54 11 54 11 56 12 C77.59808381 15.4442127 100.19133559 14.62303742 122 15 C122.495 17.475 122.495 17.475 123 20 C99.39224793 32.94447529 66.35591923 32.39619368 41 25 C35.94025452 23.48977385 30.95382104 21.83141263 26 20 C26 19.34 26 18.68 26 18 C25.21625 17.938125 24.4325 17.87625 23.625 17.8125 C18.64711207 16.6967665 14.47546306 14.39693773 10 12 C10 11.34 10 10.68 10 10 C9.113125 9.773125 8.22625 9.54625 7.3125 9.3125 C3.56619468 7.82811487 1.66270566 5.97596515 -1 3 C-0.67 2.01 -0.34 1.02 0 0 Z " fill="#A0988D" transform="translate(139,264)"/>
<path d="M0 0 C7.91934874 9.08816829 7.91180299 19.21404493 7.421875 30.67578125 C6.59897263 38.58739971 3.65868836 44.93152645 -2.453125 50.11328125 C-8.94788828 53.36066289 -17.60551231 53.79018425 -24.578125 51.67578125 C-29.36450583 46.40923801 -29.12248219 41.50489401 -29.00390625 34.625 C-29.00061813 33.5704512 -28.99733002 32.5159024 -28.99394226 31.42939758 C-28.98354849 29.20962311 -28.96364476 26.98987525 -28.93481445 24.77026367 C-28.89055338 21.35775977 -28.87334919 17.94595917 -28.86132812 14.53320312 C-28.84791165 12.37629183 -28.83299078 10.21938926 -28.81640625 8.0625 C-28.80901932 7.03654221 -28.80163239 6.01058441 -28.79402161 4.95353699 C-28.77476875 3.54120537 -28.77476875 3.54120537 -28.75512695 2.1003418 C-28.74528275 1.26794479 -28.73543854 0.43554779 -28.72529602 -0.42207336 C-28.578125 -2.32421875 -28.578125 -2.32421875 -27.578125 -3.32421875 C-18.63524406 -4.71190717 -7.48459313 -6.28038879 0 0 Z M-14.578125 6.67578125 C-14.578125 18.22578125 -14.578125 29.77578125 -14.578125 41.67578125 C-12.928125 41.67578125 -11.278125 41.67578125 -9.578125 41.67578125 C-5.82702144 36.04912591 -5.21471167 30.8758745 -5.265625 24.30078125 C-5.27408447 23.17349609 -5.27408447 23.17349609 -5.28271484 22.0234375 C-5.40051343 16.65835346 -5.67284282 12.32423274 -8.578125 7.67578125 C-11.548125 7.18078125 -11.548125 7.18078125 -14.578125 6.67578125 Z " fill="#9F988C" transform="translate(373.578125,310.32421875)"/>
<path d="M0 0 C3.110855 4.97736799 4.00275946 10.62672771 3.1171875 16.40625 C2.42844635 18.92921757 1.80050807 21.1947436 0.5625 23.5 C-0.4275 23.83 -1.4175 24.16 -2.4375 24.5 C-1.81369308 25.91719242 -1.1883997 27.3337306 -0.5625 28.75 C-0.21445313 29.53890625 0.13359375 30.3278125 0.4921875 31.140625 C1.46663905 33.28868608 2.49236429 35.39829202 3.5625 37.5 C4.2225 37.5 4.8825 37.5 5.5625 37.5 C6.7845897 39.9441794 6.79891068 41.71029872 6.875 44.4375 C6.93107422 45.75041016 6.93107422 45.75041016 6.98828125 47.08984375 C6.5625 49.5 6.5625 49.5 4.73046875 51.2890625 C1.76777776 52.94389891 -0.09408924 52.98758074 -3.4375 52.5 C-8.97381712 48.38730729 -10.7894155 41.77458972 -12.7890625 35.453125 C-13.40153589 33.45308683 -13.40153589 33.45308683 -14.4375 31.5 C-14.42589844 32.77617187 -14.41429688 34.05234375 -14.40234375 35.3671875 C-14.39296583 37.03645687 -14.38386563 38.70572783 -14.375 40.375 C-14.36662109 41.21675781 -14.35824219 42.05851562 -14.34960938 42.92578125 C-14.34638672 43.73144531 -14.34316406 44.53710938 -14.33984375 45.3671875 C-14.33460693 46.11081543 -14.32937012 46.85444336 -14.32397461 47.62060547 C-14.4375 49.5 -14.4375 49.5 -15.4375 51.5 C-17.3984375 52.01953125 -17.3984375 52.01953125 -19.8125 52.3125 C-20.60398437 52.42207031 -21.39546875 52.53164063 -22.2109375 52.64453125 C-24.4375 52.5 -24.4375 52.5 -26.05062866 51.25874329 C-27.76717586 49.08192575 -27.82463695 47.96420282 -27.85400391 45.21557617 C-27.87057037 44.35425583 -27.88713684 43.49293549 -27.90420532 42.60551453 C-27.90745819 41.67737442 -27.91071106 40.74923431 -27.9140625 39.79296875 C-27.93743179 38.35574211 -27.93743179 38.35574211 -27.96127319 36.88948059 C-28.00884399 33.8221625 -28.03655047 30.75507075 -28.0625 27.6875 C-28.0990812 24.63080398 -28.13984311 21.57423343 -28.18515015 18.51765442 C-28.21219779 16.61561903 -28.23362555 14.71349313 -28.24868774 12.81132507 C-28.3022441 8.26689256 -28.51827685 3.97210821 -29.4375 -0.5 C-21.22515272 -7.49570324 -8.61745396 -5.30304859 0 0 Z M-15.4375 5.5 C-15.4375 10.45 -15.4375 15.4 -15.4375 20.5 C-14.1175 20.17 -12.7975 19.84 -11.4375 19.5 C-10.17512269 16.97524538 -10.33893596 15.18799534 -10.375 12.375 C-10.38402344 11.46492188 -10.39304687 10.55484375 -10.40234375 9.6171875 C-10.41394531 8.91851562 -10.42554688 8.21984375 -10.4375 7.5 C-12.9125 6.51 -12.9125 6.51 -15.4375 5.5 Z " fill="#9F988C" transform="translate(103.4375,310.5)"/>
<path d="M0 0 C5.76354675 4.94018293 8.45588303 10.35274104 9.1875 17.875 C9.8935012 30.78004526 10.15784707 42.05976237 1.125 52.1875 C-2.7492448 55.56184225 -7.13119321 55.21552688 -12.0234375 55.14453125 C-16.10314593 54.75027371 -18.81477955 53.67755636 -21.8125 50.875 C-26.44456558 45.0969807 -27.93612732 39.90564005 -27.9453125 32.53125 C-27.94660156 31.53222656 -27.94789063 30.53320312 -27.94921875 29.50390625 C-27.94535156 28.47136719 -27.94148438 27.43882812 -27.9375 26.375 C-27.94136719 25.34246094 -27.94523437 24.30992187 -27.94921875 23.24609375 C-27.94792969 22.24707031 -27.94664062 21.24804688 -27.9453125 20.21875 C-27.94418457 19.31318359 -27.94305664 18.40761719 -27.94189453 17.47460938 C-27.81132431 14.85137981 -27.39320158 12.43308562 -26.8125 9.875 C-26.1525 9.875 -25.4925 9.875 -24.8125 9.875 C-24.791875 9.17375 -24.77125 8.4725 -24.75 7.75 C-23.37869691 3.54467051 -20.46509253 1.26468786 -16.8125 -1.125 C-11.45022452 -3.04321237 -5.1831887 -2.07327548 0 0 Z M-11.8125 8.875 C-15.47584952 14.51984465 -15.22907751 19.78897545 -15.125 26.375 C-15.12822266 27.39464844 -15.13144531 28.41429687 -15.13476562 29.46484375 C-15.09770975 34.64592901 -14.892306 39.03592948 -12.8125 43.875 C-10.41530568 44.55458603 -10.41530568 44.55458603 -7.8125 44.875 C-5.52521266 43.03616119 -5.52521266 43.03616119 -5.6875 40.25 C-5.72875 39.46625 -5.77 38.6825 -5.8125 37.875 C-5.1525 37.875 -4.4925 37.875 -3.8125 37.875 C-3.72467458 34.35432649 -3.67183357 30.83393856 -3.625 27.3125 C-3.59986328 26.32185547 -3.57472656 25.33121094 -3.54882812 24.31054688 C-3.48936128 18.34404038 -3.98852808 14.15975584 -6.8125 8.875 C-8.4625 8.875 -10.1125 8.875 -11.8125 8.875 Z " fill="#9E978C" transform="translate(330.8125,308.125)"/>
<path d="M0 0 C4.18509917 3.48758265 6.96634039 7.62923253 8 13 C8.09213114 14.97751674 8.13067133 16.95783942 8.1328125 18.9375 C8.13474609 20.65066406 8.13474609 20.65066406 8.13671875 22.3984375 C8.13285156 23.58695312 8.12898438 24.77546875 8.125 26 C8.13080078 27.78277344 8.13080078 27.78277344 8.13671875 29.6015625 C8.13542969 30.74367188 8.13414062 31.88578125 8.1328125 33.0625 C8.13168457 34.10535156 8.13055664 35.14820313 8.12939453 36.22265625 C8.01617243 38.65287246 7.6999218 40.68129183 7 43 C6.34 43 5.68 43 5 43 C4.95875 43.721875 4.9175 44.44375 4.875 45.1875 C3.63721895 49.16608196 1.32298855 50.60744824 -2 53 C-7.41192567 54.80397522 -13.62552005 54.95989615 -18.9375 52.8125 C-21.31473427 50.72341534 -23.19826971 48.60249931 -25 46 C-25 45.34 -25 44.68 -25 44 C-25.66 44 -26.32 44 -27 44 C-29.41771011 32.01938294 -31.66278761 16.98294227 -25.77734375 5.64453125 C-19.32490005 -3.80184633 -9.93492992 -5.24864222 0 0 Z M-12 8 C-15.85680734 14.03674192 -16.20427644 18.75429603 -16.25 25.75 C-16.270625 26.5234375 -16.29125 27.296875 -16.3125 28.09375 C-16.35020565 33.71189156 -15.41705291 37.90304682 -13 43 C-10.42919865 44.13440778 -10.42919865 44.13440778 -8 44 C-7.51891725 42.58398286 -7.04021859 41.16715563 -6.5625 39.75 C-6.29566406 38.96109375 -6.02882813 38.1721875 -5.75390625 37.359375 C-2.61358592 27.53163676 -3.84668307 18.70395745 -7 9 C-8.65 8.67 -10.3 8.34 -12 8 Z " fill="#9F988C" transform="translate(290,309)"/>
<path d="M0 0 C3.59829715 4.05661685 3.70845106 7.89380281 4.27734375 13.125 C4.75428854 16.09641481 4.75428854 16.09641481 6.95703125 17.8828125 C9.80038559 20.82946269 10.14128033 23.97203269 10.75 27.875 C10.87503906 28.56980469 11.00007813 29.26460937 11.12890625 29.98046875 C11.82203535 34.02499129 12.12850501 37.90069007 12 42 C12.99 42 13.98 42 15 42 C15.33 41.01 15.66 40.02 16 39 C16.66 39.33 17.32 39.66 18 40 C18 41.32 18 42.64 18 44 C18.66 44.33 19.32 44.66 20 45 C20 48.63 20 52.26 20 56 C20.66 56 21.32 56 22 56 C24.08857527 60.17715054 23.38694333 63.81676016 21.98828125 68.09375 C19.56702181 74.20143148 19.56702181 74.20143148 18 77 C16.515 77.495 16.515 77.495 15 78 C15 78.66 15 79.32 15 80 C11.7 80 8.4 80 5 80 C5 79.34 5 78.68 5 78 C4.34 78 3.68 78 3 78 C0.05677568 75.72088783 -0.68782219 73.40743944 -1.625 69.875 C-2.2994741 66.65634118 -2.2994741 66.65634118 -4 64 C-4.41055631 61.06017711 -4.76139291 58.13902048 -5.0625 55.1875 C-5.15120361 54.32471436 -5.23990723 53.46192871 -5.33129883 52.57299805 C-6.23901198 43.26175838 -6.42524203 34.26407319 -5 25 C-6.65 24.67 -8.3 24.34 -10 24 C-10.79953138 20.71303767 -11.09658936 19.28976808 -10 16 C-8.125 15.1875 -8.125 15.1875 -6 15 C-5.01 15.66 -4.02 16.32 -3 17 C-2.67 15.68 -2.34 14.36 -2 13 C-2.66 13 -3.32 13 -4 13 C-4.63019694 4.80743982 -4.63019694 4.80743982 -2 1.4375 C-1.34 0.963125 -0.68 0.48875 0 0 Z " fill="#67598D" transform="translate(234,196)"/>
<path d="M0 0 C2.67292948 2.92351662 3.17846734 5.28037891 3.3125 9.125 C3 13 3 13 1 16 C-0.9453125 16.51171875 -0.9453125 16.51171875 -3.125 16.6875 C-4.40375 16.790625 -5.6825 16.89375 -7 17 C-9 11.375 -9 11.375 -9 8 C-10.98 8 -12.96 8 -15 8 C-13.75892597 12.96429611 -12.23893588 15.13871828 -8 18 C-7.34 18.33 -6.68 18.66 -6 19 C-6 19.66 -6 20.32 -6 21 C-5.4225 21.268125 -4.845 21.53625 -4.25 21.8125 C-0.76487873 23.65186956 1.44527317 24.89054634 3.25 28.5 C4.55881017 34.6077808 4.86759515 40.48854035 2.8125 46.4375 C0.10761899 50.26164212 -2.54978759 52.51659586 -7 54 C-14.49993573 54.66885392 -19.8358333 54.48303033 -26 50 C-26 49.34 -26 48.68 -26 48 C-26.66 48 -27.32 48 -28 48 C-29.86490038 44.27019925 -29.69144885 40.05084655 -29 36 C-26.3125 33.3125 -26.3125 33.3125 -23 32 C-18.71428571 32.28571429 -18.71428571 32.28571429 -17 34 C-16.68076508 36.0572917 -16.48838648 38.11613521 -16.28125 40.1875 C-16.18001957 42.0167533 -16.18001957 42.0167533 -15 43 C-13.33382885 43.04063832 -11.66611905 43.042721 -10 43 C-9.04979584 40.760165 -9.04979584 40.760165 -9 38 C-12.16762327 34.01492556 -16.28450609 31.23322032 -20.42578125 28.33203125 C-20.94527344 27.89246094 -21.46476563 27.45289063 -22 27 C-22 26.34 -22 25.68 -22 25 C-22.99 24.67 -23.98 24.34 -25 24 C-27.94627151 18.76218399 -28.95051598 13.9776894 -28 8 C-26.63772568 4.20613926 -24.76019693 1.5701477 -21.5 -0.875 C-14.30038455 -4.11482695 -6.93343945 -3.87273194 0 0 Z " fill="#9E978C" transform="translate(176,309)"/>
<path d="M0 0 C1.01578125 0.00064453 2.0315625 0.00128906 3.078125 0.00195312 C4.65980469 0.02612305 4.65980469 0.02612305 6.2734375 0.05078125 C7.86671875 0.04594727 7.86671875 0.04594727 9.4921875 0.04101562 C17.38137612 0.09621987 17.38137612 0.09621987 19.6484375 2.36328125 C20.17784926 10.5691636 20.17784926 10.5691636 17.6484375 14.36328125 C15.31548975 14.40569848 12.98141183 14.40421062 10.6484375 14.36328125 C10.3184375 14.03328125 9.9884375 13.70328125 9.6484375 13.36328125 C7.98226635 13.32264293 6.31455655 13.32056025 4.6484375 13.36328125 C4.6484375 15.67328125 4.6484375 17.98328125 4.6484375 20.36328125 C5.41929687 20.40066406 6.19015625 20.43804687 6.984375 20.4765625 C7.98726562 20.54230469 8.99015625 20.60804688 10.0234375 20.67578125 C11.02117187 20.73378906 12.01890625 20.79179687 13.046875 20.8515625 C13.90539062 21.02042969 14.76390625 21.18929688 15.6484375 21.36328125 C17.6484375 24.36328125 17.6484375 24.36328125 17.3359375 27.98828125 C16.6484375 31.36328125 16.6484375 31.36328125 15.6484375 32.36328125 C13.79951804 32.59692006 11.94355719 32.7763176 10.0859375 32.92578125 C9.07402344 33.00957031 8.06210938 33.09335937 7.01953125 33.1796875 C6.23707031 33.24027344 5.45460937 33.30085938 4.6484375 33.36328125 C4.6484375 36.66328125 4.6484375 39.96328125 4.6484375 43.36328125 C9.34099284 43.68246044 9.34099284 43.68246044 12.2109375 42.30078125 C14.6484375 41.36328125 14.6484375 41.36328125 16.8359375 41.48828125 C18.6484375 42.36328125 18.6484375 42.36328125 19.9609375 43.92578125 C21.00770618 47.63705202 20.3314034 50.57592492 19.6484375 54.36328125 C16.49475975 57.516959 5.18654065 56.35486482 0.79296875 56.37890625 C-2.68538588 56.16915622 -4.8818784 55.76546646 -7.55664062 53.47509766 C-10.18084764 48.92556792 -9.92494875 44.8659931 -9.8828125 39.69921875 C-9.8866394 38.6701944 -9.89046631 37.64117004 -9.89440918 36.58096313 C-9.89712616 34.41073628 -9.88978005 32.24047655 -9.87304688 30.0703125 C-9.85159132 26.74275141 -9.87287919 23.41733877 -9.8984375 20.08984375 C-9.89579504 17.98046398 -9.89067177 15.87108554 -9.8828125 13.76171875 C-9.89090942 12.76482025 -9.89900635 11.76792175 -9.90734863 10.74081421 C-9.89473999 9.81620392 -9.88213135 8.89159363 -9.86914062 7.93896484 C-9.86595825 7.12575775 -9.86277588 6.31255066 -9.85949707 5.47470093 C-9.3515625 3.36328125 -9.3515625 3.36328125 -7.47756958 1.60057068 C-4.81866303 0.05314546 -3.06503755 -0.00982554 0 0 Z " fill="#9F988D" transform="translate(123.3515625,306.63671875)"/>
<path d="M0 0 C1.9375 0.8125 1.9375 0.8125 3.9375 2.8125 C3.9375 4.1325 3.9375 5.4525 3.9375 6.8125 C4.55496094 6.55855469 5.17242187 6.30460937 5.80859375 6.04296875 C11.456987 3.747503 17.12873517 1.66456994 22.9375 -0.1875 C25.96682678 2.84182678 25.36484593 6.31134141 25.375 10.375 C25.3642216 17.67341455 24.80214136 23.05888864 19.9375 28.8125 C19.17566406 29.77542969 19.17566406 29.77542969 18.3984375 30.7578125 C13.67637492 36.1064995 7.76041218 39.42123726 0.578125 40.00390625 C-5.87715214 39.63662324 -11.24815833 36.94848072 -15.56640625 32.13671875 C-16.84814099 30.41115944 -17.97270255 28.66433627 -19.0625 26.8125 C-19.701875 25.760625 -20.34125 24.70875 -21 23.625 C-22.0625 20.8125 -22.0625 20.8125 -21.5625 18.5625 C-19.61382939 16.28905095 -17.91578776 15.64760861 -15.0625 14.8125 C-14.0725 14.8125 -13.0825 14.8125 -12.0625 14.8125 C-12.0625 14.1525 -12.0625 13.4925 -12.0625 12.8125 C-9.0925 11.8225 -6.1225 10.8325 -3.0625 9.8125 C-3.7225 9.1525 -4.3825 8.4925 -5.0625 7.8125 C-5.43521546 4.90531944 -5.45528138 3.40167207 -3.8125 0.9375 C-2.0625 -0.1875 -2.0625 -0.1875 0 0 Z " fill="#F0A768" transform="translate(219.0625,110.1875)"/>
<path d="M0 0 C5.79805202 4.23651576 7.3347283 10.35001503 9 17 C9.37125 17.99 9.7425 18.98 10.125 20 C12.61350126 28.53200433 12.211106 37.81550814 12.25 46.625 C12.270625 47.800625 12.29125 48.97625 12.3125 50.1875 C12.34252614 56.86831654 11.847777 61.92973849 9 68 C7.68 68 6.36 68 5 68 C3.18359375 66.05859375 3.18359375 66.05859375 1.4375 63.4375 C0.85871094 62.59058594 0.27992188 61.74367187 -0.31640625 60.87109375 C-4.72282949 53.35665968 -5.93215132 46.45396772 -7.125 37.875 C-7.46013144 35.55977901 -7.79603952 33.24467028 -8.1328125 30.9296875 C-8.27605957 29.91116699 -8.41930664 28.89264648 -8.56689453 27.84326172 C-8.96829803 25.20811789 -9.45388396 22.60855646 -10 20 C-10.66 20.33 -11.32 20.66 -12 21 C-12 24.3 -12 27.6 -12 31 C-12.99 30.67 -13.98 30.34 -15 30 C-17.36760708 22.52334605 -19.1415293 12.51818199 -15.68359375 5.22265625 C-11.97400461 0.32531004 -5.84021407 -1.0618571 0 0 Z " fill="#F28F42" transform="translate(184,69)"/>
<path d="M0 0 C0.433125 0.598125 0.86625 1.19625 1.3125 1.8125 C1.828125 2.49828125 2.34375 3.1840625 2.875 3.890625 C4.80679048 7.81719913 4.7175211 11.06351694 4.625 15.375 C4.62983398 16.50711914 4.62983398 16.50711914 4.63476562 17.66210938 C4.59685874 21.57341082 4.3502753 24.45335478 2.3125 27.8125 C1.67303252 33.56770736 3.74385942 37.58014972 6.21484375 42.671875 C8.35710912 47.29206023 8.35710912 47.29206023 8.125 50 C7.24148848 51.97091032 6.33261508 53.90828519 5.3125 55.8125 C2.6725 55.8125 0.0325 55.8125 -2.6875 55.8125 C-2.94144531 55.17183594 -3.19539063 54.53117187 -3.45703125 53.87109375 C-3.80121094 53.00613281 -4.14539063 52.14117187 -4.5 51.25 C-4.86222656 50.33863281 -5.22445312 49.42726562 -5.59765625 48.48828125 C-6.49786879 46.27808199 -7.44886771 44.10870679 -8.4375 41.9375 C-9.6875 38.8125 -9.6875 38.8125 -9.6875 34.8125 C-11.6675 34.4825 -13.6475 34.1525 -15.6875 33.8125 C-15.6875 33.1525 -15.6875 32.4925 -15.6875 31.8125 C-16.28175781 31.55339844 -16.87601563 31.29429687 -17.48828125 31.02734375 C-19.84688107 29.72445824 -21.15432588 28.43184696 -22.875 26.375 C-23.38417969 25.77816406 -23.89335937 25.18132812 -24.41796875 24.56640625 C-27.35524873 20.50844099 -27.33821042 15.61908094 -26.6875 10.8125 C-24.8125 8.25 -24.8125 8.25 -22.6875 6.8125 C-22.0275 6.8125 -21.3675 6.8125 -20.6875 6.8125 C-20.419375 6.02875 -20.15125 5.245 -19.875 4.4375 C-18.6875 1.8125 -18.6875 1.8125 -15.6875 -0.1875 C-3.1801522 -2.23788488 -3.1801522 -2.23788488 0 0 Z " fill="#577941" transform="translate(214.6875,176.1875)"/>
<path d="M0 0 C2.97 0 5.94 0 9 0 C12.05767027 6.11534053 12.4276797 12.26404477 12 19 C10.23395507 23.90568036 7.32958709 28.04273739 3 31 C-0.86596057 32.18614699 -4.12145939 32.29284687 -8 31 C-8 32.65 -8 34.3 -8 36 C-7.030625 35.979375 -6.06125 35.95875 -5.0625 35.9375 C-2 36 -2 36 -1 37 C-0.8125 39.9375 -0.8125 39.9375 -1 43 C-3 45 -3 45 -5.5 45.3125 C-6.325 45.209375 -7.15 45.10625 -8 45 C-8.66 44.01 -9.32 43.02 -10 42 C-10.55945313 42.32355469 -11.11890625 42.64710938 -11.6953125 42.98046875 C-16.76076665 45.2212883 -22.38429365 44.48187733 -27.5625 42.9375 C-30 41 -30 41 -30.875 37.3125 C-30.91625 36.219375 -30.9575 35.12625 -31 34 C-28.69 33.01 -26.38 32.02 -24 31 C-23.82164485 26.45194365 -24.00214565 23.1205746 -26 19 C-25 18 -25 18 -22.3125 17.75 C-18.55540877 18.03355406 -16.29599433 19.24828274 -13 21 C-12.76925781 20.04738281 -12.53851563 19.09476563 -12.30078125 18.11328125 C-11.97464844 16.85902344 -11.64851563 15.60476562 -11.3125 14.3125 C-10.99925781 13.07113281 -10.68601563 11.82976562 -10.36328125 10.55078125 C-8.8407008 6.58509177 -7.32984676 4.6109593 -4 2 C-2.68 2 -1.36 2 0 2 C0 1.34 0 0.68 0 0 Z " fill="#B86964" transform="translate(184,221)"/>
<path d="M0 0 C1.00804687 -0.00515625 2.01609375 -0.0103125 3.0546875 -0.015625 C4.09625 -0.00015625 5.1378125 0.0153125 6.2109375 0.03125 C7.78488281 0.00804687 7.78488281 0.00804687 9.390625 -0.015625 C10.89882813 -0.00789063 10.89882813 -0.00789063 12.4375 0 C13.35354004 0.00451172 14.26958008 0.00902344 15.21337891 0.01367188 C17.5859375 0.53125 17.5859375 0.53125 19.41552734 2.37695312 C21.09218103 5.46305912 20.55299286 7.21563163 19.5859375 10.53125 C18.3984375 12.90625 18.3984375 12.90625 16.5859375 14.53125 C11.89668157 15.17069399 8.00764237 13.94619556 3.5859375 12.53125 C3.5859375 15.50125 3.5859375 18.47125 3.5859375 21.53125 C4.44058594 21.51964844 5.29523437 21.50804687 6.17578125 21.49609375 C7.28050781 21.48707031 8.38523437 21.47804688 9.5234375 21.46875 C10.62558594 21.45714844 11.72773437 21.44554687 12.86328125 21.43359375 C15.5859375 21.53125 15.5859375 21.53125 16.5859375 22.53125 C16.72850939 25.86743231 16.62821907 29.19100606 16.5859375 32.53125 C12.2959375 32.53125 8.0059375 32.53125 3.5859375 32.53125 C3.69292969 34.01238281 3.79992188 35.49351562 3.91015625 37.01953125 C4.03207706 38.96088574 4.15312556 40.90229514 4.2734375 42.84375 C4.34626953 43.82021484 4.41910156 44.79667969 4.49414062 45.80273438 C4.54892578 46.74052734 4.60371094 47.67832031 4.66015625 48.64453125 C4.71776123 49.50860596 4.77536621 50.37268066 4.8347168 51.26293945 C4.5859375 53.53125 4.5859375 53.53125 3.30004883 55.31323242 C0.4546008 57.3351581 -2.05103285 56.89157461 -5.4140625 56.53125 C-7.51764631 54.98862187 -8.25460409 53.85016683 -9.4140625 51.53125 C-9.55704037 50.04241075 -9.64280252 48.54786543 -9.69873047 47.05322266 C-9.73481415 46.12530914 -9.77089783 45.19739563 -9.80807495 44.24136353 C-9.94474442 40.00095634 -10.0767828 35.76059887 -10.19140625 31.51953125 C-10.25641634 29.28058359 -10.33223333 27.04192317 -10.41894531 24.80371094 C-10.54347043 21.5803166 -10.63476476 18.35748734 -10.71875 15.1328125 C-10.76329315 14.13166412 -10.8078363 13.13051575 -10.85372925 12.09902954 C-10.980275 5.21397599 -10.980275 5.21397599 -8.23339844 1.90185547 C-5.22241417 0.43808116 -3.33028108 0.01636215 0 0 Z " fill="#9E978C" transform="translate(50.4140625,306.46875)"/>
<path d="M0 0 C1.50240234 -0.0299707 1.50240234 -0.0299707 3.03515625 -0.06054688 C3.99550781 -0.05990234 4.95585937 -0.05925781 5.9453125 -0.05859375 C6.81945801 -0.06044678 7.69360352 -0.0622998 8.59423828 -0.06420898 C10.875 0.4375 10.875 0.4375 12.67407227 2.33911133 C14.73041759 5.93217661 13.70744802 8.46736331 12.875 12.4375 C10.875 14.4375 10.875 14.4375 8.1875 14.6875 C4.45868883 14.40608029 1.42852833 13.57462906 -2.125 12.4375 C-2.455 15.4075 -2.785 18.3775 -3.125 21.4375 C-2.27035156 21.42589844 -1.41570312 21.41429687 -0.53515625 21.40234375 C0.56957031 21.39332031 1.67429688 21.38429688 2.8125 21.375 C3.91464844 21.36339844 5.01679688 21.35179687 6.15234375 21.33984375 C8.875 21.4375 8.875 21.4375 9.875 22.4375 C9.94705511 24.12358966 9.95886068 25.81250659 9.9375 27.5 C9.92847656 28.41910156 9.91945312 29.33820313 9.91015625 30.28515625 C9.89855469 30.99542969 9.88695312 31.70570313 9.875 32.4375 C5.62669592 33.61654475 0.9402838 34.4701419 -3.125 32.4375 C-3.07899658 33.05794189 -3.03299316 33.67838379 -2.9855957 34.31762695 C-2.78648492 37.12753515 -2.61173209 39.9384442 -2.4375 42.75 C-2.36466797 43.72646484 -2.29183594 44.70292969 -2.21679688 45.70898438 C-2.16201172 46.64677734 -2.10722656 47.58457031 -2.05078125 48.55078125 C-1.99317627 49.41485596 -1.93557129 50.27893066 -1.8762207 51.16918945 C-2.125 53.4375 -2.125 53.4375 -3.41088867 55.21557617 C-6.28773185 57.26636668 -8.72799236 56.86212596 -12.125 56.4375 C-14.94761157 53.57132811 -15.50637256 51.44298923 -15.55737305 47.48535156 C-15.57716721 46.50463684 -15.59696136 45.52392212 -15.61735535 44.51348877 C-15.62374527 43.46231873 -15.63013519 42.41114868 -15.63671875 41.328125 C-15.65466995 40.24617859 -15.67262115 39.16423218 -15.69111633 38.04949951 C-15.74527636 34.59553926 -15.77913403 31.14171765 -15.8125 27.6875 C-15.84566796 25.34503277 -15.88015713 23.00258384 -15.91601562 20.66015625 C-16.00100611 14.91939516 -16.06933199 9.17861625 -16.125 3.4375 C-10.70730623 -0.23084416 -6.36468921 -0.0454031 0 0 Z " fill="#9E988C" transform="translate(244.125,306.5625)"/>
<path d="M0 0 C3.78099386 0.3911373 5.59391036 2.1642515 8 5 C8 5.66 8 6.32 8 7 C8.66 7 9.32 7 10 7 C10.36256858 8.4562672 10.71479793 9.91511185 11.0625 11.375 C11.35833984 12.59316406 11.35833984 12.59316406 11.66015625 13.8359375 C12 16 12 16 11 18 C9.35 18 7.7 18 6 18 C6.04640625 18.61488281 6.0928125 19.22976562 6.140625 19.86328125 C6.43711729 26.50259067 6.43711729 26.50259067 4.1875 29.0625 C2 30 2 30 -1 30 C-2.32 32.64 -3.64 35.28 -5 38 C-6.65 38 -8.3 38 -10 38 C-10 37.34 -10 36.68 -10 36 C-10.94875 35.71125 -11.8975 35.4225 -12.875 35.125 C-16 34 -16 34 -18 32 C-18.22015509 28.77105873 -17.98972902 25.94065654 -17.4375 22.75 C-16.73389607 20.04705178 -16.73389607 20.04705178 -18 18 C-18.46206569 11.64659672 -18.46206569 11.64659672 -16.77734375 9.2890625 C-14.47808041 7.62146491 -13.12167454 7.69036198 -10.3125 7.8125 C-9.50425781 7.83957031 -8.69601563 7.86664063 -7.86328125 7.89453125 C-7.24839844 7.92933594 -6.63351563 7.96414062 -6 8 C-6 8.66 -6 9.32 -6 10 C-3.03 10.495 -3.03 10.495 0 11 C-0.33 10.01 -0.66 9.02 -1 8 C-1.125 4.375 -1.125 4.375 -1 1 C-0.67 0.67 -0.34 0.34 0 0 Z M2 13 C3 15 3 15 3 15 Z M4 16 C4 16.66 4 17.32 4 18 C4.66 17.67 5.32 17.34 6 17 C5.34 16.67 4.68 16.34 4 16 Z " fill="#D3BA8E" transform="translate(213,234)"/>
<path d="M0 0 C1.671875 1.1875 1.671875 1.1875 3 3 C3.20633188 5.81557038 2.99632777 8.49373109 2.8125 11.30859375 C3.03449657 14.49516956 3.99866206 15.59214029 6 18 C6 21.67203256 5.10662141 22.88215528 2.625 25.625 C1.75875 26.40875 0.8925 27.1925 0 28 C-0.515625 28.61875 -1.03125 29.2375 -1.5625 29.875 C-3 31 -3 31 -5 31 C-7 30 -7 30 -8.25 27.5 C-9.70530345 24.85866179 -9.70530345 24.85866179 -11.96484375 24.44921875 C-13.96828641 24.2133125 -15.98515131 24.09909092 -18 24 C-18 23.34 -18 22.68 -18 22 C-18.66 22 -19.32 22 -20 22 C-20.68829114 13.39636076 -20.68829114 13.39636076 -18.125 9.4375 C-17.42375 8.633125 -16.7225 7.82875 -16 7 C-15.34 7 -14.68 7 -14 7 C-13.67 6.01 -13.34 5.02 -13 4 C-8.60321799 0.98260058 -5.48088681 -0.87195927 0 0 Z " fill="#A28354" transform="translate(217,76)"/>
<path d="M0 0 C1.32 0.66 2.64 1.32 4 2 C4.96802759 21.94136838 4.96802759 21.94136838 -1 29 C-1.76183594 29.96292969 -1.76183594 29.96292969 -2.5390625 30.9453125 C-7.26112508 36.2939995 -13.17708782 39.60873726 -20.359375 40.19140625 C-26.81465214 39.82412324 -32.18565833 37.13598072 -36.50390625 32.32421875 C-39.11552124 28.80828334 -41.34065057 25.05618749 -43 21 C-42.505 19.515 -42.505 19.515 -42 18 C-39.625 17.8125 -39.625 17.8125 -37 18 C-35 21 -35 21 -35 25 C-34.34 25 -33.68 25 -33 25 C-32.20881107 26.15295933 -31.44199785 27.32270304 -30.6875 28.5 C-28.47972295 31.18749157 -27.38793268 31.92359649 -23.92578125 32.60546875 C-18.97295524 32.7240655 -15.07645191 32.46133653 -10.5 30.5 C-4.70589827 24.70589827 -2.04242041 19.15794 -1.875 11 C-1.91030368 7.89327655 -2.24352589 5.02589642 -3 2 C-2.01 1.34 -1.02 0.68 0 0 Z " fill="#E07836" transform="translate(240,110)"/>
<path d="M0 0 C3.05448544 0.17967561 4.62545344 0.61085596 7.1875 2.1875 C7.1875 3.1775 7.1875 4.1675 7.1875 5.1875 C8.1775 5.5175 9.1675 5.8475 10.1875 6.1875 C13.06511023 11.79126729 12.36593628 18.06118781 12.1875 24.1875 C7.59864832 26.84142113 3.36241538 26.69276733 -1.8125 26.1875 C-5.375 25.125 -5.375 25.125 -7.8125 23.1875 C-8.6875 19.5 -8.6875 19.5 -8.8125 16.1875 C-6.5025 15.1975 -4.1925 14.2075 -1.8125 13.1875 C-1.63414485 8.63944365 -1.81464565 5.3080746 -3.8125 1.1875 C-2.8125 0.1875 -2.8125 0.1875 0 0 Z " fill="#C85148" transform="translate(161.8125,238.8125)"/>
<path d="M0 0 C3.3 0.66 6.6 1.32 10 2 C10 7.37483542 9.2018931 9.32097716 7 14 C7.66 14 8.32 14 9 14 C10.16226167 17.48678502 9.82919686 19.02427932 9 22.5625 C8.79375 23.53316406 8.5875 24.50382812 8.375 25.50390625 C7 28 7 28 3.375 29.33984375 C2.26125 29.55769531 1.1475 29.77554688 0 30 C-6.2130907 10.75051365 -6.2130907 10.75051365 -3.09375 4.0546875 C-2 2.375 -2 2.375 0 0 Z " fill="#77A68B" transform="translate(172,41)"/>
<path d="M0 0 C1.55104244 2.98277393 2.90160751 6.03185436 4.19921875 9.1328125 C4.73804669 10.38920156 5.30388508 11.63431033 5.89453125 12.8671875 C8.04731463 17.44799597 8.04731463 17.44799597 7.8125 20.1875 C6.92898848 22.15841032 6.02011508 24.09578519 5 26 C2.36 26 -0.28 26 -3 26 C-3.25394531 25.35933594 -3.50789062 24.71867187 -3.76953125 24.05859375 C-4.28580078 22.76115234 -4.28580078 22.76115234 -4.8125 21.4375 C-5.17472656 20.52613281 -5.53695312 19.61476562 -5.91015625 18.67578125 C-6.81036879 16.46558199 -7.76136771 14.29620679 -8.75 12.125 C-10 9 -10 9 -10 5 C-8.27473958 4.28385417 -6.54947917 3.56770833 -4.82421875 2.8515625 C-2.73466068 1.93193308 -2.73466068 1.93193308 0 0 Z " fill="#D1DEBC" transform="translate(215,206)"/>
<path d="M0 0 C1.19287411 3.87684087 2 6.91621923 2 11 C7.3086849 10.41825155 7.3086849 10.41825155 12 8 C11 16.57142857 11 16.57142857 10 20 C8.68 20 7.36 20 6 20 C6 20.99 6 21.98 6 23 C2.5980513 25.09350689 -0.05272412 25.17942163 -4 25 C-4.12375 24.34 -4.2475 23.68 -4.375 23 C-4.91819939 20.16379249 -4.91819939 20.16379249 -5.58203125 18.09765625 C-6.99651317 13.34317185 -7.08183429 10.68412715 -5 6 C-4.505 4.6078125 -4.505 4.6078125 -4 3.1875 C-3.03214377 1.07031451 -2.50766457 0 0 0 Z " fill="#C85047" transform="translate(182,226)"/>
<path d="M0 0 C0.33 0.66 0.66 1.32 1 2 C-0.98 4.97 -0.98 4.97 -3 8 C-8.77956989 7.05913978 -8.77956989 7.05913978 -11.5625 6.3125 C-14.87668754 5.88760416 -16.21495074 6.09443998 -19 8 C-23.60613848 16.90030742 -21.90383946 25.59979267 -20 35 C-19.01 35.33 -18.02 35.66 -17 36 C-16.29788106 37.65204456 -15.63028587 39.31923769 -15 41 C-14.34 41.33 -13.68 41.66 -13 42 C-13 42.66 -13 43.32 -13 44 C-12.38125 44.309375 -11.7625 44.61875 -11.125 44.9375 C-9.75 45.625 -8.375 46.3125 -7 47 C-1.06957911 47.40206243 2.78657204 46.91951966 8 44 C9.4818964 41.9648239 9.4818964 41.9648239 10 40 C10.66 40 11.32 40 12 40 C12.66 38.02 13.32 36.04 14 34 C15 36 15 36 14.3984375 38.27734375 C11.62600839 45.48354308 11.62600839 45.48354308 8.5 48.0625 C2.72164389 50.22938354 -2.85655529 50.65822622 -9 50 C-15.10937008 46.49036187 -18.86302333 40.17067838 -22 34 C-22.30292969 33.40445313 -22.60585937 32.80890625 -22.91796875 32.1953125 C-25.77180596 25.73733346 -26.3516445 18.33219391 -24.23828125 11.55859375 C-22.55691354 7.9499666 -20.79712424 4.53937469 -17 3 C-12.19436644 2.96446851 -8.22303832 3.66773111 -4 6 C-4 5.34 -4 4.68 -4 4 C-3.34 4 -2.68 4 -2 4 C-1.34 2.68 -0.68 1.36 0 0 Z " fill="#B8665D" transform="translate(255,58)"/>
<path d="M0 0 C4.73731534 -0.3267114 7.15178806 -0.43181699 11.4375 1.75 C13.93662944 3.94435756 14.76793596 4.75110346 15 8 C15.66 8 16.32 8 17 8 C17.33 10.31 17.66 12.62 18 15 C16.27734375 16.09765625 16.27734375 16.09765625 14 17 C8.19060896 15.6593713 3.8282915 12.42646205 0 8 C-0.33 7.67 -0.66 7.34 -1 7 C-0.71269945 4.66055264 -0.38063221 2.3260857 0 0 Z " fill="#648C77" transform="translate(235,47)"/>
<path d="M0 0 C2.74196629 1.73176818 3.75582849 3.00715554 4.53125 6.16015625 C5.41984605 12.37023092 5.41984605 12.37023092 3 16 C-1.06063761 16.52637895 -3.13899831 16.66230899 -6.4375 14.125 C-8 12 -8 12 -8 10 C-8.66 10 -9.32 10 -10 10 C-10.35915493 2.6971831 -10.35915493 2.6971831 -8.9375 -0.0625 C-5.71579596 -1.62138905 -3.37786567 -0.88891202 0 0 Z " fill="#96C75A" transform="translate(166,220)"/>
<path d="M0 0 C0.66 0.33 1.32 0.66 2 1 C3.04358629 9.38182006 3.04358629 9.38182006 0.6875 13.03515625 C-1.14804258 14.768269 -2.69931881 15.95625467 -5 17 C-8.9375 16.875 -8.9375 16.875 -12 16 C-13.41550507 10.72402655 -12.60589799 7.76250323 -10 3 C-6.91467096 -0.29811035 -4.40518177 -0.38305928 0 0 Z " fill="#A3C273" transform="translate(209,60)"/>
<path d="M0 0 C2.68400369 3.1116746 3.57582058 5.59079737 4.25 9.625 C4.42015625 10.58664063 4.5903125 11.54828125 4.765625 12.5390625 C5 15 5 15 4 17 C3.01 17 2.02 17 1 17 C-0.1434356 19.20519723 -1.13225922 21.35544665 -2 23.6875 C-3 26 -3 26 -5 27 C-5.33 26.34 -5.66 25.68 -6 25 C-8.02463255 24.34786708 -8.02463255 24.34786708 -10 24 C-10.79953138 20.71303767 -11.09658936 19.28976808 -10 16 C-8.125 15.1875 -8.125 15.1875 -6 15 C-5.01 15.66 -4.02 16.32 -3 17 C-2.67 15.68 -2.34 14.36 -2 13 C-2.66 13 -3.32 13 -4 13 C-4.63019694 4.80743982 -4.63019694 4.80743982 -2 1.4375 C-1.34 0.963125 -0.68 0.48875 0 0 Z " fill="#4F4E78" transform="translate(234,196)"/>
<path d="M0 0 C0.99 0.99 1.98 1.98 3 3 C-0.3 2.67 -3.6 2.34 -7 2 C-6.67 2.680625 -6.34 3.36125 -6 4.0625 C-4.80995439 7.55825899 -4.72297197 10.32937859 -5 14 C-7.5654594 16.5654594 -9.47686668 16.54046087 -13 17 C-12.67 18.98 -12.34 20.96 -12 23 C-14.64073917 21.06150726 -15.04727965 19.81363761 -15.87109375 16.56640625 C-16.07356876 15.2337766 -16.26195561 13.89894382 -16.4375 12.5625 C-16.55287109 11.89412109 -16.66824219 11.22574219 -16.78710938 10.53710938 C-17.26640995 7.05786993 -17.32438963 5.43767971 -15.19921875 2.5703125 C-12.7374867 0.81255711 -10.97187336 0.39103597 -8 0 C-5.06317146 -1.46841427 -3.13175678 -0.76696084 0 0 Z " fill="#AABD5B" transform="translate(166,238)"/>
<path d="M0 0 C1.9375 2 1.9375 2 3 4 C1.68 4 0.36 4 -1 4 C-1 3.34 -1 2.68 -1 2 C-5.66901651 2.28014099 -9.26972296 2.98808946 -12.84375 6.19140625 C-15.25951731 9.97012336 -14.98471114 14.63503024 -15 19 C-14.34 19 -13.68 19 -13 19 C-12.67 17.35 -12.34 15.7 -12 14 C-11.01 14.33 -10.02 14.66 -9 15 C-9 16.98 -9 18.96 -9 21 C-7.02 21 -5.04 21 -3 21 C-3 21.99 -3 22.98 -3 24 C-4.98 24.33 -6.96 24.66 -9 25 C-9.33 23.35 -9.66 21.7 -10 20 C-10.66 20.33 -11.32 20.66 -12 21 C-12 24.3 -12 27.6 -12 31 C-12.99 30.67 -13.98 30.34 -15 30 C-17.36760708 22.52334605 -19.1415293 12.51818199 -15.68359375 5.22265625 C-11.90518201 0.23445143 -5.94397263 -0.80015016 0 0 Z " fill="#E29554" transform="translate(184,69)"/>
<path d="M0 0 C3.78099386 0.3911373 5.59391036 2.1642515 8 5 C8 5.66 8 6.32 8 7 C8.66 7 9.32 7 10 7 C10.36256858 8.4562672 10.71479793 9.91511185 11.0625 11.375 C11.25972656 12.18710938 11.45695313 12.99921875 11.66015625 13.8359375 C12 16 12 16 11 18 C6.48279689 18.36625971 6.48279689 18.36625971 4.1875 16.625 C3 15 3 15 3 13 C2.34 13 1.68 13 1 13 C-0.99544337 8.88439805 -1.26247139 5.54950416 -1 1 C-0.67 0.67 -0.34 0.34 0 0 Z " fill="#DD9F61" transform="translate(213,234)"/>
<path d="M0 0 C0.66 0 1.32 0 2 0 C3.93605536 5.80816608 3.48540663 11.4643216 1 17 C-1.97167522 22.20716504 -4.42919999 26.37180781 -10 29 C-14.45090781 29.8282069 -18.5532202 29.87191761 -23 29 C-26.13354488 26.83062278 -28.35019534 24.45139135 -30 21 C-29.505 19.515 -29.505 19.515 -29 18 C-28.57589844 18.49371094 -28.15179688 18.98742187 -27.71484375 19.49609375 C-24.73637515 22.74949792 -22.7920922 24.75954344 -18.5 26.0625 C-13.7542837 25.97775507 -9.93309232 25.72892301 -6.26171875 22.4453125 C-1.52841096 17.18106088 -0.92929346 13.27562083 -0.4375 6.25 C-0.35371094 5.07953125 -0.26992187 3.9090625 -0.18359375 2.703125 C-0.09271484 1.36507812 -0.09271484 1.36507812 0 0 Z " fill="#F6AA6A" transform="translate(236,114)"/>
<path d="M0 0 C1.66611905 -0.042721 3.33382885 -0.04063832 5 0 C6.91607895 1.91607895 6.21828453 5.20219091 6.25 7.75 C6.28867188 9.59851563 6.28867188 9.59851563 6.328125 11.484375 C5.97882598 15.22686451 5.42411512 17.13910738 3 20 C1.68 20 0.36 20 -1 20 C-2.4706777 17.0586446 -2.17048999 14.39772595 -2.1875 11.125 C-2.20167969 9.89007813 -2.21585938 8.65515625 -2.23046875 7.3828125 C-2.01765455 4.25913288 -1.65237226 2.59938404 0 0 Z " fill="#DDA368" transform="translate(226,92)"/>
<path d="M0 0 C2.97 0 5.94 0 9 0 C10.88343932 3.76687864 11.22057835 5.02958963 11 9 C10.01 9 9.02 9 8 9 C7.34 10.32 6.68 11.64 6 13 C4.35 13 2.7 13 1 13 C-0.32229189 10.35541621 -0.09677194 8.32238699 -0.0625 5.375 C-0.05347656 4.37210938 -0.04445312 3.36921875 -0.03515625 2.3359375 C-0.02355469 1.56507813 -0.01195312 0.79421875 0 0 Z " fill="#ACB958" transform="translate(184,221)"/>
<path d="M0 0 C3.25323827 1.30129531 4.98570535 3.18391765 7.1875 5.875 C7.5 8.6875 7.5 8.6875 7.1875 10.875 C6.5275 10.875 5.8675 10.875 5.1875 10.875 C5.1875 11.535 5.1875 12.195 5.1875 12.875 C3.2075 12.875 1.2275 12.875 -0.8125 12.875 C-0.8125 12.215 -0.8125 11.555 -0.8125 10.875 C-1.4725 10.875 -2.1325 10.875 -2.8125 10.875 C-4.41975635 7.66048731 -3.86998185 4.43887464 -3.8125 0.875 C-1.8125 -0.125 -1.8125 -0.125 0 0 Z " fill="#658974" transform="translate(178.8125,193.125)"/>
<path d="M0 0 C4.875 0.875 4.875 0.875 6 2 C6.35897436 8.46153846 6.35897436 8.46153846 4 12 C3.34 12 2.68 12 2 12 C2 12.66 2 13.32 2 14 C-2.875 13.125 -2.875 13.125 -4 12 C-3.91062197 10.47480724 -3.75462854 8.95318071 -3.5625 7.4375 C-3.46066406 6.61121094 -3.35882813 5.78492187 -3.25390625 4.93359375 C-3.17011719 4.29550781 -3.08632812 3.65742187 -3 3 C-2.01 2.67 -1.02 2.34 0 2 C0 1.34 0 0.68 0 0 Z " fill="#6A8D77" transform="translate(203,110)"/>
<path d="M0 0 C0.75 3.25 0.75 3.25 1 7 C-0.6875 9.5 -0.6875 9.5 -3 11 C-5.50975325 10.92394687 -6.69046824 10.21003941 -8.75 8.8125 C-10.54267046 6.21312784 -10.20510719 4.07660784 -10 1 C-9.34 1 -8.68 1 -8 1 C-8 0.34 -8 -0.32 -8 -1 C-4.37673261 -2.2077558 -3.35853631 -1.54311128 0 0 Z " fill="#B0665C" transform="translate(199,52)"/>
<path d="M0 0 C1.32 0 2.64 0 4 0 C4.33 3.63 4.66 7.26 5 11 C7.02045442 10.39816251 9.02111039 9.72693904 11 9 C11.33 8.34 11.66 7.68 12 7 C12.99 7 13.98 7 15 7 C16.5955739 10.19114781 16.38584417 13.52740245 16 17 C14.5 20.5 14.5 20.5 13 23 C11.62567543 19.18243176 12.32024961 15.92744671 13 12 C12.34 12.66 11.68 13.32 11 14 C7.375 14.125 7.375 14.125 4 14 C1.75171948 9.50343896 1.83317728 5.92127034 2 1 C1.34 0.67 0.68 0.34 0 0 Z " fill="#B77C50" transform="translate(180,223)"/>
<path d="M0 0 C3.15804837 3.43266127 3.67174423 6.40441927 4 11 C3.875 13.3125 3.875 13.3125 3 15 C0.4375 16.25 0.4375 16.25 -2 17 C-2 15.68 -2 14.36 -2 13 C-2.66 13 -3.32 13 -4 13 C-4.63019694 4.80743982 -4.63019694 4.80743982 -2 1.4375 C-1.34 0.963125 -0.68 0.48875 0 0 Z " fill="#678775" transform="translate(234,196)"/>
<path d="M0 0 C2.46800047 1.15173355 4.04783565 2.04783565 6 4 C6.33333333 9.33333333 6.33333333 9.33333333 5 12 C2.125 12.125 2.125 12.125 -1 12 C-3 10 -3 10 -3.3125 6.5625 C-3 3 -3 3 -1.5 1.0625 C-1.005 0.711875 -0.51 0.36125 0 0 Z " fill="#AD4E48" transform="translate(227,187)"/>
<path d="M0 0 C0.4171331 3.54563138 -0.02328252 5.04323897 -1.75 8.25 C-4 11 -4 11 -6.125 12 C-6.74375 12 -7.3625 12 -8 12 C-8.66 11.34 -9.32 10.68 -10 10 C-9.64731676 6.64950921 -8.74789777 3.87889044 -7 1 C-4.53721199 -0.231394 -2.7204945 -0.07159196 0 0 Z " fill="#96C857" transform="translate(209,62)"/>
<path d="M0 0 C1.25 6.625 1.25 6.625 -1 10 C-3.97 9.505 -3.97 9.505 -7 9 C-8.33078101 2.58805513 -8.33078101 2.58805513 -6.875 0 C-4.28103624 -1.38344734 -2.74857743 -0.81714464 0 0 Z " fill="#B56559" transform="translate(224,57)"/>
<path d="M0 0 C2.4375 0.9375 2.4375 0.9375 3.9375 3.25 C4.4375 5.9375 4.4375 5.9375 3.0625 8.25 C2.52625 8.806875 1.99 9.36375 1.4375 9.9375 C-3.3125 9.0625 -3.3125 9.0625 -5.5625 7.9375 C-5.75 5.0625 -5.75 5.0625 -5.5625 1.9375 C-2.5625 -0.0625 -2.5625 -0.0625 0 0 Z " fill="#B06A61" transform="translate(198.5625,212.0625)"/>
<path d="M0 0 C0.33 0.66 0.66 1.32 1 2 C-0.98 4.97 -0.98 4.97 -3 8 C-8.77956989 7.05913978 -8.77956989 7.05913978 -11.5625 6.3125 C-14.87668754 5.88760416 -16.21495074 6.09443998 -19 8 C-20.33647127 10.91787353 -21.21368106 13.89308126 -22 17 C-22.33 17 -22.66 17 -23 17 C-23.21347063 11.44976357 -23.06084279 8.39057764 -19.4375 4.1875 C-15.64446649 2.33961188 -12.03112139 3.05609306 -8 4 C-6.64601945 4.6236657 -5.30493124 5.27932207 -4 6 C-4 5.34 -4 4.68 -4 4 C-3.34 4 -2.68 4 -2 4 C-1.34 2.68 -0.68 1.36 0 0 Z " fill="#B55B53" transform="translate(255,58)"/>
<path d="M0 0 C2.875 0.9375 2.875 0.9375 5.875 3.9375 C2.575 3.6075 -0.725 3.2775 -4.125 2.9375 C-3.795 3.618125 -3.465 4.29875 -3.125 5 C-1.93495439 8.49575899 -1.84797197 11.26687859 -2.125 14.9375 C-4.6904594 17.5029594 -6.60186668 17.47796087 -10.125 17.9375 C-9.795 19.9175 -9.465 21.8975 -9.125 23.9375 C-10.625 22.8125 -10.625 22.8125 -12.125 20.9375 C-12.3125 17.75 -12.3125 17.75 -12.125 14.9375 C-9.485 14.6075 -6.845 14.2775 -4.125 13.9375 C-3.795 12.2875 -3.465 10.6375 -3.125 8.9375 C-4.445 8.6075 -5.765 8.2775 -7.125 7.9375 C-7.455 6.6175 -7.785 5.2975 -8.125 3.9375 C-3.98604513 -0.0797209 -3.98604513 -0.0797209 0 0 Z " fill="#B28E58" transform="translate(163.125,237.0625)"/>
<path d="M0 0 C2.125 0.9375 2.125 0.9375 4 2 C4.98961713 22.38611291 4.98961713 22.38611291 -1 29 C-1.99 29.66 -2.98 30.32 -4 31 C-3.67 29.35 -3.34 27.7 -3 26 C-2.34 26 -1.68 26 -1 26 C1.45725425 18.13678639 1.6230776 10.17326473 2 2 C0.35 2.66 -1.3 3.32 -3 4 C-2.67 3.01 -2.34 2.02 -2 1 C-1.34 0.67 -0.68 0.34 0 0 Z " fill="#D27F4D" transform="translate(240,110)"/>
<path d="M0 0 C2.375 -0.125 2.375 -0.125 5 0 C7 2 7 2 7.25 5 C7 8 7 8 5 10 C2.4375 10.1875 2.4375 10.1875 0 10 C-1 9 -1 9 -1.125 5.5625 C-1 2 -1 2 0 0 Z " fill="#BC6153" transform="translate(246,114)"/>
<path d="M0 0 C0.33 0 0.66 0 1 0 C1.13277344 1.00160156 1.26554688 2.00320312 1.40234375 3.03515625 C1.58071127 4.37760654 1.7590977 5.72005433 1.9375 7.0625 C2.06801758 8.04766602 2.06801758 8.04766602 2.20117188 9.05273438 C2.77569697 13.37231192 3.37745827 17.68707577 4 22 C4.99 22.33 5.98 22.66 7 23 C7.69658363 24.65438613 8.36096883 26.32254318 9 28 C10.52007842 29.77277259 10.52007842 29.77277259 12 31 C11.505 32.485 11.505 32.485 11 34 C7.42557958 29.9291323 4.42880794 25.8679954 2 21 C1.69835937 20.40574219 1.39671875 19.81148437 1.0859375 19.19921875 C-1.5199881 13.31762031 -1.52838204 7.35074573 -1 1 C-0.67 0.67 -0.34 0.34 0 0 Z " fill="#C06B5F" transform="translate(231,71)"/>
<path d="M0 0 C2.375 -0.1875 2.375 -0.1875 5 0 C7 3 7 3 7 7 C7.66 7 8.32 7 9 7 C9 7.66 9 8.32 9 9 C8.34 9.66 7.68 10.32 7 11 C6.67 11.99 6.34 12.98 6 14 C3.04948346 10.54077371 0.74144483 7.2161296 -1 3 C-0.67 2.01 -0.34 1.02 0 0 Z " fill="#DD7E40" transform="translate(198,128)"/>
<path d="M0 0 C1.9375 0.8125 1.9375 0.8125 3.9375 2.8125 C3.75 5.3125 3.75 5.3125 2.9375 7.8125 C-0.0625 9.8125 -0.0625 9.8125 -2.1875 9.5 C-4.0625 8.8125 -4.0625 8.8125 -5.0625 7.8125 C-5.36482139 4.94044676 -5.43642386 3.37338579 -3.8125 0.9375 C-2.0625 -0.1875 -2.0625 -0.1875 0 0 Z " fill="#4F4C7C" transform="translate(219.0625,110.1875)"/>
<path d="M0 0 C1.32 0 2.64 0 4 0 C4 0.66 4 1.32 4 2 C4.66 2 5.32 2 6 2 C9 8.625 9 8.625 9 12 C6.03 11.505 6.03 11.505 3 11 C3 10.01 3 9.02 3 8 C2.34 8 1.68 8 1 8 C0.67 5.36 0.34 2.72 0 0 Z " fill="#F19146" transform="translate(214,238)"/>
<path d="M0 0 C2.26274788 0.35355436 3.95088852 0.97544426 6 2 C6.125 4.875 6.125 4.875 6 8 C4 10 4 10 1.375 10.125 C0.59125 10.08375 -0.1925 10.0425 -1 10 C-2.38125018 7.23749964 -2.19079306 5.05268901 -2 2 C-1.34 1.34 -0.68 0.68 0 0 Z " fill="#5B577B" transform="translate(176,209)"/>
<path d="M0 0 C0.94875 0.04125 1.8975 0.0825 2.875 0.125 C2.97265625 6.27734375 2.97265625 6.27734375 2.875 8.125 C1.875 9.125 1.875 9.125 -0.5625 9.3125 C-3.125 9.125 -3.125 9.125 -5.125 7.125 C-5.375 4.625 -5.375 4.625 -5.125 2.125 C-3.125 0.125 -3.125 0.125 0 0 Z " fill="#57507A" transform="translate(226.125,66.875)"/>
<path d="M0 0 C0.99 0 1.98 0 3 0 C3 4.62 3 9.24 3 14 C1.35 13.67 -0.3 13.34 -2 13 C-2.16682272 8.07872966 -2.24828052 4.49656104 0 0 Z " fill="#F19044" transform="translate(227,95)"/>
<path d="M0 0 C0.96533241 3.86132964 1.34617564 7.3492109 1.625 11.3125 C1.72039062 12.58738281 1.81578125 13.86226562 1.9140625 15.17578125 C1.99974596 18.9886954 1.64845666 22.25927612 1 26 C0.67 26 0.34 26 0 26 C-0.19335938 25.14535156 -0.38671875 24.29070312 -0.5859375 23.41015625 C-0.97652344 21.75306641 -0.97652344 21.75306641 -1.375 20.0625 C-1.63023437 18.96035156 -1.88546875 17.85820312 -2.1484375 16.72265625 C-2.42945313 15.82417969 -2.71046875 14.92570313 -3 14 C-3.66 13.67 -4.32 13.34 -5 13 C-4.67 12.01 -4.34 11.02 -4 10 C-3.67 10.33 -3.34 10.66 -3 11 C-2.01 7.37 -1.02 3.74 0 0 Z " fill="#BF6C68" transform="translate(174,231)"/>
<path d="M0 0 C1.88391785 3.26545761 2.49287967 6.28111761 3 10 C3.66 8.68 4.32 7.36 5 6 C5.33 6 5.66 6 6 6 C6 8.97 6 11.94 6 15 C6.99 15.33 7.98 15.66 9 16 C8.01 16.33 7.02 16.66 6 17 C5.67 17.66 5.34 18.32 5 19 C4.01 19 3.02 19 2 19 C1.66225668 16.77149723 1.3299813 14.54216533 1 12.3125 C0.814375 11.07113281 0.62875 9.82976562 0.4375 8.55078125 C0.07899589 5.64113629 -0.08942256 2.92299978 0 0 Z " fill="#938A8D" transform="translate(244,219)"/>
<path d="M0 0 C0.66 0 1.32 0 2 0 C4.15550707 4.51931943 4.62249591 8.898669 5.125 13.8125 C5.21136719 14.60076172 5.29773438 15.38902344 5.38671875 16.20117188 C5.59751064 18.13343084 5.79962896 20.06663263 6 22 C3.6870518 19.6870518 3.50419025 18.52095125 2.875 15.375 C2.70742187 14.55773437 2.53984375 13.74046875 2.3671875 12.8984375 C2.24601563 12.27195312 2.12484375 11.64546875 2 11 C0.02 11.99 0.02 11.99 -2 13 C-2 12.01 -2 11.02 -2 10 C-1.34 10.33 -0.68 10.66 0 11 C-0.08378906 10.28972656 -0.16757813 9.57945313 -0.25390625 8.84765625 C-0.35574219 7.92855469 -0.45757812 7.00945312 -0.5625 6.0625 C-0.66691406 5.14597656 -0.77132812 4.22945313 -0.87890625 3.28515625 C-0.91886719 2.53105469 -0.95882812 1.77695313 -1 1 C-0.67 0.67 -0.34 0.34 0 0 Z " fill="#BC9674" transform="translate(172,89)"/>
<path d="M0 0 C-1 3 -1 3 -3 4 C-5.42934328 9.0015891 -6.52085468 13.22296638 -4.9375 18.625 C-4 22 -4 22 -4.94140625 24.2109375 C-5.29074219 24.80132812 -5.64007813 25.39171875 -6 26 C-8.05597932 18.3198128 -9.72652581 8.92903465 -5.69921875 1.6484375 C-4 0 -4 0 0 0 Z " fill="#C35551" transform="translate(182,224)"/>
<path d="M0 0 C0.66 0.33 1.32 0.66 2 1 C2 3.64 2 6.28 2 9 C1.34 9 0.68 9 0 9 C0 6.69 0 4.38 0 2 C-3.46485707 2.62032476 -3.46485707 2.62032476 -7 4 C-8.88746148 6.90983644 -9.08221595 8.38338036 -8.625 11.8125 C-8.41875 12.534375 -8.2125 13.25625 -8 14 C-8.99 14 -9.98 14 -11 14 C-11.17655168 9.49793215 -11.17699288 6.01025005 -9 2 C-5.54337669 -0.30441554 -4.05142119 -0.25860135 0 0 Z " fill="#9DBE6A" transform="translate(209,60)"/>
<path d="M0 0 C3.73246966 3.86117551 4.90759264 7.51938053 6.2734375 12.5625 C7.16940051 15.56831138 8.57346991 18.21486983 10 21 C10 21.99 10 22.98 10 24 C3.64637575 16.9404175 0.45543304 9.41228286 0 0 Z " fill="#CF9363" transform="translate(178,111)"/>
<path d="M0 0 C1.65 0 3.3 0 5 0 C5.79953138 3.28696233 6.09658936 4.71023192 5 8 C3.33388095 8.042721 1.66617115 8.04063832 0 8 C-0.33 7.67 -0.66 7.34 -1 7 C-0.71269945 4.66055264 -0.38063221 2.3260857 0 0 Z " fill="#C3534E" transform="translate(176,258)"/>
<path d="M0 0 C-0.5 1.8125 -0.5 1.8125 -2 4 C-8.09626415 6.88187032 -14.3691859 7.9639353 -21 9 C-21 8.34 -21 7.68 -21 7 C-20.21496094 6.74605469 -19.42992187 6.49210937 -18.62109375 6.23046875 C-11.66132474 3.97151026 -11.66132474 3.97151026 -4.875 1.25 C-2 0 -2 0 0 0 Z " fill="#DDA97C" transform="translate(228,116)"/>
<path d="M0 0 C0.99 0 1.98 0 3 0 C4.99785435 4.1205746 5.17835515 7.45194365 5 12 C6.65 12.33 8.3 12.66 10 13 C9.67 13.66 9.34 14.32 9 15 C7.35 15.33 5.7 15.66 4 16 C2.68 10.72 1.36 5.44 0 0 Z " fill="#8FA98C" transform="translate(168,55)"/>
<path d="M0 0 C2.4375 0.6875 2.4375 0.6875 5 2 C5.8125 4.625 5.8125 4.625 6 7 C-0.52307692 7.36923077 -0.52307692 7.36923077 -2.9375 5.5 C-3.4634375 4.7575 -3.4634375 4.7575 -4 4 C-2.68 2.68 -1.36 1.36 0 0 Z " fill="#A59E92" transform="translate(276,51)"/>
<path d="M0 0 C0.99 0.33 1.98 0.66 3 1 C3 2.98 3 4.96 3 7 C4.98 7 6.96 7 9 7 C9 7.99 9 8.98 9 10 C7.02 10.33 5.04 10.66 3 11 C2.67 9.35 2.34 7.7 2 6 C1.01 6.33 0.02 6.66 -1 7 C-0.67 4.69 -0.34 2.38 0 0 Z " fill="#D8935F" transform="translate(172,83)"/>
<path d="M0 0 C0.66 0.99 1.32 1.98 2 3 C-1.3 2.67 -4.6 2.34 -8 2 C-7.67 5.3 -7.34 8.6 -7 12 C-7.33 11.34 -7.66 10.68 -8 10 C-8.66 10 -9.32 10 -10 10 C-10.35915493 2.6971831 -10.35915493 2.6971831 -8.9375 -0.0625 C-5.76026699 -1.59987081 -3.32611047 -0.8466463 0 0 Z " fill="#9CBB6B" transform="translate(166,220)"/>
<path d="M0 0 C1.65 0 3.3 0 5 0 C5.33 2.31 5.66 4.62 6 7 C4.02 7.33 2.04 7.66 0 8 C-0.98120464 4.94736336 -0.98120464 3.05263664 0 0 Z " fill="#C4534B" transform="translate(193,53)"/>
<path d="M0 0 C0.33 0.66 0.66 1.32 1 2 C1.66 2 2.32 2 3 2 C3.33 4.31 3.66 6.62 4 9 C2.375 10.125 2.375 10.125 0 11 C-3.25 10.125 -3.25 10.125 -6 9 C-5.195625 8.443125 -4.39125 7.88625 -3.5625 7.3125 C-0.75771784 4.78135513 -0.30618405 3.67420866 0 0 Z " fill="#758577" transform="translate(249,53)"/>
<path d="M0 0 C3.96 0 7.92 0 12 0 C11.67 6.6 11.34 13.2 11 20 C10.67 20 10.34 20 10 20 C10 14.06 10 8.12 10 2 C6.37 2 2.74 2 -1 2 C-0.67 1.34 -0.34 0.68 0 0 Z " fill="#928E81" transform="translate(198,337)"/>
<path d="M0 0 C0.66 0.33 1.32 0.66 2 1 C2.484375 2.9609375 2.484375 2.9609375 2.75 5.375 C2.84796875 6.16648438 2.9459375 6.95796875 3.046875 7.7734375 C3 10 3 10 1 13 C-5.125 13.4375 -5.125 13.4375 -8 12 C-8 11.34 -8 10.68 -8 10 C-5.36 10.33 -2.72 10.66 0 11 C0 7.37 0 3.74 0 0 Z " fill="#A3BD74" transform="translate(168,223)"/>
<path d="M0 0 C2.97 0 5.94 0 9 0 C11 4 11 4 11 8 C9.35 7.67 7.7 7.34 6 7 C6.33 5.35 6.66 3.7 7 2 C4.69 2 2.38 2 0 2 C0 1.34 0 0.68 0 0 Z " fill="#ABB06C" transform="translate(184,221)"/>
<path d="M0 0 C1.0625 1.875 1.0625 1.875 2 4 C1.67 4.66 1.34 5.32 1 6 C0.01 6 -0.98 6 -2 6 C-3.1434356 8.20519723 -4.13225922 10.35544665 -5 12.6875 C-6 15 -6 15 -8 16 C-7.67 12.7 -7.34 9.4 -7 6 C-4.69 5.34 -2.38 4.68 0 4 C0 2.68 0 1.36 0 0 Z " fill="#5B6076" transform="translate(237,207)"/>
<path d="M0 0 C1.32 0.66 2.64 1.32 4 2 C4 3.65 4 5.3 4 7 C2.02 7 0.04 7 -2 7 C-2.6875 5.1875 -2.6875 5.1875 -3 3 C-1.5625 1.25 -1.5625 1.25 0 0 Z " fill="#C2514A" transform="translate(229,189)"/>
<path d="M0 0 C2.5 0.125 2.5 0.125 3.5 1.125 C3.86090226 8.58364662 3.86090226 8.58364662 1.5 12.125 C1.5 9.155 1.5 6.185 1.5 3.125 C-1.61332248 3.79368314 -1.61332248 3.79368314 -2.6875 6.1875 C-2.955625 6.826875 -3.22375 7.46625 -3.5 8.125 C-3.54241723 5.79205225 -3.54092937 3.45797433 -3.5 1.125 C-2.5 0.125 -2.5 0.125 0 0 Z " fill="#E4965A" transform="translate(228.5,91.875)"/>
<path d="M0 0 C0.95287489 3.01958327 1.14972335 3.67809479 -0.25 6.6875 C-2 9 -2 9 -5 10 C-7.33299825 10.03954234 -9.66708189 10.04401732 -12 10 C-12 9.67 -12 9.34 -12 9 C-11.13375 8.814375 -10.2675 8.62875 -9.375 8.4375 C-4.96315113 6.55837918 -2.83735927 3.76302258 0 0 Z " fill="#675D7E" transform="translate(253,265)"/>
<path d="M0 0 C2.625 0.375 2.625 0.375 5 1 C6.25 7.625 6.25 7.625 4 11 C2.68 11 1.36 11 0 11 C0.28875 10.443125 0.5775 9.88625 0.875 9.3125 C2.0413253 6.91505355 3.0339881 4.48403061 4 2 C2.02 2 0.04 2 -2 2 C-1.34 1.34 -0.68 0.68 0 0 Z " fill="#A9655F" transform="translate(219,56)"/>
<path d="M0 0 C0.33 0 0.66 0 1 0 C0.67 2.31 0.34 4.62 0 7 C-1.45736087 7.19491452 -2.91594593 7.38069358 -4.375 7.5625 C-5.18710938 7.66691406 -5.99921875 7.77132813 -6.8359375 7.87890625 C-9 8 -9 8 -11 7 C-11 6.34 -11 5.68 -11 5 C-10.113125 5.103125 -9.22625 5.20625 -8.3125 5.3125 C-3.98722024 4.90445474 -2.79114324 3.18987799 0 0 Z " fill="#8E897D" transform="translate(88,355)"/>
<path d="M0 0 C1.4540625 0.0309375 1.4540625 0.0309375 2.9375 0.0625 C1.6175 0.3925 0.2975 0.7225 -1.0625 1.0625 C-0.7325 1.743125 -0.4025 2.42375 -0.0625 3.125 C1.11057315 6.57090238 1.07930493 9.44647422 0.9375 13.0625 C-1.0425 14.0525 -1.0425 14.0525 -3.0625 15.0625 C-2.7325 14.4025 -2.4025 13.7425 -2.0625 13.0625 C-1.80464316 8.50702917 -2.06398538 5.1844364 -4.0625 1.0625 C-3.0625 0.0625 -3.0625 0.0625 0 0 Z " fill="#BF6343" transform="translate(162.0625,238.9375)"/>
<path d="M0 0 C1.485 0.99 1.485 0.99 3 2 C3.29296875 4.6015625 3.29296875 4.6015625 3.1875 7.625 C3.16042969 8.62789062 3.13335937 9.63078125 3.10546875 10.6640625 C3.07066406 11.43492187 3.03585938 12.20578125 3 13 C2.01 13.495 2.01 13.495 1 14 C-0.38226016 11.23547967 -0.09525387 8.9538637 -0.0625 5.875 C-0.05347656 4.77929688 -0.04445312 3.68359375 -0.03515625 2.5546875 C-0.02355469 1.71164063 -0.01195312 0.86859375 0 0 Z " fill="#7B7385" transform="translate(228,229)"/>
<path d="M0 0 C0.99 0.495 0.99 0.495 2 1 C2 1.66 2 2.32 2 3 C3.258125 2.855625 4.51625 2.71125 5.8125 2.5625 C6.52019531 2.48128906 7.22789063 2.40007812 7.95703125 2.31640625 C10.19396393 2.02829265 10.19396393 2.02829265 13 1 C11.125 4.875 11.125 4.875 10 6 C3.6899841 6.46740859 3.6899841 6.46740859 1.0625 4.6875 C0 3 0 3 0 0 Z " fill="#928D82" transform="translate(42,357)"/>
<path d="M0 0 C1.65 0.33 3.3 0.66 5 1 C5 2.65 5 4.3 5 6 C2.69 6 0.38 6 -2 6 C-2 5.01 -2 4.02 -2 3 C-1.34 3 -0.68 3 0 3 C0 2.01 0 1.02 0 0 Z " fill="#BE534A" transform="translate(195,214)"/>
<path d="M0 0 C1.18851563 0.00902344 2.37703125 0.01804688 3.6015625 0.02734375 C4.51679688 0.03894531 5.43203125 0.05054688 6.375 0.0625 C6.375 0.7225 6.375 1.3825 6.375 2.0625 C5.63894531 2.12308594 4.90289062 2.18367187 4.14453125 2.24609375 C3.16871094 2.32988281 2.19289062 2.41367188 1.1875 2.5 C0.22457031 2.58121094 -0.73835937 2.66242188 -1.73046875 2.74609375 C-4.41149602 3.03916151 -6.9912986 3.48953754 -9.625 4.0625 C-9.295 3.0725 -8.965 2.0825 -8.625 1.0625 C-5.74084117 -0.37957941 -3.20778472 -0.03144887 0 0 Z " fill="#8F8B80" transform="translate(204.625,170.9375)"/>
<path d="M0 0 C1.32 0.33 2.64 0.66 4 1 C5.1577506 4.47325181 5.06866652 7.36067448 5 11 C4.01 10.67 3.02 10.34 2 10 C1.34 6.7 0.68 3.4 0 0 Z " fill="#D49661" transform="translate(167,89)"/>
<path d="M0 0 C1.32 0 2.64 0 4 0 C4 3.63 4 7.26 4 11 C3.34 9.68 2.68 8.36 2 7 C1.34 7 0.68 7 0 7 C-0.93423645 3.98968256 -1.04449911 3.13349732 0 0 Z " fill="#A6A096" transform="translate(275,66)"/>
<path d="M0 0 C3.28212246 0.43761633 4.84832931 1.52557871 7 4 C6.67 4.99 6.34 5.98 6 7 C3.0625 6.25 3.0625 6.25 0 5 C-0.9375 2.9375 -0.9375 2.9375 -1 1 C-0.67 0.67 -0.34 0.34 0 0 Z " fill="#E7752B" transform="translate(205,137)"/>
<path d="M0 0 C7.33333333 -0.36666667 7.33333333 -0.36666667 10.5 1.375 C12 3 12 3 12 5 C12.66 5 13.32 5 14 5 C14 5.66 14 6.32 14 7 C12.0625 6.6875 12.0625 6.6875 10 6 C9.67 5.01 9.34 4.02 9 3 C5.7 2.67 2.4 2.34 -1 2 C-0.67 1.34 -0.34 0.68 0 0 Z " fill="#AD5E59" transform="translate(258,56)"/>
<path d="M0 0 C1.32 0 2.64 0 4 0 C4 2.31 4 4.62 4 7 C2.35 7 0.7 7 -1 7 C-0.67 4.69 -0.34 2.38 0 0 Z " fill="#49437D" transform="translate(176,212)"/>
<path d="M0 0 C0.66 0.33 1.32 0.66 2 1 C-1.3 4.63 -4.6 8.26 -8 12 C-8.66 11.01 -9.32 10.02 -10 9 C-9.38125 8.7525 -8.7625 8.505 -8.125 8.25 C-5.58707638 6.75710375 -5.2585312 5.59572059 -4 3 C-1.875 1.25 -1.875 1.25 0 0 Z " fill="#938F82" transform="translate(179,186)"/>
<path d="M0 0 C-1.1446875 0.6496875 -1.1446875 0.6496875 -2.3125 1.3125 C-4.58093768 2.73686785 -6.2199723 4.03260097 -8 6 C-8.33 5.01 -8.66 4.02 -9 3 C-11.01508358 2.26676204 -11.01508358 2.26676204 -13 2 C-11.5882217 1.46605821 -10.17029756 0.94834896 -8.75 0.4375 C-7.96109375 0.14746094 -7.1721875 -0.14257812 -6.359375 -0.44140625 C-3.80896548 -1.04522837 -2.44677771 -0.8473932 0 0 Z " fill="#E6A46D" transform="translate(212,125)"/>
<path d="M0 0 C2.85793316 2.85793316 2.40799941 5.14665584 2.625 9.125 C2.69976562 10.40632813 2.77453125 11.68765625 2.8515625 13.0078125 C2.92503906 14.48894531 2.92503906 14.48894531 3 16 C2.67 16 2.34 16 2 16 C1.67 13.03 1.34 10.06 1 7 C0.34 7 -0.32 7 -1 7 C-1.625 4.625 -1.625 4.625 -2 2 C-1.34 1.34 -0.68 0.68 0 0 Z " fill="#E7934C" transform="translate(191,89)"/>
<path d="M0 0 C4.12989477 4.26311718 4.61271765 7.28758534 5 13 C1.63205848 10.75470565 1.28942735 9.68407814 0 6 C-0.33 5.34 -0.66 4.68 -1 4 C-0.5625 1.875 -0.5625 1.875 0 0 Z " fill="#E29759" transform="translate(187,73)"/>
<path d="M0 0 C3.71599191 -0.20086443 4.77208445 -0.1519437 8 2 C12.17300608 2.23183367 15.94020228 1.98419339 20 1 C19.67 1.66 19.34 2.32 19 3 C13.38841426 4.87052858 7.82714398 4.75605958 2.375 2.5 C1.59125 2.005 0.8075 1.51 0 1 C0 0.67 0 0.34 0 0 Z " fill="#B96962" transform="translate(154,261)"/>
<path d="M0 0 C0.598125 0.226875 1.19625 0.45375 1.8125 0.6875 C0.54296875 2.15234375 -0.7265625 3.6171875 -1.99609375 5.08203125 C-3.39621231 6.79462971 -3.39621231 6.79462971 -4.1875 9.6875 C-4.5175 9.6875 -4.8475 9.6875 -5.1875 9.6875 C-5.5508218 3.26881488 -5.5508218 3.26881488 -3.9375 0.6875 C-2.1875 -0.3125 -2.1875 -0.3125 0 0 Z " fill="#CDB696" transform="translate(200.1875,242.3125)"/>
<path d="M0 0 C0.33 0 0.66 0 1 0 C1.33 4.29 1.66 8.58 2 13 C1.01 13 0.02 13 -1 13 C-1.02686553 11.02090602 -1.04633375 9.04171029 -1.0625 7.0625 C-1.07410156 5.96035156 -1.08570313 4.85820313 -1.09765625 3.72265625 C-1 1 -1 1 0 0 Z " fill="#C1766E" transform="translate(231,71)"/>
<path d="M0 0 C0.66 0 1.32 0 2 0 C3.5121867 3.02437339 3.17263369 5.66241534 3 9 C2 11.4375 2 11.4375 1 13 C0.1276588 10.00519083 -0.10829766 7.36424089 -0.0625 4.25 C-0.05347656 3.45078125 -0.04445312 2.6515625 -0.03515625 1.828125 C-0.02355469 1.22484375 -0.01195312 0.6215625 0 0 Z " fill="#7E747B" transform="translate(254,252)"/>
<path d="M0 0 C0.33 0 0.66 0 1 0 C1.33 4.62 1.66 9.24 2 14 C2.66 14 3.32 14 4 14 C3.67 15.32 3.34 16.64 3 18 C2.34 18 1.68 18 1 18 C0.10395632 11.95170514 -0.11269443 6.1105424 0 0 Z " fill="#786C8F" transform="translate(244,224)"/>
<path d="M0 0 C0.66 0.33 1.32 0.66 2 1 C1 4 1 4 -1 5 C-6.42307692 5.46153846 -6.42307692 5.46153846 -8.875 3.5 C-9.24625 3.005 -9.6175 2.51 -10 2 C-8.72125 2.04125 -7.4425 2.0825 -6.125 2.125 C-3.98128508 2.24212873 -3.98128508 2.24212873 -2 2 C-1.34 1.34 -0.68 0.68 0 0 Z " fill="#8F8B7F" transform="translate(219,358)"/>
<path d="M0 0 C1.485 0.99 1.485 0.99 3 2 C3.29296875 4.6015625 3.29296875 4.6015625 3.1875 7.625 C3.16042969 8.62789062 3.13335937 9.63078125 3.10546875 10.6640625 C3.07066406 11.43492187 3.03585938 12.20578125 3 13 C2.01 13.495 2.01 13.495 1 14 C-0.14806378 4.58997722 -0.14806378 4.58997722 0 0 Z " fill="#655F7C" transform="translate(251,239)"/>
<path d="M0 0 C1.2065625 0.0309375 1.2065625 0.0309375 2.4375 0.0625 C2.4375 1.3825 2.4375 2.7025 2.4375 4.0625 C1.633125 3.876875 0.82875 3.69125 0 3.5 C-1.2684375 3.2834375 -1.2684375 3.2834375 -2.5625 3.0625 C-2.8925 3.3925 -3.2225 3.7225 -3.5625 4.0625 C-5.56208364 4.10330783 -7.56295254 4.10504356 -9.5625 4.0625 C-9.5625 3.7325 -9.5625 3.4025 -9.5625 3.0625 C-8.1084375 2.5984375 -8.1084375 2.5984375 -6.625 2.125 C-0.53780864 0.01311728 -0.53780864 0.01311728 0 0 Z " fill="#879284" transform="translate(174.5625,38.9375)"/>
<path d="M0 0 C-1.875 3.875 -1.875 3.875 -3 5 C-5.33297433 5.04092937 -7.66705225 5.04241723 -10 5 C-7.31217681 1.88778367 -4.19734673 0 0 0 Z " fill="#908B7E" transform="translate(242,358)"/>
<path d="M0 0 C0 0.66 0 1.32 0 2 C-2.97 3.32 -5.94 4.64 -9 6 C-7.57649362 0.30597447 -5.47459746 -0.29592419 0 0 Z " fill="#556941" transform="translate(204,176)"/>
<path d="M0 0 C2.64 0 5.28 0 8 0 C4.25 2 4.25 2 2 2 C2.33 3.98 2.66 5.96 3 8 C1.5 6.8125 1.5 6.8125 0 5 C-0.1875 2.3125 -0.1875 2.3125 0 0 Z " fill="#B88162" transform="translate(151,253)"/>
<path d="M0 0 C0.99 0 1.98 0 3 0 C3.33 0.66 3.66 1.32 4 2 C7.02934491 2.65772428 7.02934491 2.65772428 10 3 C10 3.66 10 4.32 10 5 C4.60158311 5.49076517 4.60158311 5.49076517 1.625 3.0625 C0 1 0 1 0 0 Z " fill="#8C867B" transform="translate(96,358)"/>
<path d="M0 0 C-0.33 0.66 -0.66 1.32 -1 2 C-1.61875 2.144375 -2.2375 2.28875 -2.875 2.4375 C-5.36710392 3.09717457 -6.3329446 4.08288629 -8 6 C-7.75 3.625 -7.75 3.625 -7 1 C-4.12732844 -1.10662581 -3.46720491 -1.15573497 0 0 Z " fill="#8E897F" transform="translate(216,307)"/>
<path d="M0 0 C0.66 0.33 1.32 0.66 2 1 C1.67 1.66 1.34 2.32 1 3 C-0.0209375 2.690625 -0.0209375 2.690625 -1.0625 2.375 C-4.78833331 1.89936171 -7.46992554 2.82330851 -11 4 C-7.98848353 -0.51727471 -5.12265004 -0.21798511 0 0 Z " fill="#9C8461" transform="translate(217,76)"/>
<path d="M0 0 C0.93065133 2.60582371 1.14917407 3.64198224 0.0625 6.25 C-0.4634375 7.11625 -0.4634375 7.11625 -1 8 C-2.32 8 -3.64 8 -5 8 C-3.98379995 4.95139986 -3.22608429 4.13333078 -1 2 C-0.67 1.34 -0.34 0.68 0 0 Z " fill="#979186" transform="translate(143,354)"/>
<path d="M0 0 C1.32 0 2.64 0 4 0 C3 3 3 3 -0.0625 4.6875 C-1.031875 5.120625 -2.00125 5.55375 -3 6 C-1.125 1.125 -1.125 1.125 0 0 Z " fill="#B9685C" transform="translate(178,224)"/>
<path d="M0 0 C2 3 2 3 2 7 C0.35 6.67 -1.3 6.34 -3 6 C-3 5.01 -3 4.02 -3 3 C-2.01 3 -1.02 3 0 3 C0 2.01 0 1.02 0 0 Z " fill="#B2B872" transform="translate(193,222)"/>
<path d="M0 0 C0 0.99 0 1.98 0 3 C-1.98 3.33 -3.96 3.66 -6 4 C-6.33 3.01 -6.66 2.02 -7 1 C-4.50935112 0.31292445 -2.62113708 0 0 0 Z " fill="#F1A869" transform="translate(181,90)"/>
<path d="M0 0 C1.65 0 3.3 0 5 0 C4.67 1.32 4.34 2.64 4 4 C2.68 4 1.36 4 0 4 C0 2.68 0 1.36 0 0 Z " fill="#C45048" transform="translate(218,59)"/>
<path d="M0 0 C0.66 0.66 1.32 1.32 2 2 C-1.4352048 4.29013653 -2.985331 4.17842973 -7 4 C-7 3.34 -7 2.68 -7 2 C-4.69 1.34 -2.38 0.68 0 0 Z " fill="#928C81" transform="translate(197,359)"/>
<path d="M0 0 C0.33 0.99 0.66 1.98 1 3 C0.01 4.485 0.01 4.485 -1 6 C-1.66 6 -2.32 6 -3 6 C-3.33 6.66 -3.66 7.32 -4 8 C-4 4 -4 4 -2 1.75 C-1.01 0.88375 -1.01 0.88375 0 0 Z " fill="#979385" transform="translate(104,329)"/>
<path d="M0 0 C0.66 0.33 1.32 0.66 2 1 C1.01 2.98 0.02 4.96 -1 7 C-2.65 7 -4.3 7 -6 7 C-6 6.34 -6 5.68 -6 5 C-4.34467377 3.98133771 -2.67739862 2.98189187 -1 2 C-0.67 1.34 -0.34 0.68 0 0 Z " fill="#CBBC98" transform="translate(209,265)"/>
<path d="M0 0 C-1.39332574 3.36720387 -2.9789286 4.9859524 -6 7 C-6.33 6.01 -6.66 5.02 -7 4 C-3.375 0 -3.375 0 0 0 Z " fill="#AAB66D" transform="translate(156,239)"/>
<path d="M0 0 C1.875 0.25 1.875 0.25 4 1 C5.25 3.0625 5.25 3.0625 6 5 C5.01 5.495 5.01 5.495 4 6 C4 5.01 4 4.02 4 3 C2.02 3 0.04 3 -2 3 C-1.34 2.01 -0.68 1.02 0 0 Z " fill="#6B678A" transform="translate(217,110)"/>
<path d="M0 0 C0.99 0.33 1.98 0.66 3 1 C1.35 2.98 -0.3 4.96 -2 7 C-2.66 6.67 -3.32 6.34 -4 6 C-2.68 4.02 -1.36 2.04 0 0 Z " fill="#87A992" transform="translate(172,41)"/>
<path d="M0 0 C0 0.66 0 1.32 0 2 C-2.31 2.33 -4.62 2.66 -7 3 C-7.66 2.01 -8.32 1.02 -9 0 C-2.25 -1.125 -2.25 -1.125 0 0 Z " fill="#969082" transform="translate(368,360)"/>
<path d="M0 0 C2 0.3125 2 0.3125 4 1 C4.33 1.66 4.66 2.32 5 3 C3.35 3 1.7 3 0 3 C0 4.65 0 6.3 0 8 C-0.33 8 -0.66 8 -1 8 C-1.04241723 5.66705225 -1.04092937 3.33297433 -1 1 C-0.67 0.67 -0.34 0.34 0 0 Z " fill="#E0A670" transform="translate(213,234)"/>
<path d="M0 0 C1.8125 0.1875 1.8125 0.1875 4 1 C5.8125 3.3125 5.8125 3.3125 7 6 C6.6875 8.3125 6.6875 8.3125 6 10 C4 6.66666667 2 3.33333333 0 0 Z " fill="#9C867D" transform="translate(227,184)"/>
<path d="M0 0 C0.8125 1.6875 0.8125 1.6875 1 4 C-1.4375 6.75 -1.4375 6.75 -4 9 C-3.67 7.35 -3.34 5.7 -3 4 C-2.34 4 -1.68 4 -1 4 C-0.67 2.68 -0.34 1.36 0 0 Z " fill="#D67A42" transform="translate(240,132)"/>
<path d="M0 0 C1.96446905 1.6344795 2.92317791 2.46429394 3.29296875 5.04296875 C3.1953125 7.02864583 3.09765625 9.01432292 3 11 C0.60236815 8.60236815 0.65719414 7.66726502 0.375 4.375 C0.30023438 3.55773437 0.22546875 2.74046875 0.1484375 1.8984375 C0.09945312 1.27195312 0.05046875 0.64546875 0 0 Z " fill="#C2936A" transform="translate(178,111)"/>
<path d="M0 0 C3.375 -0.125 3.375 -0.125 7 0 C7.66 0.66 8.32 1.32 9 2 C8 3 8 3 5.4375 3.0625 C4.2309375 3.0315625 4.2309375 3.0315625 3 3 C3 2.34 3 1.68 3 1 C2.01 0.67 1.02 0.34 0 0 Z " fill="#7F7C71" transform="translate(356,306)"/>
<path d="M0 0 C2.97 0.495 2.97 0.495 6 1 C6 1.99 6 2.98 6 4 C4.35 4 2.7 4 1 4 C0.67 2.68 0.34 1.36 0 0 Z " fill="#B15956" transform="translate(175,262)"/>
<path d="M0 0 C0.33 0 0.66 0 1 0 C1.36923077 7.50769231 1.36923077 7.50769231 -0.5 10 C-0.995 10.33 -1.49 10.66 -2 11 C-1 3.57142857 -1 3.57142857 0 0 Z " fill="#C06E68" transform="translate(194,235)"/>
<path d="M0 0 C0.33 0 0.66 0 1 0 C1 2.31 1 4.62 1 7 C1.99 7.33 2.98 7.66 4 8 C3.01 8.33 2.02 8.66 1 9 C0.34 9.66 -0.32 10.32 -1 11 C-0.67 7.37 -0.34 3.74 0 0 Z " fill="#817A83" transform="translate(249,227)"/>
<path d="M0 0 C3.3125 -0.25 3.3125 -0.25 7 0 C8.9375 2 8.9375 2 10 4 C8.68 4 7.36 4 6 4 C5.67 3.34 5.34 2.68 5 2 C2.47266765 1.34444881 2.47266765 1.34444881 0 1 C0 0.67 0 0.34 0 0 Z " fill="#E09A62" transform="translate(177,69)"/>
</svg>
