<?xml version="1.0" encoding="UTF-8"?>
<svg version="1.1" xmlns="http://www.w3.org/2000/svg" width="620" height="402">
<path d="M0 0 C3.96 0 7.92 0 12 0 C12 2.97 12 5.94 12 9 C14.64 9 17.28 9 20 9 C20 6.03 20 3.06 20 0 C23.96 0 27.92 0 32 0 C32.33 9.24 32.66 18.48 33 28 C35.475 28.99 35.475 28.99 38 30 C37.98839844 30.88042969 37.97679687 31.76085937 37.96484375 32.66796875 C37.95582031 33.82941406 37.94679687 34.99085938 37.9375 36.1875 C37.92589844 37.33605469 37.91429687 38.48460937 37.90234375 39.66796875 C38.01225691 43.41820593 38.31400466 46.62800933 40 50 C43.60509105 49.9192124 47.20847921 49.80636316 50.8125 49.6875 C51.83666016 49.66494141 52.86082031 49.64238281 53.91601562 49.61914062 C54.89892578 49.58369141 55.88183594 49.54824219 56.89453125 49.51171875 C57.80050049 49.48553467 58.70646973 49.45935059 59.63989258 49.43237305 C62.41028603 48.92483536 63.17064193 48.05644607 65 46 C65.66 46 66.32 46 67 46 C66.70351562 45.21367187 66.40703125 44.42734375 66.1015625 43.6171875 C64.74363606 39.15818083 64.05441834 34.72840589 63.375 30.125 C63.17390625 28.80628906 63.17390625 28.80628906 62.96875 27.4609375 C62.64112941 25.30800222 62.31991492 23.15409378 62 21 C60.02 20.67 58.04 20.34 56 20 C56.33 18.68 56.66 17.36 57 16 C58.32 16 59.64 16 61 16 C60.938125 15.21625 60.87625 14.4325 60.8125 13.625 C60.9053125 12.325625 60.9053125 12.325625 61 11 C64 9 64 9 67.1875 9.375 C68.115625 9.58125 69.04375 9.7875 70 10 C70 10.66 70 11.32 70 12 C72.97 12 75.94 12 79 12 C80.42857143 20.57142857 80.42857143 20.57142857 78 24 C76.35 24 74.7 24 73 24 C73.20496094 24.60585937 73.40992188 25.21171875 73.62109375 25.8359375 C75.5720212 31.90341521 76.6077615 37.64303124 77 44 C78.0828125 44.0928125 78.0828125 44.0928125 79.1875 44.1875 C82.97111788 45.28054516 84.51434621 46.97690756 87 50 C87.350625 51.0725 87.70125 52.145 88.0625 53.25 C88.371875 54.1575 88.68125 55.065 89 56 C91.03243548 56.96877057 91.03243548 56.96877057 93 57 C92.34 58.32 91.68 59.64 91 61 C88.625 61.125 88.625 61.125 86 61 C85.34 60.34 84.68 59.68 84 59 C83.566875 59.94875 83.13375 60.8975 82.6875 61.875 C81 65 81 65 78 67 C80.64 67.33 83.28 67.66 86 68 C86.33 69.32 86.66 70.64 87 72 C83.9949417 73.50252915 80.90743067 73.12992759 77.61279297 73.11352539 C76.85172241 73.11367142 76.09065186 73.11381744 75.30651855 73.1139679 C72.78504611 73.11326993 70.26364708 73.10548294 67.7421875 73.09765625 C65.99626709 73.09579166 64.25034616 73.09436795 62.50442505 73.09336853 C57.90454672 73.08954659 53.30469986 73.07971905 48.70483398 73.06866455 C44.0128624 73.05844349 39.32088575 73.05386942 34.62890625 73.04882812 C25.41925699 73.03809651 16.20963111 73.02102394 7 73 C6.4375 71.0625 6.4375 71.0625 6 69 C7.66342837 67.33657163 9.7825709 67.63951903 12.0625 67.4375 C12.98160156 67.35371094 13.90070313 67.26992187 14.84765625 67.18359375 C15.55792969 67.12300781 16.26820313 67.06242187 17 67 C16.360625 66.484375 15.72125 65.96875 15.0625 65.4375 C12.44208319 62.34064377 12.30610183 59.97932377 12 56 C11.505 58.475 11.505 58.475 11 61 C9.35 61 7.7 61 6 61 C4.5393715 58.35261084 4 57.10551666 4 54 C4.66 54 5.32 54 6 54 C6.02685412 51.68756208 6.04632841 49.3750373 6.0625 47.0625 C6.07990234 45.13083984 6.07990234 45.13083984 6.09765625 43.16015625 C6.36532549 40.13701597 6.36532549 40.13701597 5 39 C4.76271186 32.47457627 4.76271186 32.47457627 6 30 C4.02 29.34 2.04 28.68 0 28 C0 18.76 0 9.52 0 0 Z M71 48 C71 48.33 71 48.66 71 49 C72.98 49 74.96 49 77 49 C77 48.67 77 48.34 77 48 C75.02 48 73.04 48 71 48 Z M31 55 C30.34 58.3 29.68 61.6 29 65 C26.69 65.66 24.38 66.32 22 67 C22 67.33 22 67.66 22 68 C38.83 68 55.66 68 73 68 C72.01 67.34 71.02 66.68 70 66 C66.80759551 63.46485526 66.06828621 62.34143104 65.25 58.25 C65.1675 57.1775 65.085 56.105 65 55 C64.690625 55.639375 64.38125 56.27875 64.0625 56.9375 C63 59 63 59 62 60 C59.78312006 60.15873955 57.56144702 60.25133837 55.33984375 60.31640625 C54.67537735 60.33718735 54.01091095 60.35796844 53.3263092 60.37937927 C51.19681457 60.44493658 49.06719332 60.50378785 46.9375 60.5625 C45.49673153 60.60567939 44.05597601 60.64929349 42.61523438 60.69335938 C39.0769596 60.80062393 35.53854131 60.90187371 32 61 C32 59.02 32 57.04 32 55 C31.67 55 31.34 55 31 55 Z " fill="#1A1816" transform="translate(138,183)"/>
<path d="M0 0 C10.05859375 -0.09765625 10.05859375 -0.09765625 13 0 C14 1 14 1 14.12025452 3.58790588 C14.11803391 4.74040329 14.11581329 5.8929007 14.11352539 7.08032227 C14.11344986 8.38159561 14.11337433 9.68286896 14.11329651 11.02357483 C14.10818909 12.45451902 14.10297308 13.88546282 14.09765625 15.31640625 C14.09579203 16.7722926 14.09436815 18.22817957 14.09336853 19.68406677 C14.08954365 23.52279379 14.07971364 27.36148319 14.06866455 31.20019531 C14.05844978 35.11457816 14.05387077 39.02896706 14.04882812 42.94335938 C14.03809133 50.62892541 14.02049479 58.31445265 14 66 C9.38 66 4.76 66 0 66 C-0.33 65.34 -0.66 64.68 -1 64 C-1.7425 64.474375 -2.485 64.94875 -3.25 65.4375 C-7.97792809 68.12382278 -12.58554955 68.70047086 -18 68 C-21.18140805 66.98955279 -24.20017745 65.83183138 -27 64 C-27.495 62.515 -27.495 62.515 -28 61 C-28.99 60.67 -29.98 60.34 -31 60 C-36.10469221 52.4710058 -35.98500616 42.70532469 -35 34 C-32.45697313 26.95720801 -29.21534419 21.9168398 -22.75 18.0625 C-13.77274789 15.51894524 -9.57886972 16.71056514 -1 21 C-0.67 14.07 -0.34 7.14 0 0 Z M-18 31 C-21.41747112 36.12620667 -21.35399917 41.84060507 -20.375 47.8125 C-18.74770832 51.58485798 -17.32019151 53.56519289 -14 56 C-10.5 56.83333333 -10.5 56.83333333 -7 56 C-3.20844881 52.96675905 -0.45188157 49.79536044 0.3359375 44.921875 C0.43730996 39.28556599 -0.46962297 34.543726 -4 30 C-9.25841203 26.81809252 -13.08404112 27.41267865 -18 31 Z " fill="#1F1D19" transform="translate(444,176)"/>
<path d="M0 0 C15.51 0 31.02 0 47 0 C47 4.62 47 9.24 47 14 C36.77 14 26.54 14 16 14 C16 18.29 16 22.58 16 27 C24.91 27 33.82 27 43 27 C43 31.29 43 35.58 43 40 C34.09 40 25.18 40 16 40 C16 48.58 16 57.16 16 66 C13.26922124 67.36538938 11.04439633 67.13231826 8 67.125 C6.39125 67.12886719 6.39125 67.12886719 4.75 67.1328125 C2 67 2 67 0 66 C0 44.22 0 22.44 0 0 Z " fill="#23211D" transform="translate(248,176)"/>
<path d="M0 0 C0.928125 0.20625 1.85625 0.4125 2.8125 0.625 C2.8125 1.285 2.8125 1.945 2.8125 2.625 C5.7825 2.625 8.7525 2.625 11.8125 2.625 C13.24107143 11.19642857 13.24107143 11.19642857 10.8125 14.625 C9.1625 14.625 7.5125 14.625 5.8125 14.625 C6.01746094 15.23085937 6.22242188 15.83671875 6.43359375 16.4609375 C8.3845212 22.52841521 9.4202615 28.26803124 9.8125 34.625 C10.8953125 34.7178125 10.8953125 34.7178125 12 34.8125 C15.78361788 35.90554516 17.32684621 37.60190756 19.8125 40.625 C20.163125 41.6975 20.51375 42.77 20.875 43.875 C21.184375 44.7825 21.49375 45.69 21.8125 46.625 C23.84493548 47.59377057 23.84493548 47.59377057 25.8125 47.625 C25.1525 48.945 24.4925 50.265 23.8125 51.625 C21.4375 51.75 21.4375 51.75 18.8125 51.625 C18.1525 50.965 17.4925 50.305 16.8125 49.625 C16.379375 50.57375 15.94625 51.5225 15.5 52.5 C13.8125 55.625 13.8125 55.625 10.8125 57.625 C13.4525 57.955 16.0925 58.285 18.8125 58.625 C19.3075 60.605 19.3075 60.605 19.8125 62.625 C16.8074417 64.12752915 13.71993067 63.75492759 10.42529297 63.73852539 C9.66422241 63.73867142 8.90315186 63.73881744 8.11901855 63.7389679 C5.59754611 63.73826993 3.07614708 63.73048294 0.5546875 63.72265625 C-1.19123291 63.72079166 -2.93715384 63.71936795 -4.68307495 63.71836853 C-9.28295328 63.71454659 -13.88280014 63.70471905 -18.48266602 63.69366455 C-23.1746376 63.68344349 -27.86661425 63.67886942 -32.55859375 63.67382812 C-41.76824301 63.66309651 -50.97786889 63.64602394 -60.1875 63.625 C-60.75 61.6875 -60.75 61.6875 -61.1875 59.625 C-56.80335383 55.24085383 -39.13292193 57.53482546 -33.22265625 57.52734375 C-28.89838679 57.53020029 -24.57423358 57.54553469 -20.25 57.5625 C-18.00586038 57.56752698 -15.76171966 57.57208776 -13.51757812 57.57617188 C-8.07419446 57.58707809 -2.63085249 57.60372051 2.8125 57.625 C2.008125 56.861875 1.20375 56.09875 0.375 55.3125 C-2.1875 52.625 -2.1875 52.625 -3.1875 49.625 C-3.8475 50.285 -4.5075 50.945 -5.1875 51.625 C-8.16845703 51.85205078 -8.16845703 51.85205078 -11.9453125 51.8203125 C-12.60836395 51.8174826 -13.27141541 51.81465271 -13.95455933 51.81173706 C-16.07405583 51.80053435 -18.19313104 51.77543051 -20.3125 51.75 C-21.74869182 51.73997028 -23.18489025 51.73084441 -24.62109375 51.72265625 C-28.14336628 51.700595 -31.66539203 51.66606494 -35.1875 51.625 C-35.33984375 48.73046875 -35.33984375 48.73046875 -35.1875 45.625 C-32.75 43.9375 -32.75 43.9375 -30.1875 42.625 C-29.8575 41.635 -29.5275 40.645 -29.1875 39.625 C-28.5275 39.295 -27.8675 38.965 -27.1875 38.625 C-27.1875 39.285 -27.1875 39.945 -27.1875 40.625 C-23.58240895 40.5442124 -19.97902079 40.43136316 -16.375 40.3125 C-15.35083984 40.28994141 -14.32667969 40.26738281 -13.27148438 40.24414062 C-12.28857422 40.20869141 -11.30566406 40.17324219 -10.29296875 40.13671875 C-9.38699951 40.11053467 -8.48103027 40.08435059 -7.54760742 40.05737305 C-4.77721397 39.54983536 -4.01685807 38.68144607 -2.1875 36.625 C-1.5275 36.625 -0.8675 36.625 -0.1875 36.625 C-0.63222656 35.44550781 -0.63222656 35.44550781 -1.0859375 34.2421875 C-2.44386394 29.78318083 -3.13308166 25.35340589 -3.8125 20.75 C-4.01359375 19.43128906 -4.01359375 19.43128906 -4.21875 18.0859375 C-4.54637059 15.93300222 -4.86758508 13.77909378 -5.1875 11.625 C-7.1675 11.295 -9.1475 10.965 -11.1875 10.625 C-10.8575 9.305 -10.5275 7.985 -10.1875 6.625 C-8.8675 6.625 -7.5475 6.625 -6.1875 6.625 C-6.249375 5.84125 -6.31125 5.0575 -6.375 4.25 C-6.2821875 2.950625 -6.2821875 2.950625 -6.1875 1.625 C-3.1875 -0.375 -3.1875 -0.375 0 0 Z M3.8125 38.625 C3.8125 38.955 3.8125 39.285 3.8125 39.625 C5.7925 39.625 7.7725 39.625 9.8125 39.625 C9.8125 39.295 9.8125 38.965 9.8125 38.625 C7.8325 38.625 5.8525 38.625 3.8125 38.625 Z " fill="#201E19" transform="translate(205.1875,192.375)"/>
<path d="M0 0 C5.7971445 3.06528049 9.68495979 7.11801443 11.9375 13.3125 C13.11097201 20.64670009 14.54583125 29.79622274 10.671875 36.50390625 C9.18502976 38.54268647 7.61526904 40.42928986 5.9375 42.3125 C5.339375 43.075625 4.74125 43.83875 4.125 44.625 C-1.5327461 48.98954699 -8.36435964 49.87935447 -15.3515625 49.6640625 C-22.18541322 48.77782826 -27.80586911 45.75152836 -32.0625 40.3125 C-37.05096321 32.93344361 -38.25341889 26.1230944 -37.0625 17.3125 C-34.97659754 9.77884164 -30.58239668 4.5911822 -24.0625 0.3125 C-16.80224512 -3.17602672 -7.41385677 -3.07768508 0 0 Z M-20.0625 13.3125 C-22.55758858 17.05513288 -22.39362659 19.22118692 -22.4375 23.6875 C-22.46585937 24.99460938 -22.49421875 26.30171875 -22.5234375 27.6484375 C-21.99784764 31.82643146 -21.03001308 33.39345809 -18.0625 36.3125 C-15.30035028 37.98323042 -15.30035028 37.98323042 -12.0625 38.3125 C-7.42727032 36.89836213 -4.45503029 35.56667368 -2.0625 31.3125 C-1.54863714 27.7516456 -1.54863714 27.7516456 -1.625 23.875 C-1.60566406 22.57691406 -1.58632813 21.27882812 -1.56640625 19.94140625 C-2.12975054 15.82056494 -3.16864835 14.22794756 -6.0625 11.3125 C-11.54862811 7.59609064 -15.47324311 8.97131105 -20.0625 13.3125 Z " fill="#24221D" transform="translate(391.0625,194.6875)"/>
<path d="M0 0 C4.59752017 3.18289858 8.13306532 6.66173366 10 12 C10.71567321 16.00888819 10.94689148 19.93188733 11 24 C11.01289063 24.82242188 11.02578125 25.64484375 11.0390625 26.4921875 C10.75712501 32.75987475 8.09021659 36.40894056 4 41 C3.401875 41.763125 2.80375 42.52625 2.1875 43.3125 C-3.4702461 47.67704699 -10.30185964 48.56685447 -17.2890625 48.3515625 C-24.24002562 47.45014077 -29.52129199 44.37444962 -34 39 C-39.47660274 31.54573516 -39.71405659 25.11472233 -39 16 C-37.50932892 8.70779821 -34.2819141 4.69091524 -28.31640625 0.375 C-19.55756147 -4.82417936 -8.9918227 -4.57478699 0 0 Z M-22 12 C-24.49508858 15.74263288 -24.33112659 17.90868692 -24.375 22.375 C-24.40335937 23.68210938 -24.43171875 24.98921875 -24.4609375 26.3359375 C-23.93534764 30.51393146 -22.96751308 32.08095809 -20 35 C-17.23785028 36.67073042 -17.23785028 36.67073042 -14 37 C-9.36477032 35.58586213 -6.39253029 34.25417368 -4 30 C-3.48613714 26.4391456 -3.48613714 26.4391456 -3.5625 22.5625 C-3.54316406 21.26441406 -3.52382813 19.96632812 -3.50390625 18.62890625 C-4.06725054 14.50806494 -5.10614835 12.91544756 -8 10 C-13.48612811 6.28359064 -17.41074311 7.65881105 -22 12 Z " fill="#1D1B18" transform="translate(338,196)"/>
<path d="M0 0 C4.62 0 9.24 0 14 0 C14.92230923 5.49199498 15.16053217 10.79967871 15.16796875 16.36328125 C15.17129715 17.23647507 15.17462555 18.10966888 15.17805481 19.00932312 C15.18309046 20.84222897 15.18546418 22.67514388 15.18530273 24.50805664 C15.18750688 27.32127628 15.20574561 30.13411431 15.22460938 32.94726562 C15.22754042 34.7317695 15.22952715 36.51627522 15.23046875 38.30078125 C15.23765427 39.14345047 15.24483978 39.98611969 15.25224304 40.85432434 C15.22884729 46.77115271 15.22884729 46.77115271 13 49 C10.46875 49.23046875 10.46875 49.23046875 7.5 49.1875 C6.03046875 49.17783203 6.03046875 49.17783203 4.53125 49.16796875 C2 49 2 49 0 48 C0 32.16 0 16.32 0 0 Z " fill="#201D19" transform="translate(489,194)"/>
<path d="M0 0 C4.62 0 9.24 0 14 0 C14.73848191 11.56515416 15.10651152 23.09753526 15.125 34.6875 C15.12951172 35.88737549 15.13402344 37.08725098 15.13867188 38.32348633 C15.13673828 39.43747803 15.13480469 40.55146973 15.1328125 41.69921875 C15.13168457 42.69783936 15.13055664 43.69645996 15.12939453 44.7253418 C15 47 15 47 14 48 C11.83909342 48.26139999 9.67038629 48.45986191 7.5 48.625 C5.72109375 48.76808594 5.72109375 48.76808594 3.90625 48.9140625 C2.9471875 48.94242188 1.988125 48.97078125 1 49 C0 48 0 48 -0.12025452 46.05747986 C-0.11803391 45.20698563 -0.11581329 44.35649139 -0.11352539 43.48022461 C-0.11344986 42.51930405 -0.11337433 41.55838348 -0.11329651 40.56834412 C-0.10813522 39.523564 -0.10297394 38.47878387 -0.09765625 37.40234375 C-0.0962413 36.33834854 -0.09482635 35.27435333 -0.09336853 34.17811584 C-0.08775064 30.76454917 -0.07519511 27.351047 -0.0625 23.9375 C-0.05748731 21.62955824 -0.052924 19.32161545 -0.04882812 17.01367188 C-0.03777539 11.34242289 -0.02049877 5.6712224 0 0 Z " fill="#1D1A16" transform="translate(466,194)"/>
<path d="M0 0 C0.99 0.66 1.98 1.32 3 2 C3.66 1.67 4.32 1.34 5 1 C7.01927511 1.60578253 9.02253397 2.26919734 11 3 C13.21802808 11.1205491 14.73519734 20.68950917 10.73046875 28.46484375 C9.26305222 30.45978724 7.72760974 32.2286533 6 34 C5.34 34.78375 4.68 35.5675 4 36.375 C-0.43980343 39.98234029 -5.33836796 40.23799249 -10.875 40.125 C-12.02742188 40.10695312 -13.17984375 40.08890625 -14.3671875 40.0703125 C-15.23601562 40.04710937 -16.10484375 40.02390625 -17 40 C-17.33 38.35 -17.66 36.7 -18 35 C-17.34 35 -16.68 35 -16 35 C-15.7834375 33.88625 -15.7834375 33.88625 -15.5625 32.75 C-13.44954227 29.0311944 -11.0064219 28.42768076 -7.09375 26.9921875 C-4.67116387 26.06396722 -4.67116387 26.06396722 -3 23 C-2.90866527 20.27993753 -2.90405358 17.65038507 -3 14.9375 C-3.09396733 12.2664785 -3.09322536 9.67731593 -3 7 C-2.34 6.34 -1.68 5.68 -1 5 C-0.35232207 2.42938689 -0.35232207 2.42938689 0 0 Z " fill="#1C1916" transform="translate(391,203)"/>
<path d="M0 0 C3.66613877 0.00537378 7.33215589 0.00002184 10.99829102 -0.00634766 C13.35961941 -0.00568703 15.72094772 -0.00440619 18.08227539 -0.00244141 C19.16276657 -0.00446564 20.24325775 -0.00648987 21.35649109 -0.00857544 C28.11492659 0.01200579 34.7577801 0.40039841 41.47680664 1.13037109 C41.97180664 3.11037109 41.97180664 3.11037109 42.47680664 5.13037109 C39.47174834 6.63290025 36.38423731 6.26029869 33.08959961 6.24389648 C32.32852905 6.24404251 31.5674585 6.24418854 30.7833252 6.24433899 C28.26185275 6.24364102 25.74045372 6.23585404 23.21899414 6.22802734 C21.47307373 6.22616275 19.72715281 6.22473904 17.98123169 6.22373962 C13.38135336 6.21991768 8.7815065 6.21009014 4.18164062 6.19903564 C-0.51033096 6.18881459 -5.20230761 6.18424051 -9.89428711 6.17919922 C-19.10393637 6.1684676 -28.31356225 6.15139504 -37.52319336 6.13037109 C-38.08569336 4.19287109 -38.08569336 4.19287109 -38.52319336 2.13037109 C-32.75272535 -3.64009692 -7.75109522 -0.01353721 0 0 Z " fill="#6F6A5F" transform="translate(182.523193359375,249.86962890625)"/>
<path d="M0 0 C2.56687367 3.8503105 1.83288724 5.58569763 1 10 C-0.98 10.33 -2.96 10.66 -5 11 C-4.95875 11.9075 -4.9175 12.815 -4.875 13.75 C-4.99720095 16.92722465 -5.24397131 18.41216824 -7 21 C-11.03082386 23.68721591 -14.26776778 23.66627096 -19 23 C-21.5625 21.5 -21.5625 21.5 -23 19 C-24.04975993 14.15495417 -24.04975993 14.15495417 -23 11 C-20.38125936 7.79871207 -17.51353201 5.18723185 -14 3 C-12.68 3 -11.36 3 -10 3 C-10 2.34 -10 1.68 -10 1 C-9.34 1 -8.68 1 -8 1 C-7.67 2.32 -7.34 3.64 -7 5 C-7.99 5 -8.98 5 -10 5 C-9.01 5.99 -8.02 6.98 -7 8 C-6.67 6.02 -6.34 4.04 -6 2 C-4.02 1.34 -2.04 0.68 0 0 Z " fill="#100F0B" transform="translate(174,227)"/>
<path d="M0 0 C0.928125 0.20625 1.85625 0.4125 2.8125 0.625 C2.8125 1.285 2.8125 1.945 2.8125 2.625 C5.7825 2.625 8.7525 2.625 11.8125 2.625 C12.9375 10.25 12.9375 10.25 11.8125 13.625 C9.1725 13.295 6.5325 12.965 3.8125 12.625 C4.40053797 15.64919525 5.03928118 18.64258453 5.8125 21.625 C5.1525 21.625 4.4925 21.625 3.8125 21.625 C3.8125 22.615 3.8125 23.605 3.8125 24.625 C3.1525 24.625 2.4925 24.625 1.8125 24.625 C1.8125 25.285 1.8125 25.945 1.8125 26.625 C0.4925 26.295 -0.8275 25.965 -2.1875 25.625 C-3.1775 21.005 -4.1675 16.385 -5.1875 11.625 C-8.1575 11.13 -8.1575 11.13 -11.1875 10.625 C-10.8575 9.305 -10.5275 7.985 -10.1875 6.625 C-8.8675 6.625 -7.5475 6.625 -6.1875 6.625 C-6.2803125 5.449375 -6.2803125 5.449375 -6.375 4.25 C-6.313125 3.38375 -6.25125 2.5175 -6.1875 1.625 C-3.1875 -0.375 -3.1875 -0.375 0 0 Z M0.8125 18.625 C0.4825 19.945 0.1525 21.265 -0.1875 22.625 C0.8025 21.635 1.7925 20.645 2.8125 19.625 C2.1525 19.295 1.4925 18.965 0.8125 18.625 Z " fill="#181514" transform="translate(205.1875,192.375)"/>
<path d="M0 0 C0.33 0.66 0.66 1.32 1 2 C1.59014893 1.98952637 2.18029785 1.97905273 2.78833008 1.96826172 C5.46301004 1.92667956 8.13762197 1.9006671 10.8125 1.875 C12.2056543 1.84986328 12.2056543 1.84986328 13.62695312 1.82421875 C14.51962891 1.81777344 15.41230469 1.81132812 16.33203125 1.8046875 C17.15421143 1.79421387 17.9763916 1.78374023 18.82348633 1.77294922 C21 2 21 2 24 4 C24.8125 7.5 24.8125 7.5 25 11 C23 13 23 13 20.01904297 13.22705078 C18.77268066 13.21657715 17.52631836 13.20610352 16.2421875 13.1953125 C15.57913605 13.1924826 14.91608459 13.18965271 14.23294067 13.18673706 C12.11344417 13.17553435 9.99436896 13.15043051 7.875 13.125 C6.43880818 13.11497028 5.00260975 13.10584441 3.56640625 13.09765625 C0.04413372 13.075595 -3.47789203 13.04106494 -7 13 C-7.15234375 10.10546875 -7.15234375 10.10546875 -7 7 C-4.5625 5.3125 -4.5625 5.3125 -2 4 C-1.67 3.01 -1.34 2.02 -1 1 C-0.67 0.67 -0.34 0.34 0 0 Z " fill="#11100E" transform="translate(177,231)"/>
<path d="M0 0 C2.375 2 2.375 2 4 4 C3.34 5.98 2.68 7.96 2 10 C2.33 9.67 2.66 9.34 3 9 C3.33 9.99 3.66 10.98 4 12 C2 15 2 15 -1 16 C-1.33 16.66 -1.66 17.32 -2 18 C-8.35470441 17.52039967 -8.35470441 17.52039967 -10.9375 15.4375 C-12.47361936 11.91346146 -12.90500363 8.71566532 -12 5 C-8.37997938 0.86283358 -5.53457848 -1.08285231 0 0 Z " fill="#191614" transform="translate(215,232)"/>
<path d="M0 0 C2.33944736 0.28730055 4.6739143 0.61936779 7 1 C7 2.98 7 4.96 7 7 C8.65 7 10.3 7 12 7 C10.14753171 9.66292317 8.90482395 10.01975352 5.6875 10.6875 C-0.51616053 11.2694569 -6.77690096 11.07866277 -13 11 C-12.814375 9.88625 -12.62875 8.7725 -12.4375 7.625 C-11.68319343 4.17431139 -11.68319343 4.17431139 -13 2 C-10.47901757 0.73950878 -8.7450692 0.93536531 -5.9375 1 C-4.29210014 1.03777102 -2.64517844 1.04642479 -1 1 C-0.67 0.67 -0.34 0.34 0 0 Z " fill="#161513" transform="translate(330,194)"/>
<path d="M0 0 C4.62 0 9.24 0 14 0 C15.125 10.75 15.125 10.75 14 13 C9.38 13 4.76 13 0 13 C0 8.71 0 4.42 0 0 Z " fill="#484235" transform="translate(489,176)"/>
<path d="M0 0 C4.62 0 9.24 0 14 0 C14 4.29 14 8.58 14 13 C9.38 13 4.76 13 0 13 C0 8.71 0 4.42 0 0 Z " fill="#322E26" transform="translate(466,176)"/>
<path d="M0 0 C3.7682873 2.51219153 4.28412065 4.89681026 6 9 C6.66 9.33 7.32 9.66 8 10 C8 11.32 8 12.64 8 14 C6.02 14 4.04 14 2 14 C2 13.01 2 12.02 2 11 C1.01 10.67 0.02 10.34 -1 10 C-1 8.35 -1 6.7 -1 5 C-2.65 5 -4.3 5 -6 5 C-6.33 5.99 -6.66 6.98 -7 8 C-7.99 8.66 -8.98 9.32 -10 10 C-10.33 10.99 -10.66 11.98 -11 13 C-13.64 13 -16.28 13 -19 13 C-19.33 12.34 -19.66 11.68 -20 11 C-19.67 10.34 -19.34 9.68 -19 9 C-17.68 9 -16.36 9 -15 9 C-14.79375 8.443125 -14.5875 7.88625 -14.375 7.3125 C-10.78630653 1.27697007 -6.95098933 -0.91805519 0 0 Z " fill="#302A1F" transform="translate(166,164)"/>
<path d="M0 0 C10.42301905 -0.53375346 17.90240713 -0.26533281 26.0625 6.5625 C28 9 28 9 28 12 C27.21625 11.979375 26.4325 11.95875 25.625 11.9375 C23.01885039 11.81315937 23.01885039 11.81315937 21 13 C20.67 12.34 20.34 11.68 20 11 C19.34 12.98 18.68 14.96 18 17 C15 17 15 17 12.9375 15.125 C12.298125 14.42375 11.65875 13.7225 11 13 C10.34 12.34 9.68 11.68 9 11 C9.33 10.67 9.66 10.34 10 10 C9.34 9.34 8.68 8.68 8 8 C10.97 8.495 10.97 8.495 14 9 C14.66 8.01 15.32 7.02 16 6 C14.68 5.67 13.36 5.34 12 5 C12.33 4.34 12.66 3.68 13 3 C10.43106162 1.71553081 8.23423663 1.67022856 5.375 1.4375 C4.37210937 1.35371094 3.36921875 1.26992187 2.3359375 1.18359375 C1.56507813 1.12300781 0.79421875 1.06242188 0 1 C0 0.67 0 0.34 0 0 Z " fill="#221F1B" transform="translate(372,193)"/>
<path d="M0 0 C19.47 0 38.94 0 59 0 C59.495 1.485 59.495 1.485 60 3 C42.84 3 25.68 3 8 3 C8 2.67 8 2.34 8 2 C5.36 1.67 2.72 1.34 0 1 C0 0.67 0 0.34 0 0 Z " fill="#100D06" transform="translate(165,252)"/>
<path d="M0 0 C5.32011893 -0.34886026 5.32011893 -0.34886026 8 0 C10 1.875 10 1.875 11 4 C11 4.66 11 5.32 11 6 C12.65 6.66 14.3 7.32 16 8 C16 9.32 16 10.64 16 12 C14.02 12 12.04 12 10 12 C10 11.34 10 10.68 10 10 C9.01 9.67 8.02 9.34 7 9 C6.67 7.35 6.34 5.7 6 4 C5.01 4 4.02 4 3 4 C2.67 4.99 2.34 5.98 2 7 C-3.00568828 11.89192264 -3.00568828 11.89192264 -6.875 12.3125 C-7.926875 12.1578125 -7.926875 12.1578125 -9 12 C-9.66 10.68 -10.32 9.36 -11 8 C-5 5 -5 5 -2.6875 4 C-0.64996902 3.04145794 -0.64996902 3.04145794 0 0 Z " fill="#191111" transform="translate(210,175)"/>
<path d="M0 0 C4.441725 1.39597071 7.01540848 3.43507124 10 7 C10.8125 9.8125 10.8125 9.8125 11 12 C12.32 12.33 13.64 12.66 15 13 C14.34 14.32 13.68 15.64 13 17 C10.625 17.125 10.625 17.125 8 17 C7.34 16.34 6.68 15.68 6 15 C5.3503125 16.423125 5.3503125 16.423125 4.6875 17.875 C3 21 3 21 0 23 C-0.99 23 -1.98 23 -3 23 C-2.34 21.68 -1.68 20.36 -1 19 C-0.34 19 0.32 19 1 19 C1.33 18.01 1.66 17.02 2 16 C1.34 15.67 0.68 15.34 0 15 C0.350625 13.906875 0.70125 12.81375 1.0625 11.6875 C2.33039454 8.09079627 2.33039454 8.09079627 1 5 C0.34 4.67 -0.32 4.34 -1 4 C-0.34 3.67 0.32 3.34 1 3 C0.67 2.01 0.34 1.02 0 0 Z " fill="#332D21" transform="translate(216,227)"/>
<path d="M0 0 C1.258125 -0.04125 2.51625 -0.0825 3.8125 -0.125 C4.52019531 -0.14820313 5.22789062 -0.17140625 5.95703125 -0.1953125 C8 0 8 0 11 2 C10.70099803 5.28902165 10.27533915 7.56404634 8.5 10.375 C4.77877543 12.79379597 1.31374127 12.79763518 -3 12 C-5.1875 10.375 -5.1875 10.375 -6 8 C-5.1875 4.75 -5.1875 4.75 -4 2 C-3.34 2 -2.68 2 -2 2 C-1.67 3.32 -1.34 4.64 -1 6 C0.32 6 1.64 6 3 6 C2.67 5.01 2.34 4.02 2 3 C1.34 2.67 0.68 2.34 0 2 C0 1.34 0 0.68 0 0 Z " fill="#181614" transform="translate(158,238)"/>
<path d="M0 0 C-0.33 0.99 -0.66 1.98 -1 3 C-4.3 3 -7.6 3 -11 3 C-11 3.99 -11 4.98 -11 6 C-11.63106429 8.01151741 -12.29373761 10.01363702 -13 12 C-12.34 12.33 -11.68 12.66 -11 13 C-11.639375 13.598125 -12.27875 14.19625 -12.9375 14.8125 C-15.87139517 19.34670163 -15.81430312 23.69835408 -16 29 C-16.33 29 -16.66 29 -17 29 C-17 24.71 -17 20.42 -17 16 C-16.34 16 -15.68 16 -15 16 C-15.33 14.02 -15.66 12.04 -16 10 C-17.65 9.67 -19.3 9.34 -21 9 C-21 8.34 -21 7.68 -21 7 C-22.32 7.33 -23.64 7.66 -25 8 C-17.45834248 -0.45579782 -10.78903798 -0.43805117 0 0 Z " fill="#3C382F" transform="translate(330,193)"/>
<path d="M0 0 C0.33 0.66 0.66 1.32 1 2 C2.32 2 3.64 2 5 2 C4.67 3.65 4.34 5.3 4 7 C3.01 7 2.02 7 1 7 C0.67 7.99 0.34 8.98 0 10 C7.59 10.33 15.18 10.66 23 11 C23 11.66 23 12.32 23 13 C13.1 13 3.2 13 -7 13 C-7 11.02 -7 9.04 -7 7 C-4.5625 5.3125 -4.5625 5.3125 -2 4 C-1.67 3.01 -1.34 2.02 -1 1 C-0.67 0.67 -0.34 0.34 0 0 Z " fill="#453833" transform="translate(177,231)"/>
<path d="M0 0 C0.33 0 0.66 0 1 0 C1.33 8.91 1.66 17.82 2 27 C4.31 26.34 6.62 25.68 9 25 C9 25.66 9 26.32 9 27 C15.6 27 22.2 27 29 27 C29.33 26.01 29.66 25.02 30 24 C30 24.99 30 25.98 30 27 C30.99 27.33 31.98 27.66 33 28 C32.67 28.66 32.34 29.32 32 30 C26.10215139 31.3715927 20.13353654 31.04091908 14.109375 30.9375 C10.96479483 30.8466802 10.96479483 30.8466802 8 32 C7.67 31.01 7.34 30.02 7 29 C4.69 28.67 2.38 28.34 0 28 C0 18.76 0 9.52 0 0 Z " fill="#0A0602" transform="translate(139,184)"/>
<path d="M0 0 C2.65613616 1.32806808 2.93232069 2.22403378 4 5 C4.45362392 7.66567762 4.7305884 10.30588399 5 13 C4.34 12.34 3.68 11.68 3 11 C2.2575 11.515625 1.515 12.03125 0.75 12.5625 C-2 14 -2 14 -4.3125 13.6875 C-4.869375 13.460625 -5.42625 13.23375 -6 13 C-7.125 5.25 -7.125 5.25 -6 3 C-3.0625 1.3125 -3.0625 1.3125 0 0 Z " fill="#292620" transform="translate(440,229)"/>
<path d="M0 0 C1.60332791 -0.08121924 3.20784026 -0.13929134 4.8125 -0.1875 C6.15248047 -0.23970703 6.15248047 -0.23970703 7.51953125 -0.29296875 C10.41647515 0.04918998 11.22555028 0.75393573 13 3 C12.67 3.33 12.34 3.66 12 4 C12.99 4.33 13.98 4.66 15 5 C14.34 6.32 13.68 7.64 13 9 C12.67 9 12.34 9 12 9 C11.46375 9.20625 10.9275 9.4125 10.375 9.625 C6.93772171 10.16772815 4.26195048 9.06640689 1 8 C1.20625 7.236875 1.4125 6.47375 1.625 5.6875 C2.33391203 2.78114056 2.33391203 2.78114056 0 0 Z " fill="#10100E" transform="translate(373,194)"/>
<path d="M0 0 C1.19625 0.185625 2.3925 0.37125 3.625 0.5625 C7.28283707 1.0311197 10.37862166 0.81481013 14 0 C14.33 1.32 14.66 2.64 15 4 C13.88625 4.61875 13.88625 4.61875 12.75 5.25 C10.09828315 6.93745618 8.13325986 8.70872089 6 11 C5.34 10.67 4.68 10.34 4 10 C3.87625 9.360625 3.7525 8.72125 3.625 8.0625 C3.19060573 5.80148727 3.19060573 5.80148727 0.9375 4.75 C0.298125 4.5025 -0.34125 4.255 -1 4 C-0.67 2.68 -0.34 1.36 0 0 Z " fill="#39332A" transform="translate(182,165)"/>
<path d="M0 0 C0.928125 0.20625 1.85625 0.4125 2.8125 0.625 C2.8125 1.285 2.8125 1.945 2.8125 2.625 C3.8025 2.955 4.7925 3.285 5.8125 3.625 C4.4925 3.955 3.1725 4.285 1.8125 4.625 C1.8125 3.635 1.8125 2.645 1.8125 1.625 C0.4925 1.625 -0.8275 1.625 -2.1875 1.625 C-0.66543991 4.25401288 0.65615964 6.46865964 2.8125 8.625 C0.73696352 9.1784764 -1.03115964 9.625 -3.1875 9.625 C-3.8475 10.945 -4.5075 12.265 -5.1875 13.625 C-5.1875 12.965 -5.1875 12.305 -5.1875 11.625 C-8.1575 11.13 -8.1575 11.13 -11.1875 10.625 C-10.8575 9.305 -10.5275 7.985 -10.1875 6.625 C-8.8675 6.625 -7.5475 6.625 -6.1875 6.625 C-6.2803125 5.449375 -6.2803125 5.449375 -6.375 4.25 C-6.313125 3.38375 -6.25125 2.5175 -6.1875 1.625 C-3.1875 -0.375 -3.1875 -0.375 0 0 Z " fill="#2F2823" transform="translate(205.1875,192.375)"/>
<path d="M0 0 C2.31 0.66 4.62 1.32 7 2 C5.95833333 3.69270833 4.91666667 5.38541667 3.875 7.078125 C2.72375977 9.25479385 2.72375977 9.25479385 3 13 C6.3 13 9.6 13 13 13 C13 13.33 13 13.66 13 14 C5.87399867 14.35368021 0.52940894 13.95671348 -6 11 C-5.566875 10.54109375 -5.13375 10.0821875 -4.6875 9.609375 C-3.8521875 8.68898437 -3.8521875 8.68898437 -3 7.75 C-2.443125 7.14671875 -1.88625 6.5434375 -1.3125 5.921875 C0.37597443 3.837347 0.37597443 3.837347 0 0 Z " fill="#3D382D" transform="translate(371,230)"/>
<path d="M0 0 C1.75 0.875 1.75 0.875 3.75 3.875 C3.375 6.0625 3.375 6.0625 2.75 7.875 C5.72 8.37 5.72 8.37 8.75 8.875 C8.75 9.205 8.75 9.535 8.75 9.875 C7.656875 10.16375 6.56375 10.4525 5.4375 10.75 C1.70986155 11.69393204 1.70986155 11.69393204 -1.25 13.875 C-1.37375 12.781875 -1.4975 11.68875 -1.625 10.5625 C-2.00464801 6.80118198 -2.00464801 6.80118198 -4.25 3.875 C-6.23 4.865 -6.23 4.865 -8.25 5.875 C-8.25 4.885 -8.25 3.895 -8.25 2.875 C-2.90587045 -0.16143725 -2.90587045 -0.16143725 0 0 Z " fill="#25241D" transform="translate(372.25,194.125)"/>
<path d="M0 0 C1.65 0 3.3 0 5 0 C4.34 1.32 3.68 2.64 3 4 C3.66 4.66 4.32 5.32 5 6 C4.01 6 3.02 6 2 6 C1.67 19.53 1.34 33.06 1 47 C0.67 47 0.34 47 0 47 C0 31.49 0 15.98 0 0 Z " fill="#0F0700" transform="translate(249,177)"/>
<path d="M0 0 C2.09749995 2.35968744 2.96905704 3.54616994 3.1875 6.75 C3.125625 7.4925 3.06375 8.235 3 9 C-0.64985116 10.35179673 -2.52828653 9.55313497 -6 8 C-6.66 8 -7.32 8 -8 8 C-8 6.35 -8 4.7 -8 3 C-7.13375 2.814375 -7.13375 2.814375 -6.25 2.625 C-3.97664233 1.99351176 -2.0746471 1.11141809 0 0 Z " fill="#161613" transform="translate(368,197)"/>
<path d="M0 0 C2.125 0.9375 2.125 0.9375 4 2 C3.505 2.94875 3.01 3.8975 2.5 4.875 C0.85575631 7.72278166 0.85575631 7.72278166 1 10 C2.65 10 4.3 10 6 10 C6 10.33 6 10.66 6 11 C2.37 11 -1.26 11 -5 11 C-5.33 9.35 -5.66 7.7 -6 6 C-5.34 6 -4.68 6 -4 6 C-3.71125 5.195625 -3.4225 4.39125 -3.125 3.5625 C-2 1 -2 1 0 0 Z " fill="#100E0C" transform="translate(379,232)"/>
<path d="M0 0 C1.37562854 1.28965176 2.70766393 2.62689293 4 4 C4 4.66 4 5.32 4 6 C6.475 6.99 6.475 6.99 9 8 C9 9.32 9 10.64 9 12 C7.02 12 5.04 12 3 12 C3 11.34 3 10.68 3 10 C2.01 9.67 1.02 9.34 0 9 C-1.125 3.375 -1.125 3.375 0 0 Z " fill="#524A37" transform="translate(217,175)"/>
<path d="M0 0 C0.40729228 2.32156597 0.74438677 4.6568787 1 7 C-3.25566547 8.16063604 -6.6835078 7.76173392 -11 7 C-3.96875 -1.984375 -3.96875 -1.984375 0 0 Z " fill="#111011" transform="translate(502,179)"/>
<path d="M0 0 C4.53897705 -0.02465392 9.07791543 -0.04283789 13.61694336 -0.05493164 C15.16219766 -0.0599714 16.70744716 -0.0668032 18.25268555 -0.07543945 C20.46925029 -0.08752076 22.68575218 -0.09323173 24.90234375 -0.09765625 C25.5971434 -0.10281754 26.29194305 -0.10797882 27.00779724 -0.11329651 C28.6722933 -0.11349277 30.33665499 -0.06189129 32 0 C33 1 33 1 33.09765625 3.50390625 C33.08605469 4.51324219 33.07445312 5.52257812 33.0625 6.5625 C33.05347656 7.57441406 33.04445313 8.58632812 33.03515625 9.62890625 C33.02355469 10.41136719 33.01195312 11.19382813 33 12 C31 11 31 11 30 8 C29.67 7.34 29.34 6.68 29 6 C29 4.68 29 3.36 29 2 C19.43 1.67 9.86 1.34 0 1 C0 0.67 0 0.34 0 0 Z " fill="#110C03" transform="translate(262,177)"/>
<path d="M0 0 C0.66 0.33 1.32 0.66 2 1 C-1.55555556 4.80952381 -1.55555556 4.80952381 -4.1875 5.9375 C-6.29633683 6.89341749 -6.29633683 6.89341749 -6.75 9.625 C-6.8325 10.40875 -6.915 11.1925 -7 12 C-8.65 12 -10.3 12 -12 12 C-12.66 10.68 -13.32 9.36 -14 8 C-13.21625 7.731875 -12.4325 7.46375 -11.625 7.1875 C-8.71885077 6.15185568 -8.71885077 6.15185568 -7 3 C-5.0625 2.4375 -5.0625 2.4375 -3 2 C-2.01 1.34 -1.02 0.68 0 0 Z " fill="#332C1F" transform="translate(156,232)"/>
<path d="M0 0 C2.60444348 -0.05394705 5.20776998 -0.09364469 7.8125 -0.125 C8.55048828 -0.14175781 9.28847656 -0.15851563 10.04882812 -0.17578125 C13.91246426 -0.21074628 15.70903668 -0.19397555 19 2 C19.75 4 19.75 4 20 6 C19.67 6.66 19.34 7.32 19 8 C18.01 8 17.02 8 16 8 C16 7.34 16 6.68 16 6 C14.68 5.67 13.36 5.34 12 5 C12 3.68 12 2.36 12 1 C6.06 1.495 6.06 1.495 0 2 C0 1.34 0 0.68 0 0 Z " fill="#0E0D0A" transform="translate(182,233)"/>
<path d="M0 0 C0.99 0 1.98 0 3 0 C3 1.65 3 3.3 3 5 C4.65 5 6.3 5 8 5 C5.97903251 7.90514077 4.7016925 8.05773694 1.125 8.75 C-2.10239988 9.05368523 -4.85295602 8.88510612 -8 8 C-4.375 5 -4.375 5 -1 5 C-0.67 3.35 -0.34 1.7 0 0 Z " fill="#0F100D" transform="translate(334,196)"/>
<path d="M0 0 C1.32 0 2.64 0 4 0 C4.33 0.66 4.66 1.32 5 2 C6.98 1.67 8.96 1.34 11 1 C11 3.31 11 5.62 11 8 C9.68 7.67 8.36 7.34 7 7 C7 6.34 7 5.68 7 5 C5.68 5.33 4.36 5.66 3 6 C0 2.25 0 2.25 0 0 Z " fill="#100F0B" transform="translate(203,194)"/>
<path d="M0 0 C1 2 2 4 3 6 C2.34 6 1.68 6 1 6 C0.34 7.32 -0.32 8.64 -1 10 C-1.66 10 -2.32 10 -3 10 C-3.33 10.66 -3.66 11.32 -4 12 C-5.70840281 10.36587557 -6.93453047 9.13093906 -8 7 C-3.375 3 -3.375 3 0 3 C0 2.01 0 1.02 0 0 Z " fill="#302B21" transform="translate(206,226)"/>
<path d="M0 0 C0.66 0.99 1.32 1.98 2 3 C0.68 3.33 -0.64 3.66 -2 4 C-2 3.01 -2 2.02 -2 1 C-1.34 0.67 -0.68 0.34 0 0 Z M3 2 C3.33 3.32 3.66 4.64 4 6 C3.34 6 2.68 6 2 6 C2 6.99 2 7.98 2 9 C1.34 9 0.68 9 0 9 C0 9.66 0 10.32 0 11 C-1.32 10.67 -2.64 10.34 -4 10 C-5.125 6.25 -5.125 6.25 -4 4 C-3.34 4 -2.68 4 -2 4 C-1.67 4.66 -1.34 5.32 -1 6 C0.32 4.68 1.64 3.36 3 2 Z " fill="#100F0D" transform="translate(207,208)"/>
<path d="M0 0 C1.98 0 3.96 0 6 0 C6 2.64 6 5.28 6 8 C4.02 8 2.04 8 0 8 C0 5.36 0 2.72 0 0 Z " fill="#3D3529" transform="translate(151,183)"/>
<path d="M0 0 C4.62 0 9.24 0 14 0 C14.33 0.99 14.66 1.98 15 3 C9.72 3 4.44 3 -1 3 C-0.67 2.01 -0.34 1.02 0 0 Z " fill="#18150B" transform="translate(210,252)"/>
<path d="M0 0 C1.9078584 3.1749094 2.1609041 5.10585211 1.625 8.75 C1.51414063 9.54921875 1.40328125 10.3484375 1.2890625 11.171875 C1.19367188 11.77515625 1.09828125 12.3784375 1 13 C0.67 12.34 0.34 11.68 0 11 C-3.02934491 10.34227572 -3.02934491 10.34227572 -6 10 C-5.67 8.68 -5.34 7.36 -5 6 C-3.68 6 -2.36 6 -1 6 C-1.020625 5.195625 -1.04125 4.39125 -1.0625 3.5625 C-1 1 -1 1 0 0 Z " fill="#4D4436" transform="translate(200,193)"/>
<path d="M0 0 C2.20805524 -0.0544452 4.41650554 -0.09299283 6.625 -0.125 C7.85476563 -0.14820313 9.08453125 -0.17140625 10.3515625 -0.1953125 C13.94316041 -0.0030428 16.66661175 0.69741444 20 2 C19.6875 3.9375 19.6875 3.9375 19 6 C16 7 16 7 13.8125 6.0625 C13.214375 5.711875 12.61625 5.36125 12 5 C12.33 4.34 12.66 3.68 13 3 C10.43106162 1.71553081 8.23423663 1.67022856 5.375 1.4375 C4.37210937 1.35371094 3.36921875 1.26992187 2.3359375 1.18359375 C1.56507813 1.12300781 0.79421875 1.06242188 0 1 C0 0.67 0 0.34 0 0 Z " fill="#524C3F" transform="translate(372,193)"/>
<path d="M0 0 C2.31 0.33 4.62 0.66 7 1 C7 1.33 7 1.66 7 2 C5.35 2 3.7 2 2 2 C2.33 2.9075 2.66 3.815 3 4.75 C4 8 4 8 4 12 C3.01 12 2.02 12 1 12 C0.67 11.01 0.34 10.02 0 9 C0.66 9 1.32 9 2 9 C1.67 8.2575 1.34 7.515 1 6.75 C0 4 0 4 0 0 Z M-3 6 C-2.34 6.66 -1.68 7.32 -1 8 C-1.99 8.66 -2.98 9.32 -4 10 C-3.67 8.68 -3.34 7.36 -3 6 Z " fill="#3F342B" transform="translate(209,205)"/>
<path d="M0 0 C4.43458973 1.3937282 6.87378374 3.60582235 10 7 C9.67 7.99 9.34 8.98 9 10 C7 8 7 8 5 5 C4.01 5.99 3.02 6.98 2 8 C1.67 7.01 1.34 6.02 1 5 C0.34 4.67 -0.32 4.34 -1 4 C-0.34 3.67 0.32 3.34 1 3 C0.67 2.01 0.34 1.02 0 0 Z " fill="#585344" transform="translate(216,227)"/>
<path d="M0 0 C2.5 2.25 2.5 2.25 5 5 C5 6.32 5 7.64 5 9 C3.02 9 1.04 9 -1 9 C-1 8.01 -1 7.02 -1 6 C-1.66 5.67 -2.32 5.34 -3 5 C-2.01 3.35 -1.02 1.7 0 0 Z " fill="#3D362A" transform="translate(169,169)"/>
<path d="M0 0 C1.18851562 0.00902344 2.37703125 0.01804688 3.6015625 0.02734375 C4.51679688 0.03894531 5.43203125 0.05054688 6.375 0.0625 C6.045 1.0525 5.715 2.0425 5.375 3.0625 C4.68792969 3.05089844 4.00085938 3.03929687 3.29296875 3.02734375 C2.39191406 3.01832031 1.49085938 3.00929687 0.5625 3 C-0.33082031 2.98839844 -1.22414063 2.97679687 -2.14453125 2.96484375 C-4.75913791 2.95240033 -4.75913791 2.95240033 -7.625 4.0625 C-7.955 3.0725 -8.285 2.0825 -8.625 1.0625 C-5.74084117 -0.37957941 -3.20778472 -0.03144887 0 0 Z " fill="#544C38" transform="translate(323.625,192.9375)"/>
<path d="M0 0 C2.125 0.9375 2.125 0.9375 4 2 C2.68 2 1.36 2 0 2 C0.66 4.97 1.32 7.94 2 11 C-0.64 11 -3.28 11 -6 11 C-6 10.67 -6 10.34 -6 10 C-4.35 9.67 -2.7 9.34 -1 9 C-1.5259375 7.8553125 -1.5259375 7.8553125 -2.0625 6.6875 C-3 4 -3 4 -2 1 C-1.34 0.67 -0.68 0.34 0 0 Z " fill="#0E0C07" transform="translate(433,232)"/>
<path d="M0 0 C2.31 0 4.62 0 7 0 C6.67 1.32 6.34 2.64 6 4 C5.01 4 4.02 4 3 4 C2.67 4.66 2.34 5.32 2 6 C1.01 5.34 0.02 4.68 -1 4 C-0.67 2.68 -0.34 1.36 0 0 Z " fill="#1D180D" transform="translate(210,175)"/>
<path d="M0 0 C0.99 0.33 1.98 0.66 3 1 C3 1.66 3 2.32 3 3 C3.66 3.33 4.32 3.66 5 4 C4.67 4.33 4.34 4.66 4 5 C4.66 5.66 5.32 6.32 6 7 C3.36 7 0.72 7 -2 7 C-2 6.34 -2 5.68 -2 5 C-2.66 4.67 -3.32 4.34 -4 4 C-2.68 3.34 -1.36 2.68 0 2 C0 1.34 0 0.68 0 0 Z " fill="#3C3A32" transform="translate(428,237)"/>
<path d="M0 0 C-0.33 1.65 -0.66 3.3 -1 5 C-2.98 5.66 -4.96 6.32 -7 7 C-7.33 9.31 -7.66 11.62 -8 14 C-8.33 14 -8.66 14 -9 14 C-9.36329537 10.98983839 -9.61162751 8.91699272 -9 6 C-6.70950008 3.12635443 -3.84141905 0 0 0 Z " fill="#1F1B11" transform="translate(160,232)"/>
<path d="M0 0 C1.65 0 3.3 0 5 0 C4.34 1.32 3.68 2.64 3 4 C3.66 4.66 4.32 5.32 5 6 C4.01 6 3.02 6 2 6 C2 9.3 2 12.6 2 16 C1.67 16 1.34 16 1 16 C0.67 10.72 0.34 5.44 0 0 Z " fill="#120D08" transform="translate(249,177)"/>
<path d="M0 0 C2.31 0 4.62 0 7 0 C7.33 1.32 7.66 2.64 8 4 C5.36 4 2.72 4 0 4 C-0.33 3.34 -0.66 2.68 -1 2 C-0.67 1.34 -0.34 0.68 0 0 Z " fill="#2C2318" transform="translate(147,173)"/>
<path d="M0 0 C2.0625 1.6875 2.0625 1.6875 4 4 C3.75 6.75 3.75 6.75 3 9 C2.01 9 1.02 9 0 9 C-1.125 3.375 -1.125 3.375 0 0 Z " fill="#383227" transform="translate(217,175)"/>
<path d="M0 0 C0.66 0 1.32 0 2 0 C3.47006623 4.41019868 2.43537323 7.69388031 1 12 C-1.44576827 8.33134759 -1.23607254 6.32799657 -1 2 C-0.67 1.34 -0.34 0.68 0 0 Z " fill="#3E392B" transform="translate(144,213)"/>
<path d="M0 0 C0 0.99 0 1.98 0 3 C1.32 2.67 2.64 2.34 4 2 C3.67 2.66 3.34 3.32 3 4 C0.93359375 4.4140625 0.93359375 4.4140625 -1.5625 4.625 C-2.38878906 4.69976562 -3.21507812 4.77453125 -4.06640625 4.8515625 C-5.02353516 4.92503906 -5.02353516 4.92503906 -6 5 C-5.625 3.0625 -5.625 3.0625 -5 1 C-3 0 -3 0 0 0 Z " fill="#1F1B19" transform="translate(323,200)"/>
<path d="M0 0 C0.33 0 0.66 0 1 0 C1.33 3.3 1.66 6.6 2 10 C1.01 10 0.02 10 -1 10 C-2.76462683 6.91190305 -3 5.76687864 -3 2 C-2.34 2 -1.68 2 -1 2 C-0.67 1.34 -0.34 0.68 0 0 Z " fill="#413934" transform="translate(213,217)"/>
<path d="M0 0 C0.99 0 1.98 0 3 0 C3.33 2.64 3.66 5.28 4 8 C3.01 8.495 3.01 8.495 2 9 C0.4375 6.1875 0.4375 6.1875 -1 3 C-0.67 2.01 -0.34 1.02 0 0 Z " fill="#242017" transform="translate(214,195)"/>
<path d="M0 0 C1.2065625 0.0309375 1.2065625 0.0309375 2.4375 0.0625 C0.4575 2.3725 -1.5225 4.6825 -3.5625 7.0625 C-4.5525 6.7325 -5.5425 6.4025 -6.5625 6.0625 C-6.1875 4.125 -6.1875 4.125 -5.5625 2.0625 C-4.9025 1.7325 -4.2425 1.4025 -3.5625 1.0625 C-2.5625 0.0625 -2.5625 0.0625 0 0 Z " fill="#5F5245" transform="translate(192.5625,168.9375)"/>
<path d="M0 0 C1.31625194 2.63250388 0.74813658 3.80179056 0.0625 6.625 C-0.13214844 7.44226563 -0.32679688 8.25953125 -0.52734375 9.1015625 C-0.68332031 9.72804687 -0.83929688 10.35453125 -1 11 C-1.99 10.67 -2.98 10.34 -4 10 C-3.43454163 6.04179141 -2.19097652 3.3340947 0 0 Z " fill="#494131" transform="translate(414,200)"/>
<path d="M0 0 C0.33 1.32 0.66 2.64 1 4 C1.66 4 2.32 4 3 4 C3 4.66 3 5.32 3 6 C1.02 6.99 1.02 6.99 -1 8 C-1.103125 7.360625 -1.20625 6.72125 -1.3125 6.0625 C-1.539375 5.381875 -1.76625 4.70125 -2 4 C-2.99 3.67 -3.98 3.34 -5 3 C-4.360625 2.87625 -3.72125 2.7525 -3.0625 2.625 C-2.0415625 2.315625 -2.0415625 2.315625 -1 2 C-0.67 1.34 -0.34 0.68 0 0 Z " fill="#10100C" transform="translate(212,232)"/>
<path d="M0 0 C2.3125 0.0625 2.3125 0.0625 5 1 C6.8125 4.5625 6.8125 4.5625 8 8 C6.68 7.34 5.36 6.68 4 6 C4 5.34 4 4.68 4 4 C3.01 3.67 2.02 3.34 1 3 C0.67 2.01 0.34 1.02 0 0 Z " fill="#6A6447" transform="translate(412,233)"/>
<path d="M0 0 C2.475 0.99 2.475 0.99 5 2 C5 2.66 5 3.32 5 4 C5.66 4.33 6.32 4.66 7 5 C1 5 1 5 -2 4 C-1.34 2.68 -0.68 1.36 0 0 Z " fill="#0E0C0A" transform="translate(211,225)"/>
<path d="M0 0 C0.33 0.66 0.66 1.32 1 2 C3.02463255 2.65213292 3.02463255 2.65213292 5 3 C4.34 4.32 3.68 5.64 3 7 C1.35 7 -0.3 7 -2 7 C-2 6.34 -2 5.68 -2 5 C-0.68 5 0.64 5 2 5 C2 4.34 2 3.68 2 3 C1.34 3 0.68 3 0 3 C0 2.01 0 1.02 0 0 Z " fill="#6E684F" transform="translate(226,237)"/>
<path d="M0 0 C2.52259061 1.97420135 2.9929808 2.96745642 3.6875 6.1875 C3.790625 7.115625 3.89375 8.04375 4 9 C3.34 9 2.68 9 2 9 C2 8.01 2 7.02 2 6 C1.01 5.67 0.02 5.34 -1 5 C-0.67 3.35 -0.34 1.7 0 0 Z " fill="#110D11" transform="translate(363,231)"/>
<path d="M0 0 C0.33 0.66 0.66 1.32 1 2 C1.99 2 2.98 2 4 2 C3.67 3.98 3.34 5.96 3 8 C2.34 8 1.68 8 1 8 C-0.35439668 5.29120665 -0.06501451 2.99066732 0 0 Z " fill="#110C08" transform="translate(355,219)"/>
<path d="M0 0 C5.875 3.75 5.875 3.75 7 6 C4.69 5.67 2.38 5.34 0 5 C-0.33 4.01 -0.66 3.02 -1 2 C-0.67 1.34 -0.34 0.68 0 0 Z " fill="#453F33" transform="translate(337,196)"/>
<path d="M0 0 C2.475 0.99 2.475 0.99 5 2 C5 2.66 5 3.32 5 4 C3.37373596 5.38232443 1.7074998 6.71937515 0 8 C0 5.36 0 2.72 0 0 Z " fill="#3D3729" transform="translate(207,178)"/>
<path d="M0 0 C2.625 -0.1875 2.625 -0.1875 5 0 C4.34 1.32 3.68 2.64 3 4 C2.34 4 1.68 4 1 4 C0.67 4.66 0.34 5.32 0 6 C-0.66 5.01 -1.32 4.02 -2 3 C-1.34 2.01 -0.68 1.02 0 0 Z " fill="#676251" transform="translate(202,232)"/>
<path d="M0 0 C3.53600465 1.91135386 5.78972846 3.62642766 8 7 C6.02 6.34 4.04 5.68 2 5 C2 4.34 2 3.68 2 3 C1.34 3 0.68 3 0 3 C0 2.01 0 1.02 0 0 Z " fill="#595345" transform="translate(392,196)"/>
<path d="M0 0 C2.31 0 4.62 0 7 0 C5 2 5 2 2 3 C1.34 2.67 0.68 2.34 0 2 C0 1.34 0 0.68 0 0 Z M1 3 C1.99 3.33 2.98 3.66 4 4 C4 4.66 4 5.32 4 6 C2.68 5.67 1.36 5.34 0 5 C0.33 4.34 0.66 3.68 1 3 Z " fill="#110E0A" transform="translate(428,194)"/>
<path d="M0 0 C0.33 0.66 0.66 1.32 1 2 C-0.98 4.97 -0.98 4.97 -3 8 C-4.65 7.67 -6.3 7.34 -8 7 C-7.01 6.34 -6.02 5.68 -5 5 C-3.31384218 3.35305515 -1.64429829 1.68873879 0 0 Z " fill="#464230" transform="translate(333,226)"/>
<path d="M0 0 C1.98 0.99 1.98 0.99 4 2 C4 2.66 4 3.32 4 4 C4.66 4.33 5.32 4.66 6 5 C5.67 5.99 5.34 6.98 5 8 C2.5 5.6875 2.5 5.6875 0 3 C0 2.01 0 1.02 0 0 Z " fill="#4A432F" transform="translate(304,232)"/>
<path d="M0 0 C2.475 0.99 2.475 0.99 5 2 C4.67 2.66 4.34 3.32 4 4 C3.01 3.67 2.02 3.34 1 3 C1.33 3.99 1.66 4.98 2 6 C1.34 6 0.68 6 0 6 C-0.66 4.68 -1.32 3.36 -2 2 C-1.34 1.34 -0.68 0.68 0 0 Z " fill="#393733" transform="translate(438,195)"/>
<path d="M0 0 C-0.1875 1.875 -0.1875 1.875 -1 4 C-3.5625 5.25 -3.5625 5.25 -6 6 C-6 3 -6 3 -4.6875 1.3125 C-3 0 -3 0 0 0 Z " fill="#463D30" transform="translate(168,244)"/>
<path d="M0 0 C0.66 0 1.32 0 2 0 C2 0.99 2 1.98 2 3 C-0.64 3.66 -3.28 4.32 -6 5 C-6 4.01 -6 3.02 -6 2 C-4.7934375 1.7834375 -4.7934375 1.7834375 -3.5625 1.5625 C-1.07896294 1.25864751 -1.07896294 1.25864751 0 0 Z " fill="#373321" transform="translate(391,238)"/>
<path d="M0 0 C2.31 0.33 4.62 0.66 7 1 C7.33 2.98 7.66 4.96 8 7 C2.25 2.25 2.25 2.25 0 0 Z " fill="#6A5D45" transform="translate(326,204)"/>
<path d="M0 0 C-0.33 0.99 -0.66 1.98 -1 3 C-2.9375 3.5625 -2.9375 3.5625 -5 4 C-5.66 4.66 -6.32 5.32 -7 6 C-7 5.01 -7 4.02 -7 3 C-4.46815512 0.64276511 -3.52809907 0 0 0 Z " fill="#1F1F11" transform="translate(212,232)"/>
<path d="M0 0 C0.66 0 1.32 0 2 0 C2.33 1.32 2.66 2.64 3 4 C0.6875 4.625 0.6875 4.625 -2 5 C-2.99 4.34 -3.98 3.68 -5 3 C-3.35 2.67 -1.7 2.34 0 2 C0 1.34 0 0.68 0 0 Z " fill="#0B0703" transform="translate(164,228)"/>
<path d="M0 0 C0 0.66 0 1.32 0 2 C-1.8125 3.6875 -1.8125 3.6875 -4 5 C-4.99 4.67 -5.98 4.34 -7 4 C-3.375 0 -3.375 0 0 0 Z " fill="#3E382B" transform="translate(370,195)"/>
<path d="M0 0 C3 1.5 3 1.5 6 3 C6 3.66 6 4.32 6 5 C4.35 5 2.7 5 1 5 C0.34 3.68 -0.32 2.36 -1 1 C-0.67 0.67 -0.34 0.34 0 0 Z " fill="#352D1F" transform="translate(200,182)"/>
<path d="M0 0 C2.97 0.495 2.97 0.495 6 1 C6 1.33 6 1.66 6 2 C4.35 2 2.7 2 1 2 C1 2.66 1 3.32 1 4 C1.66 4.33 2.32 4.66 3 5 C1.68 4.67 0.36 4.34 -1 4 C-0.67 2.68 -0.34 1.36 0 0 Z " fill="#6D6451" transform="translate(182,165)"/>
<path d="M0 0 C0.99 0.33 1.98 0.66 3 1 C3 1.66 3 2.32 3 3 C3.99 3 4.98 3 6 3 C6.33 2.34 6.66 1.68 7 1 C6.67 2.32 6.34 3.64 6 5 C3.69 4.34 1.38 3.68 -1 3 C-0.67 2.01 -0.34 1.02 0 0 Z " fill="#2F2B27" transform="translate(195,238)"/>
<path d="M0 0 C0.66 0.33 1.32 0.66 2 1 C-0.36292656 3.52588702 -1.66462511 4.88820837 -5 6 C-5 5.01 -5 4.02 -5 3 C-2.625 1.25 -2.625 1.25 0 0 Z " fill="#736960" transform="translate(156,232)"/>
<path d="M0 0 C0.66 0 1.32 0 2 0 C2.625 2.375 2.625 2.375 3 5 C2.34 5.66 1.68 6.32 1 7 C0.01 5.68 -0.98 4.36 -2 3 C-1.34 2.67 -0.68 2.34 0 2 C0 1.34 0 0.68 0 0 Z " fill="#342F2C" transform="translate(166,228)"/>
<path d="" fill="#000000" transform="translate(0,0)"/>
</svg>
